M48
;DRILL file {KiCad (2017-11-16 revision 00bb00016)-makepkg} date 12/02/17 02:27:13
;FORMAT={2:4/ absolute / inch / suppress leading zeros}
FMAT,2
INCH,TZ
T1C0.016
T2C0.039
T3C0.126
%
G90
G05
M72
T1
X47933Y-37795
X48327Y-41437
X48720Y-41831
X48819Y-37795
X51163Y-32519
X51673Y-37402
X51673Y-37992
X51673Y-38583
X52264Y-37992
X52657Y-35728
X53445Y-35728
X53839Y-32382
X54232Y-35728
X54528Y-32382
X54921Y-41240
X54921Y-41929
X54921Y-42618
X55315Y-32382
X59350Y-28248
X59350Y-28839
X60236Y-34646
X60728Y-34646
X61220Y-34646
X62992Y-35728
X63484Y-35236
X63878Y-34843
X64370Y-37106
X64961Y-36614
X65453Y-36122
T2
X50313Y-30019
X50313Y-31019
X51313Y-30019
X51313Y-31019
X52313Y-30019
X52313Y-31019
X53313Y-30019
X53313Y-31019
X54313Y-30019
X54313Y-31019
X55313Y-30019
X55313Y-31019
X56313Y-30019
X56313Y-31019
X57313Y-30019
X57313Y-31019
X58313Y-30019
X58313Y-31019
X59313Y-30019
X59313Y-31019
X60313Y-30019
X60313Y-31019
X61313Y-30019
X61313Y-31019
X62313Y-30019
X62313Y-31019
X63313Y-30019
X63313Y-31019
X64313Y-30019
X64313Y-31019
X65313Y-30019
X65313Y-31019
X66313Y-30019
X66313Y-31019
X67313Y-30019
X67313Y-31019
X68313Y-30019
X68313Y-31019
X69313Y-30019
X69313Y-31019
X51663Y-26669
X52663Y-26669
X53663Y-26669
X54663Y-26669
X59843Y-33465
X60843Y-33465
X61843Y-33465
X62843Y-33465
X63843Y-33465
X64843Y-33465
X65843Y-33465
X66843Y-33465
X67843Y-33465
X68843Y-33465
X48425Y-43511
X48425Y-44511
X49425Y-43511
X49425Y-44511
X50425Y-43511
X50425Y-44511
X47663Y-31669
X47663Y-32669
X47663Y-33669
X47663Y-34669
X47663Y-35669
X47663Y-36669
T3
X71230Y-27763
X48395Y-27763
X48395Y-39574
X71230Y-39574
T0
M30
