M48
;DRILL file {KiCad (2017-11-16 revision 00bb00016)-makepkg} date 11/28/17 23:57:01
;FORMAT={2:4/ absolute / inch / suppress leading zeros}
FMAT,2
INCH,TZ
T1C0.039
T2C0.043
T3C0.126
T4C0.157
%
G90
G05
M72
T1
X4232Y-9449
X6988Y-5610
X6988Y-6791
X8169Y-10925
X12894Y-4331
X16535Y-6791
X17224Y-10733
X17421Y-5217
X17717Y-6890
X18307Y-10138
X18406Y-12106
X19291Y-10728
X20669Y-8957
X21063Y-6890
X21421Y-11382
X23524Y-5315
X26083Y-6004
X33661Y-6791
X35630Y-4331
X37697Y-13189
X38484Y-9547
X40354Y-5315
X44980Y-9055
X46358Y-11319
X47736Y-14764
X47835Y-7579
X47835Y-9252
X4626Y-4331
X4626Y-7331
X7159Y-12790
X7159Y-13790
X7159Y-14790
X8159Y-12790
X8159Y-13790
X8159Y-14790
X24803Y-2071
X24803Y-8071
X1772Y-5169
X1772Y-6169
X1772Y-7169
X1772Y-8169
X51165Y-7382
X52165Y-7382
X27587Y-5472
X27587Y-10472
X28587Y-5472
X28587Y-10472
X29587Y-5472
X29587Y-10472
X30587Y-5472
X30587Y-10472
X31587Y-5472
X31587Y-10472
X32587Y-5472
X32587Y-10472
X33587Y-5472
X33587Y-10472
X34587Y-5472
X34587Y-10472
X35587Y-5472
X35587Y-10472
X36587Y-5472
X36587Y-10472
X51165Y-4528
X52165Y-4528
X26083Y-2071
X26083Y-8071
X45409Y-12790
X45409Y-13790
X45409Y-14790
X46409Y-12790
X46409Y-13790
X46409Y-14790
X17421Y-13189
X17421Y-14189
X18421Y-13189
X18421Y-14189
X19421Y-13189
X19421Y-14189
X20421Y-13189
X20421Y-14189
X21421Y-13189
X21421Y-14189
X22421Y-13189
X22421Y-14189
X23421Y-13189
X23421Y-14189
X24421Y-13189
X24421Y-14189
X25421Y-13189
X25421Y-14189
X26421Y-13189
X26421Y-14189
X27421Y-13189
X27421Y-14189
X28421Y-13189
X28421Y-14189
X29421Y-13189
X29421Y-14189
X30421Y-13189
X30421Y-14189
X31421Y-13189
X31421Y-14189
X32421Y-13189
X32421Y-14189
X33421Y-13189
X33421Y-14189
X34421Y-13189
X34421Y-14189
X35421Y-13189
X35421Y-14189
X36421Y-13189
X36421Y-14189
X3543Y-4331
X3543Y-7331
T2
X9941Y-3445
X9941Y-6004
X11713Y-3445
X11713Y-6004
T3
X15504Y-4634
X38339Y-4634
T4
X3898Y-12559
X49665Y-12559
X11398Y-12559
X42165Y-12559
T0
M30
