M48
;DRILL file {KiCad 4.0.1-stable} date 10-10-2017 08:31:26
;FORMAT={2:4/ absolute / inch / suppress leading zeros}
FMAT,2
INCH,TZ
T1C0.016
T2C0.020
T3C0.031
T4C0.039
T5C0.043
T6C0.050
T7C0.047
T8C0.067
T9C0.118
T10C0.157
T11C0.315
%
G90
G05
M72
T1
X14741Y-38043
X18033Y-25534
X18033Y-26321
X18041Y-24743
X20841Y-35843
X22741Y-26993
X23137Y-25534
X23145Y-24743
X26041Y-51693
X28291Y-27593
X29291Y-29943
X29341Y-27343
X34925Y-36643
X35741Y-29243
X55891Y-44193
X55941Y-51643
X60988Y-51643
X61038Y-44193
X81188Y-29243
X82004Y-36643
X87588Y-27343
X87638Y-29943
X88638Y-27593
X90888Y-51693
X93784Y-24743
X93792Y-25534
X94188Y-26993
X96088Y-35843
X98888Y-24743
X98896Y-25534
X98896Y-26321
X102188Y-38043
T2
X23137Y-26321
X93792Y-26321
T3
X27591Y-32043
X31591Y-32043
X32541Y-32043
X36541Y-32043
X80388Y-32043
X84388Y-32043
X85338Y-32043
X89338Y-32043
T4
X18307Y-31988
X18504Y-47046
X19055Y-39507
X20542Y-44488
X21042Y-53243
X21145Y-38393
X26476Y-32007
X27067Y-47046
X28229Y-45433
X28249Y-37913
X28269Y-30413
X28541Y-53243
X36041Y-30393
X36042Y-37843
X36042Y-45443
X36042Y-53193
X41041Y-31844
X43288Y-45256
X43541Y-53193
X48937Y-39546
X50391Y-44793
X51041Y-53193
X52382Y-32029
X52736Y-39529
X64193Y-39529
X64547Y-32029
X65888Y-53193
X66538Y-44793
X67992Y-39546
X73388Y-53193
X73641Y-45256
X75888Y-31844
X80887Y-37843
X80887Y-45443
X80887Y-53193
X80888Y-30393
X88388Y-53243
X88660Y-30413
X88680Y-37913
X88700Y-45433
X89862Y-47046
X90453Y-32007
X95784Y-38393
X95887Y-53243
X96387Y-44488
X97874Y-39507
X98425Y-47046
X98622Y-31988
T5
X43741Y-25143
X43741Y-26143
X43741Y-27143
X43741Y-28143
X43741Y-29143
X43741Y-30143
X43741Y-31143
X43741Y-32143
X43741Y-33143
X43741Y-34143
X43741Y-35143
X43741Y-36143
X49741Y-25143
X49741Y-26143
X49741Y-27143
X49741Y-28143
X49741Y-29143
X49741Y-30143
X49741Y-31143
X49741Y-32143
X49741Y-33143
X49741Y-34143
X49741Y-35143
X49741Y-36143
X67188Y-25143
X67188Y-26143
X67188Y-27143
X67188Y-28143
X67188Y-29143
X67188Y-30143
X67188Y-31143
X67188Y-32143
X67188Y-33143
X67188Y-34143
X67188Y-35143
X67188Y-36143
X73188Y-25143
X73188Y-26143
X73188Y-27143
X73188Y-28143
X73188Y-29143
X73188Y-30143
X73188Y-31143
X73188Y-32143
X73188Y-33143
X73188Y-34143
X73188Y-35143
X73188Y-36143
T6
X14504Y-47046
X14937Y-31987
X15055Y-39507
X20542Y-40488
X21042Y-49243
X21164Y-35026
X23067Y-47046
X23228Y-31988
X28229Y-41433
X28249Y-33913
X28269Y-26413
X28541Y-49243
X36041Y-26393
X36042Y-33843
X36042Y-41443
X36042Y-49193
X43288Y-41256
X43541Y-49193
X44937Y-39546
X45041Y-31844
X50391Y-40793
X51041Y-49193
X56382Y-32029
X56736Y-39529
X60193Y-39529
X60547Y-32029
X65888Y-49193
X66538Y-40793
X71888Y-31844
X71992Y-39546
X73388Y-49193
X73641Y-41256
X80887Y-33843
X80887Y-41443
X80887Y-49193
X80888Y-26393
X88388Y-49243
X88660Y-26413
X88680Y-33913
X88700Y-41433
X93701Y-31988
X93862Y-47046
X95766Y-35026
X95887Y-49243
X96387Y-40488
X101874Y-39507
X101992Y-31987
X102425Y-47046
T7
X20530Y-23943
X20530Y-26699
X96400Y-23943
X96400Y-26699
T8
X15028Y-28287
X15028Y-35787
X15028Y-43287
X15028Y-50787
X19028Y-28287
X19028Y-35787
X19028Y-43287
X19028Y-50787
X22528Y-28287
X22528Y-35787
X22528Y-43287
X22528Y-50787
X26528Y-28287
X26528Y-35787
X26528Y-43287
X26528Y-50787
X30028Y-28287
X30028Y-35787
X30028Y-43287
X30028Y-50787
X34028Y-28287
X34028Y-35787
X34028Y-43287
X34028Y-50787
X37528Y-28287
X37528Y-35787
X37528Y-43287
X37528Y-50787
X41528Y-28287
X41528Y-35787
X41528Y-43287
X41528Y-50787
X45028Y-43287
X45028Y-50787
X47028Y-26287
X47028Y-30287
X47028Y-33787
X47028Y-37787
X49028Y-43287
X49028Y-50787
X52528Y-28287
X52528Y-35787
X52528Y-43287
X52528Y-50787
X56528Y-28287
X56528Y-35787
X56528Y-43287
X56528Y-50787
X60402Y-28287
X60402Y-35787
X60402Y-43287
X60402Y-50787
X64402Y-28287
X64402Y-35787
X64402Y-43287
X64402Y-50787
X67902Y-43287
X67902Y-50787
X69902Y-26287
X69902Y-30287
X69902Y-33787
X69902Y-37787
X71902Y-43287
X71902Y-50787
X75402Y-28287
X75402Y-35787
X75402Y-43287
X75402Y-50787
X79402Y-28287
X79402Y-35787
X79402Y-43287
X79402Y-50787
X82902Y-28287
X82902Y-35787
X82902Y-43287
X82902Y-50787
X86902Y-28287
X86902Y-35787
X86902Y-43287
X86902Y-50787
X90402Y-28287
X90402Y-35787
X90402Y-43287
X90402Y-50787
X94402Y-28287
X94402Y-35787
X94402Y-43287
X94402Y-50787
X97902Y-28287
X97902Y-35787
X97902Y-43287
X97902Y-50787
X101902Y-28287
X101902Y-35787
X101902Y-43287
X101902Y-50787
T9
X15528Y-29287
X15528Y-36787
X15528Y-44287
X15528Y-51787
X18028Y-30287
X18028Y-37787
X18028Y-45287
X18028Y-52787
X23028Y-29287
X23028Y-36787
X23028Y-44287
X23028Y-51787
X25528Y-30287
X25528Y-37787
X25528Y-45287
X25528Y-52787
X30528Y-51787
X31028Y-26287
X31028Y-33787
X31028Y-41287
X33028Y-52787
X33528Y-27287
X33528Y-34787
X33528Y-42287
X38028Y-51787
X38528Y-26287
X38528Y-33787
X38528Y-41287
X40528Y-52787
X41028Y-27287
X41028Y-34787
X41028Y-42287
X45028Y-29287
X45028Y-36787
X45528Y-51787
X46028Y-26787
X46028Y-34287
X46028Y-41287
X48028Y-52787
X48528Y-42287
X53028Y-29287
X53028Y-36787
X53028Y-44287
X53028Y-51787
X55528Y-30287
X55528Y-37787
X55528Y-45287
X55528Y-52787
X61402Y-30287
X61402Y-37787
X61402Y-45287
X61402Y-52787
X63902Y-29287
X63902Y-36787
X63902Y-44287
X63902Y-51787
X68402Y-42287
X68902Y-52787
X70902Y-26787
X70902Y-34287
X70902Y-41287
X71402Y-51787
X71902Y-29287
X71902Y-36787
X75902Y-27287
X75902Y-34787
X75902Y-42287
X76402Y-52787
X78402Y-26287
X78402Y-33787
X78402Y-41287
X78902Y-51787
X83402Y-27287
X83402Y-34787
X83402Y-42287
X83902Y-52787
X85902Y-26287
X85902Y-33787
X85902Y-41287
X86402Y-51787
X91402Y-30287
X91402Y-37787
X91402Y-45287
X91402Y-52787
X93902Y-29287
X93902Y-36787
X93902Y-44287
X93902Y-51787
X98902Y-30287
X98902Y-37787
X98902Y-45287
X98902Y-52787
X101402Y-29287
X101402Y-36787
X101402Y-44287
X101402Y-51787
T10
X17028Y-28287
X17028Y-35787
X17028Y-43287
X17028Y-50787
X24528Y-28287
X24528Y-35787
X24528Y-43287
X24528Y-50787
X32028Y-28287
X32028Y-35787
X32028Y-43287
X32028Y-50787
X39528Y-28287
X39528Y-35787
X39528Y-43287
X39528Y-50787
X47028Y-28287
X47028Y-35787
X47028Y-43287
X47028Y-50787
X54528Y-28287
X54528Y-35787
X54528Y-43287
X54528Y-50787
X62402Y-28287
X62402Y-35787
X62402Y-43287
X62402Y-50787
X69902Y-28287
X69902Y-35787
X69902Y-43287
X69902Y-50787
X77402Y-28287
X77402Y-35787
X77402Y-43287
X77402Y-50787
X84902Y-28287
X84902Y-35787
X84902Y-43287
X84902Y-50787
X92402Y-28287
X92402Y-35787
X92402Y-43287
X92402Y-50787
X99902Y-28287
X99902Y-35787
X99902Y-43287
X99902Y-50787
T11
X20728Y-47067
X20787Y-32067
X50791Y-47043
X66138Y-47043
X96142Y-32067
X96201Y-47067
T0
M30
