M48
;DRILL file {KiCad (2017-09-19 revision dddaa7e69)-makepkg} date 11/16/17 19:15:39
;FORMAT={2:4/ absolute / inch / suppress leading zeros}
FMAT,2
INCH,TZ
T1C0.016
T2C0.035
T3C0.039
T4C0.039
T5C0.067
T6C0.094
T7C0.118
T8C0.126
T9C0.157
%
G90
G05
M72
T1
X33050Y-48850
X34630Y-27031
X35630Y-27031
X37800Y-27550
X38650Y-28400
X38700Y-30600
X38850Y-43750
X38950Y-36250
X40600Y-49150
X45669Y-27756
X45700Y-45700
X46028Y-28600
X46050Y-36150
X46050Y-43700
X46750Y-51000
X47300Y-28450
X47300Y-40500
X47650Y-48750
X47900Y-25300
X48650Y-29625
X50850Y-32200
X51350Y-41350
X51850Y-31900
X52300Y-27430
X52375Y-34475
X53500Y-36150
X53500Y-43800
X53525Y-24575
X53650Y-30600
X53750Y-28700
X55050Y-23575
X55125Y-24225
X55150Y-49200
X55225Y-24625
X55400Y-32450
X55600Y-24730
X55925Y-24925
X56150Y-27850
X56250Y-26900
X56600Y-28175
X56850Y-29150
X58050Y-31200
X58775Y-26200
X59255Y-27430
X59300Y-26275
X59725Y-27150
X59900Y-25175
X60250Y-30500
X60675Y-33425
X61000Y-30800
X61000Y-38175
X61000Y-43250
X61425Y-28500
X61450Y-24000
X61950Y-33450
X62400Y-30725
X62425Y-31700
X62650Y-49300
X62750Y-24760
X63125Y-26875
X63225Y-29500
X63575Y-26475
X63675Y-33725
X64750Y-24650
X65725Y-26475
X65750Y-24650
X67050Y-23700
X67700Y-34800
X68550Y-36350
X68550Y-43650
X69192Y-27843
X69500Y-29700
X69817Y-23543
X70550Y-49300
X75750Y-30550
X75850Y-38250
X75850Y-45650
X78030Y-48850
X79610Y-27031
X80610Y-27031
X82780Y-27550
X83630Y-28400
X83680Y-30600
X83830Y-43750
X83930Y-36250
X85580Y-49150
X90650Y-27756
X90680Y-45700
X91008Y-28600
X91030Y-36150
X91030Y-43700
X91730Y-51000
X92280Y-28450
X92280Y-40500
X92630Y-48750
X92880Y-25300
X93630Y-29625
X95830Y-32200
X96330Y-41350
X96830Y-31900
X97280Y-27430
X97355Y-34475
X98480Y-36150
X98480Y-43800
X98505Y-24575
X98630Y-30600
X98730Y-28700
X100030Y-23575
X100105Y-24225
X100130Y-49200
X100205Y-24625
X100380Y-32450
X100580Y-24730
X100905Y-24925
X101130Y-27850
X101230Y-26900
X101580Y-28175
X101830Y-29150
X103030Y-31200
X103755Y-26200
X104235Y-27430
X104280Y-26275
X104705Y-27150
X104880Y-25175
X105230Y-30500
X105655Y-33425
X105980Y-30800
X105980Y-38175
X105980Y-43250
X106405Y-28500
X106430Y-24000
X106930Y-33450
X107380Y-30725
X107405Y-31700
X107630Y-49300
X107730Y-24760
X108105Y-26875
X108205Y-29500
X108555Y-26475
X108655Y-33725
X109730Y-24650
X110705Y-26475
X110730Y-24650
X112030Y-23700
X112680Y-34800
X113530Y-36350
X113530Y-43650
X114172Y-27843
X114480Y-29700
X114797Y-23543
X115530Y-49300
X120730Y-30550
X120830Y-38250
X120830Y-45650
T2
X42697Y-24114
X44429Y-24114
X87677Y-24114
X89409Y-24114
T3
X99380Y-32400
X99380Y-34998
X57875Y-24225
X58875Y-24225
X54400Y-32400
X54400Y-34998
X102855Y-24225
X103855Y-24225
T4
X105555Y-25700
X107555Y-25300
X107555Y-26100
X60575Y-25700
X62575Y-25300
X62575Y-26100
T5
X71130Y-28681
X75130Y-28681
X33630Y-36181
X37630Y-36181
X93610Y-36181
X97610Y-36181
X78610Y-43681
X82610Y-43681
X56130Y-28681
X60130Y-28681
X86110Y-43681
X90110Y-43681
X108610Y-28681
X112610Y-28681
X78610Y-36181
X82610Y-36181
X71130Y-51181
X75130Y-51181
X63630Y-36181
X67630Y-36181
X63630Y-28681
X67630Y-28681
X41130Y-43681
X45130Y-43681
X63630Y-43681
X67630Y-43681
X33630Y-43681
X37630Y-43681
X41130Y-28681
X45130Y-28681
X86110Y-36181
X90110Y-36181
X93610Y-28681
X97610Y-28681
X116110Y-36181
X120110Y-36181
X93610Y-43681
X97610Y-43681
X33630Y-28681
X37630Y-28681
X108610Y-51181
X112610Y-51181
X56130Y-36181
X60130Y-36181
X48630Y-43681
X52630Y-43681
X41130Y-36181
X45130Y-36181
X108610Y-43681
X112610Y-43681
X48630Y-36181
X52630Y-36181
X86110Y-28681
X90110Y-28681
X71130Y-43681
X75130Y-43681
X101110Y-28681
X105110Y-28681
X56130Y-43681
X60130Y-43681
X114347Y-24263
X114347Y-27019
X116110Y-28681
X120110Y-28681
X101110Y-36181
X105110Y-36181
X101110Y-51181
X105110Y-51181
X56130Y-51181
X60130Y-51181
X108610Y-36181
X112610Y-36181
X71130Y-36181
X75130Y-36181
X78610Y-51181
X82610Y-51181
X41130Y-51181
X45130Y-51181
X33630Y-51181
X37630Y-51181
X116110Y-43681
X120110Y-43681
X101110Y-43681
X105110Y-43681
X63630Y-51181
X67630Y-51181
X116110Y-51181
X120110Y-51181
X48630Y-28681
X52630Y-28681
X86110Y-51181
X90110Y-51181
X93610Y-51181
X97610Y-51181
X69367Y-24263
X69367Y-27019
X48630Y-51181
X52630Y-51181
X78610Y-28681
X82610Y-28681
T6
X105555Y-24700
X105555Y-26700
X106805Y-24700
X106805Y-26700
X60575Y-24700
X60575Y-26700
X61825Y-24700
X61825Y-26700
T7
X57130Y-30681
X59630Y-29681
X87110Y-45681
X89610Y-44681
X109610Y-30681
X112110Y-29681
X79610Y-38181
X82110Y-37181
X71630Y-50181
X74130Y-49181
X64630Y-38181
X67130Y-37181
X64630Y-30681
X67130Y-29681
X42130Y-45681
X44630Y-44681
X64630Y-45681
X67130Y-44681
X34630Y-45681
X37130Y-44681
X42130Y-30681
X44630Y-29681
X87110Y-38181
X89610Y-37181
X94610Y-30681
X97110Y-29681
X117110Y-38181
X119610Y-37181
X94610Y-45681
X97110Y-44681
X34630Y-30681
X37130Y-29681
X109110Y-50181
X111610Y-49181
X57130Y-38181
X59630Y-37181
X49630Y-45681
X52130Y-44681
X42130Y-38181
X44630Y-37181
X109610Y-45681
X112110Y-44681
X49630Y-38181
X52130Y-37181
X87110Y-30681
X89610Y-29681
X72130Y-45681
X74630Y-44681
X102110Y-30681
X104610Y-29681
X57130Y-45681
X59630Y-44681
X117110Y-30681
X119610Y-29681
X102110Y-38181
X104610Y-37181
X101610Y-50181
X104110Y-49181
X56630Y-50181
X59130Y-49181
X109610Y-38181
X112110Y-37181
X72130Y-38181
X74630Y-37181
X79110Y-50181
X81610Y-49181
X41630Y-50181
X44130Y-49181
X34130Y-50181
X36630Y-49181
X117110Y-45681
X119610Y-44681
X102110Y-45681
X104610Y-44681
X64130Y-50181
X66630Y-49181
X116610Y-50181
X119110Y-49181
X49630Y-30681
X52130Y-29681
X86610Y-50181
X89110Y-49181
X94110Y-50181
X96610Y-49181
X49130Y-50181
X51630Y-49181
X79610Y-30681
X82110Y-29681
X72130Y-30681
X74630Y-29681
X34630Y-38181
X37130Y-37181
X94610Y-38181
X97110Y-37181
X79610Y-45681
X82110Y-44681
T8
X39367Y-47436
X114350Y-32461
X69429Y-47461
X69370Y-32461
X84347Y-47436
X114409Y-47461
T9
X103110Y-36181
X103110Y-51181
X58130Y-51181
X110610Y-36181
X73130Y-36181
X80610Y-51181
X43130Y-51181
X35630Y-51181
X118110Y-43681
X103110Y-43681
X65630Y-51181
X118110Y-51181
X50630Y-28681
X88110Y-51181
X95610Y-51181
X50630Y-51181
X80610Y-28681
X73130Y-28681
X35630Y-36181
X95610Y-36181
X80610Y-43681
X58130Y-28681
X88110Y-43681
X110610Y-28681
X80610Y-36181
X73130Y-51181
X65630Y-36181
X65630Y-28681
X43130Y-43681
X65630Y-43681
X35630Y-43681
X43130Y-28681
X88110Y-36181
X95610Y-28681
X118110Y-36181
X95610Y-43681
X35630Y-28681
X110610Y-51181
X58130Y-36181
X50630Y-43681
X43130Y-36181
X110610Y-43681
X50630Y-36181
X88110Y-28681
X73130Y-43681
X103110Y-28681
X58130Y-43681
X118110Y-28681
T0
M30
