%TF.GenerationSoftware,KiCad,Pcbnew,(2017-09-19 revision dddaa7e69)-makepkg*%
%TF.CreationDate,2017-10-17T20:10:02+02:00*%
%TF.ProjectId,lets_split,6C6574735F73706C69742E6B69636164,rev?*%
%TF.SameCoordinates,Original*%
%TF.FileFunction,Legend,Bot*%
%TF.FilePolarity,Positive*%
%FSLAX46Y46*%
G04 Gerber Fmt 4.6, Leading zero omitted, Abs format (unit mm)*
G04 Created by KiCad (PCBNEW (2017-09-19 revision dddaa7e69)-makepkg) date 10/17/17 20:10:02*
%MOMM*%
%LPD*%
G01*
G04 APERTURE LIST*
%ADD10C,0.300000*%
%ADD11C,0.150000*%
%ADD12C,0.120000*%
%ADD13C,0.100000*%
G04 APERTURE END LIST*
D10*
X155295238Y-118861904D02*
X157676190Y-118861904D01*
X157676190Y-113861904D01*
X153628571Y-116242857D02*
X151961904Y-116242857D01*
X151247619Y-118861904D02*
X153628571Y-118861904D01*
X153628571Y-113861904D01*
X151247619Y-113861904D01*
X149819047Y-113861904D02*
X146961904Y-113861904D01*
X148390476Y-118861904D02*
X148390476Y-113861904D01*
X145057142Y-113861904D02*
X145533333Y-114814285D01*
X143152380Y-118623809D02*
X142438095Y-118861904D01*
X141247619Y-118861904D01*
X140771428Y-118623809D01*
X140533333Y-118385714D01*
X140295238Y-117909523D01*
X140295238Y-117433333D01*
X140533333Y-116957142D01*
X140771428Y-116719047D01*
X141247619Y-116480952D01*
X142200000Y-116242857D01*
X142676190Y-116004761D01*
X142914285Y-115766666D01*
X143152380Y-115290476D01*
X143152380Y-114814285D01*
X142914285Y-114338095D01*
X142676190Y-114100000D01*
X142200000Y-113861904D01*
X141009523Y-113861904D01*
X140295238Y-114100000D01*
X134580952Y-118623809D02*
X133866666Y-118861904D01*
X132676190Y-118861904D01*
X132200000Y-118623809D01*
X131961904Y-118385714D01*
X131723809Y-117909523D01*
X131723809Y-117433333D01*
X131961904Y-116957142D01*
X132200000Y-116719047D01*
X132676190Y-116480952D01*
X133628571Y-116242857D01*
X134104761Y-116004761D01*
X134342857Y-115766666D01*
X134580952Y-115290476D01*
X134580952Y-114814285D01*
X134342857Y-114338095D01*
X134104761Y-114100000D01*
X133628571Y-113861904D01*
X132438095Y-113861904D01*
X131723809Y-114100000D01*
X129580952Y-118861904D02*
X129580952Y-113861904D01*
X127676190Y-113861904D01*
X127200000Y-114100000D01*
X126961904Y-114338095D01*
X126723809Y-114814285D01*
X126723809Y-115528571D01*
X126961904Y-116004761D01*
X127200000Y-116242857D01*
X127676190Y-116480952D01*
X129580952Y-116480952D01*
X122200000Y-118861904D02*
X124580952Y-118861904D01*
X124580952Y-113861904D01*
X120533333Y-118861904D02*
X120533333Y-113861904D01*
X118866666Y-113861904D02*
X116009523Y-113861904D01*
X117438095Y-118861904D02*
X117438095Y-113861904D01*
D11*
X112892857Y-67321428D02*
X112130952Y-67321428D01*
X110892857Y-67702380D02*
X110892857Y-66702380D01*
X110654761Y-66702380D01*
X110511904Y-66750000D01*
X110416666Y-66845238D01*
X110369047Y-66940476D01*
X110321428Y-67130952D01*
X110321428Y-67273809D01*
X110369047Y-67464285D01*
X110416666Y-67559523D01*
X110511904Y-67654761D01*
X110654761Y-67702380D01*
X110892857Y-67702380D01*
X109192172Y-66335000D02*
X108369047Y-66335000D01*
X109130952Y-67702380D02*
X109130952Y-66702380D01*
X108892857Y-66702380D01*
X108750000Y-66750000D01*
X108654761Y-66845238D01*
X108607142Y-66940476D01*
X108559523Y-67130952D01*
X108559523Y-67273809D01*
X108607142Y-67464285D01*
X108654761Y-67559523D01*
X108750000Y-67654761D01*
X108892857Y-67702380D01*
X109130952Y-67702380D01*
X107369047Y-67321428D02*
X106607142Y-67321428D01*
X106988095Y-67702380D02*
X106988095Y-66940476D01*
D10*
X93892857Y-103607142D02*
X92750000Y-103607142D01*
X90892857Y-104178571D02*
X90892857Y-102678571D01*
X90535714Y-102678571D01*
X90321428Y-102750000D01*
X90178571Y-102892857D01*
X90107142Y-103035714D01*
X90035714Y-103321428D01*
X90035714Y-103535714D01*
X90107142Y-103821428D01*
X90178571Y-103964285D01*
X90321428Y-104107142D01*
X90535714Y-104178571D01*
X90892857Y-104178571D01*
X88250000Y-103607142D02*
X87107142Y-103607142D01*
X87678571Y-104178571D02*
X87678571Y-103035714D01*
X149747857Y-76217857D02*
X149533571Y-76289285D01*
X149462142Y-76360714D01*
X149390714Y-76503571D01*
X149390714Y-76717857D01*
X149462142Y-76860714D01*
X149533571Y-76932142D01*
X149676428Y-77003571D01*
X150247857Y-77003571D01*
X150247857Y-75503571D01*
X149747857Y-75503571D01*
X149605000Y-75575000D01*
X149533571Y-75646428D01*
X149462142Y-75789285D01*
X149462142Y-75932142D01*
X149533571Y-76075000D01*
X149605000Y-76146428D01*
X149747857Y-76217857D01*
X150247857Y-76217857D01*
X148890714Y-76003571D02*
X148533571Y-77003571D01*
X148176428Y-76003571D02*
X148533571Y-77003571D01*
X148676428Y-77360714D01*
X148747857Y-77432142D01*
X148890714Y-77503571D01*
X146605000Y-75503571D02*
X146247857Y-77003571D01*
X145962142Y-75932142D01*
X145676428Y-77003571D01*
X145319285Y-75503571D01*
X144533571Y-77003571D02*
X144676428Y-76932142D01*
X144747857Y-76860714D01*
X144819285Y-76717857D01*
X144819285Y-76289285D01*
X144747857Y-76146428D01*
X144676428Y-76075000D01*
X144533571Y-76003571D01*
X144319285Y-76003571D01*
X144176428Y-76075000D01*
X144105000Y-76146428D01*
X144033571Y-76289285D01*
X144033571Y-76717857D01*
X144105000Y-76860714D01*
X144176428Y-76932142D01*
X144319285Y-77003571D01*
X144533571Y-77003571D01*
X143176428Y-77003571D02*
X143319285Y-76932142D01*
X143390714Y-76860714D01*
X143462142Y-76717857D01*
X143462142Y-76289285D01*
X143390714Y-76146428D01*
X143319285Y-76075000D01*
X143176428Y-76003571D01*
X142962142Y-76003571D01*
X142819285Y-76075000D01*
X142747857Y-76146428D01*
X142676428Y-76289285D01*
X142676428Y-76717857D01*
X142747857Y-76860714D01*
X142819285Y-76932142D01*
X142962142Y-77003571D01*
X143176428Y-77003571D01*
X142247857Y-76003571D02*
X141676428Y-76003571D01*
X142033571Y-75503571D02*
X142033571Y-76789285D01*
X141962142Y-76932142D01*
X141819285Y-77003571D01*
X141676428Y-77003571D01*
X141176428Y-76003571D02*
X141176428Y-77503571D01*
X141176428Y-76075000D02*
X141033571Y-76003571D01*
X140747857Y-76003571D01*
X140605000Y-76075000D01*
X140533571Y-76146428D01*
X140462142Y-76289285D01*
X140462142Y-76717857D01*
X140533571Y-76860714D01*
X140605000Y-76932142D01*
X140747857Y-77003571D01*
X141033571Y-77003571D01*
X141176428Y-76932142D01*
X139176428Y-77003571D02*
X139176428Y-76217857D01*
X139247857Y-76075000D01*
X139390714Y-76003571D01*
X139676428Y-76003571D01*
X139819285Y-76075000D01*
X139176428Y-76932142D02*
X139319285Y-77003571D01*
X139676428Y-77003571D01*
X139819285Y-76932142D01*
X139890714Y-76789285D01*
X139890714Y-76646428D01*
X139819285Y-76503571D01*
X139676428Y-76432142D01*
X139319285Y-76432142D01*
X139176428Y-76360714D01*
X138676428Y-76003571D02*
X138105000Y-76003571D01*
X138462142Y-75503571D02*
X138462142Y-76789285D01*
X138390714Y-76932142D01*
X138247857Y-77003571D01*
X138105000Y-77003571D01*
X137390714Y-77003571D02*
X137533571Y-76932142D01*
X137605000Y-76860714D01*
X137676428Y-76717857D01*
X137676428Y-76289285D01*
X137605000Y-76146428D01*
X137533571Y-76075000D01*
X137390714Y-76003571D01*
X137176428Y-76003571D01*
X137033571Y-76075000D01*
X136962142Y-76146428D01*
X136890714Y-76289285D01*
X136890714Y-76717857D01*
X136962142Y-76860714D01*
X137033571Y-76932142D01*
X137176428Y-77003571D01*
X137390714Y-77003571D01*
X136033571Y-77003571D02*
X136176428Y-76932142D01*
X136247857Y-76860714D01*
X136319285Y-76717857D01*
X136319285Y-76289285D01*
X136247857Y-76146428D01*
X136176428Y-76075000D01*
X136033571Y-76003571D01*
X135819285Y-76003571D01*
X135676428Y-76075000D01*
X135605000Y-76146428D01*
X135533571Y-76289285D01*
X135533571Y-76717857D01*
X135605000Y-76860714D01*
X135676428Y-76932142D01*
X135819285Y-77003571D01*
X136033571Y-77003571D01*
X135105000Y-76003571D02*
X134533571Y-76003571D01*
X134890714Y-75503571D02*
X134890714Y-76789285D01*
X134819285Y-76932142D01*
X134676428Y-77003571D01*
X134533571Y-77003571D01*
X150319285Y-79482142D02*
X150105000Y-79553571D01*
X149747857Y-79553571D01*
X149605000Y-79482142D01*
X149533571Y-79410714D01*
X149462142Y-79267857D01*
X149462142Y-79125000D01*
X149533571Y-78982142D01*
X149605000Y-78910714D01*
X149747857Y-78839285D01*
X150033571Y-78767857D01*
X150176428Y-78696428D01*
X150247857Y-78625000D01*
X150319285Y-78482142D01*
X150319285Y-78339285D01*
X150247857Y-78196428D01*
X150176428Y-78125000D01*
X150033571Y-78053571D01*
X149676428Y-78053571D01*
X149462142Y-78125000D01*
X148605000Y-79553571D02*
X148747857Y-79482142D01*
X148819285Y-79410714D01*
X148890714Y-79267857D01*
X148890714Y-78839285D01*
X148819285Y-78696428D01*
X148747857Y-78625000D01*
X148605000Y-78553571D01*
X148390714Y-78553571D01*
X148247857Y-78625000D01*
X148176428Y-78696428D01*
X148105000Y-78839285D01*
X148105000Y-79267857D01*
X148176428Y-79410714D01*
X148247857Y-79482142D01*
X148390714Y-79553571D01*
X148605000Y-79553571D01*
X146819285Y-79482142D02*
X146962142Y-79553571D01*
X147247857Y-79553571D01*
X147390714Y-79482142D01*
X147462142Y-79410714D01*
X147533571Y-79267857D01*
X147533571Y-78839285D01*
X147462142Y-78696428D01*
X147390714Y-78625000D01*
X147247857Y-78553571D01*
X146962142Y-78553571D01*
X146819285Y-78625000D01*
X146176428Y-79553571D02*
X146176428Y-78053571D01*
X146033571Y-78982142D02*
X145605000Y-79553571D01*
X145605000Y-78553571D02*
X146176428Y-79125000D01*
X144390714Y-79482142D02*
X144533571Y-79553571D01*
X144819285Y-79553571D01*
X144962142Y-79482142D01*
X145033571Y-79339285D01*
X145033571Y-78767857D01*
X144962142Y-78625000D01*
X144819285Y-78553571D01*
X144533571Y-78553571D01*
X144390714Y-78625000D01*
X144319285Y-78767857D01*
X144319285Y-78910714D01*
X145033571Y-79053571D01*
X143890714Y-78553571D02*
X143319285Y-78553571D01*
X143676428Y-78053571D02*
X143676428Y-79339285D01*
X143605000Y-79482142D01*
X143462142Y-79553571D01*
X143319285Y-79553571D01*
X141890714Y-78053571D02*
X141390714Y-79553571D01*
X140890714Y-78053571D01*
X139819285Y-79482142D02*
X139962142Y-79553571D01*
X140247857Y-79553571D01*
X140390714Y-79482142D01*
X140462142Y-79339285D01*
X140462142Y-78767857D01*
X140390714Y-78625000D01*
X140247857Y-78553571D01*
X139962142Y-78553571D01*
X139819285Y-78625000D01*
X139747857Y-78767857D01*
X139747857Y-78910714D01*
X140462142Y-79053571D01*
X139105000Y-79553571D02*
X139105000Y-78553571D01*
X139105000Y-78839285D02*
X139033571Y-78696428D01*
X138962142Y-78625000D01*
X138819285Y-78553571D01*
X138676428Y-78553571D01*
X138247857Y-79482142D02*
X138105000Y-79553571D01*
X137819285Y-79553571D01*
X137676428Y-79482142D01*
X137605000Y-79339285D01*
X137605000Y-79267857D01*
X137676428Y-79125000D01*
X137819285Y-79053571D01*
X138033571Y-79053571D01*
X138176428Y-78982142D01*
X138247857Y-78839285D01*
X138247857Y-78767857D01*
X138176428Y-78625000D01*
X138033571Y-78553571D01*
X137819285Y-78553571D01*
X137676428Y-78625000D01*
X136962142Y-79553571D02*
X136962142Y-78553571D01*
X136962142Y-78053571D02*
X137033571Y-78125000D01*
X136962142Y-78196428D01*
X136890714Y-78125000D01*
X136962142Y-78053571D01*
X136962142Y-78196428D01*
X136033571Y-79553571D02*
X136176428Y-79482142D01*
X136247857Y-79410714D01*
X136319285Y-79267857D01*
X136319285Y-78839285D01*
X136247857Y-78696428D01*
X136176428Y-78625000D01*
X136033571Y-78553571D01*
X135819285Y-78553571D01*
X135676428Y-78625000D01*
X135605000Y-78696428D01*
X135533571Y-78839285D01*
X135533571Y-79267857D01*
X135605000Y-79410714D01*
X135676428Y-79482142D01*
X135819285Y-79553571D01*
X136033571Y-79553571D01*
X134890714Y-78553571D02*
X134890714Y-79553571D01*
X134890714Y-78696428D02*
X134819285Y-78625000D01*
X134676428Y-78553571D01*
X134462142Y-78553571D01*
X134319285Y-78625000D01*
X134247857Y-78767857D01*
X134247857Y-79553571D01*
X132390714Y-79553571D02*
X132390714Y-78053571D01*
X132390714Y-78625000D02*
X132247857Y-78553571D01*
X131962142Y-78553571D01*
X131819285Y-78625000D01*
X131747857Y-78696428D01*
X131676428Y-78839285D01*
X131676428Y-79267857D01*
X131747857Y-79410714D01*
X131819285Y-79482142D01*
X131962142Y-79553571D01*
X132247857Y-79553571D01*
X132390714Y-79482142D01*
X131176428Y-78553571D02*
X130819285Y-79553571D01*
X130462142Y-78553571D02*
X130819285Y-79553571D01*
X130962142Y-79910714D01*
X131033571Y-79982142D01*
X131176428Y-80053571D01*
X128747857Y-79553571D02*
X128747857Y-78053571D01*
X128390714Y-78053571D01*
X128176428Y-78125000D01*
X128033571Y-78267857D01*
X127962142Y-78410714D01*
X127890714Y-78696428D01*
X127890714Y-78910714D01*
X127962142Y-79196428D01*
X128033571Y-79339285D01*
X128176428Y-79482142D01*
X128390714Y-79553571D01*
X128747857Y-79553571D01*
X126605000Y-78553571D02*
X126605000Y-79553571D01*
X127247857Y-78553571D02*
X127247857Y-79339285D01*
X127176428Y-79482142D01*
X127033571Y-79553571D01*
X126819285Y-79553571D01*
X126676428Y-79482142D01*
X126605000Y-79410714D01*
X125247857Y-79482142D02*
X125390714Y-79553571D01*
X125676428Y-79553571D01*
X125819285Y-79482142D01*
X125890714Y-79410714D01*
X125962142Y-79267857D01*
X125962142Y-78839285D01*
X125890714Y-78696428D01*
X125819285Y-78625000D01*
X125676428Y-78553571D01*
X125390714Y-78553571D01*
X125247857Y-78625000D01*
X124605000Y-79553571D02*
X124605000Y-78053571D01*
X124462142Y-78982142D02*
X124033571Y-79553571D01*
X124033571Y-78553571D02*
X124605000Y-79125000D01*
X123176428Y-79553571D02*
X123319285Y-79482142D01*
X123390714Y-79339285D01*
X123390714Y-78053571D01*
X122033571Y-79482142D02*
X122176428Y-79553571D01*
X122462142Y-79553571D01*
X122605000Y-79482142D01*
X122676428Y-79339285D01*
X122676428Y-78767857D01*
X122605000Y-78625000D01*
X122462142Y-78553571D01*
X122176428Y-78553571D01*
X122033571Y-78625000D01*
X121962142Y-78767857D01*
X121962142Y-78910714D01*
X122676428Y-79053571D01*
X121390714Y-78196428D02*
X121319285Y-78125000D01*
X121176428Y-78053571D01*
X120819285Y-78053571D01*
X120676428Y-78125000D01*
X120605000Y-78196428D01*
X120533571Y-78339285D01*
X120533571Y-78482142D01*
X120605000Y-78696428D01*
X121462142Y-79553571D01*
X120533571Y-79553571D01*
X119819285Y-79553571D02*
X119533571Y-79553571D01*
X119390714Y-79482142D01*
X119319285Y-79410714D01*
X119176428Y-79196428D01*
X119105000Y-78910714D01*
X119105000Y-78339285D01*
X119176428Y-78196428D01*
X119247857Y-78125000D01*
X119390714Y-78053571D01*
X119676428Y-78053571D01*
X119819285Y-78125000D01*
X119890714Y-78196428D01*
X119962142Y-78339285D01*
X119962142Y-78696428D01*
X119890714Y-78839285D01*
X119819285Y-78910714D01*
X119676428Y-78982142D01*
X119390714Y-78982142D01*
X119247857Y-78910714D01*
X119176428Y-78839285D01*
X119105000Y-78696428D01*
X142535714Y-90403571D02*
X142535714Y-88903571D01*
X142535714Y-89475000D02*
X142392857Y-89403571D01*
X142107142Y-89403571D01*
X141964285Y-89475000D01*
X141892857Y-89546428D01*
X141821428Y-89689285D01*
X141821428Y-90117857D01*
X141892857Y-90260714D01*
X141964285Y-90332142D01*
X142107142Y-90403571D01*
X142392857Y-90403571D01*
X142535714Y-90332142D01*
X140964285Y-90403571D02*
X141107142Y-90332142D01*
X141178571Y-90260714D01*
X141250000Y-90117857D01*
X141250000Y-89689285D01*
X141178571Y-89546428D01*
X141107142Y-89475000D01*
X140964285Y-89403571D01*
X140750000Y-89403571D01*
X140607142Y-89475000D01*
X140535714Y-89546428D01*
X140464285Y-89689285D01*
X140464285Y-90117857D01*
X140535714Y-90260714D01*
X140607142Y-90332142D01*
X140750000Y-90403571D01*
X140964285Y-90403571D01*
X140035714Y-89403571D02*
X139464285Y-89403571D01*
X139821428Y-88903571D02*
X139821428Y-90189285D01*
X139750000Y-90332142D01*
X139607142Y-90403571D01*
X139464285Y-90403571D01*
X139178571Y-89403571D02*
X138607142Y-89403571D01*
X138964285Y-88903571D02*
X138964285Y-90189285D01*
X138892857Y-90332142D01*
X138750000Y-90403571D01*
X138607142Y-90403571D01*
X137892857Y-90403571D02*
X138035714Y-90332142D01*
X138107142Y-90260714D01*
X138178571Y-90117857D01*
X138178571Y-89689285D01*
X138107142Y-89546428D01*
X138035714Y-89475000D01*
X137892857Y-89403571D01*
X137678571Y-89403571D01*
X137535714Y-89475000D01*
X137464285Y-89546428D01*
X137392857Y-89689285D01*
X137392857Y-90117857D01*
X137464285Y-90260714D01*
X137535714Y-90332142D01*
X137678571Y-90403571D01*
X137892857Y-90403571D01*
X136750000Y-90403571D02*
X136750000Y-89403571D01*
X136750000Y-89546428D02*
X136678571Y-89475000D01*
X136535714Y-89403571D01*
X136321428Y-89403571D01*
X136178571Y-89475000D01*
X136107142Y-89617857D01*
X136107142Y-90403571D01*
X136107142Y-89617857D02*
X136035714Y-89475000D01*
X135892857Y-89403571D01*
X135678571Y-89403571D01*
X135535714Y-89475000D01*
X135464285Y-89617857D01*
X135464285Y-90403571D01*
X139357142Y-91953571D02*
X139357142Y-92953571D01*
X140000000Y-91953571D02*
X140000000Y-92739285D01*
X139928571Y-92882142D01*
X139785714Y-92953571D01*
X139571428Y-92953571D01*
X139428571Y-92882142D01*
X139357142Y-92810714D01*
X138642857Y-91953571D02*
X138642857Y-93453571D01*
X138642857Y-92025000D02*
X138500000Y-91953571D01*
X138214285Y-91953571D01*
X138071428Y-92025000D01*
X138000000Y-92096428D01*
X137928571Y-92239285D01*
X137928571Y-92667857D01*
X138000000Y-92810714D01*
X138071428Y-92882142D01*
X138214285Y-92953571D01*
X138500000Y-92953571D01*
X138642857Y-92882142D01*
D12*
%TO.C,R2*%
X155490000Y-69670000D02*
X158110000Y-69670000D01*
X158110000Y-69670000D02*
X158110000Y-76090000D01*
X158110000Y-76090000D02*
X155490000Y-76090000D01*
X155490000Y-76090000D02*
X155490000Y-69670000D01*
X156800000Y-68780000D02*
X156800000Y-69670000D01*
X156800000Y-76980000D02*
X156800000Y-76090000D01*
%TO.C,R1*%
X168180000Y-67800000D02*
X167290000Y-67800000D01*
X159980000Y-67800000D02*
X160870000Y-67800000D01*
X167290000Y-69110000D02*
X160870000Y-69110000D01*
X167290000Y-66490000D02*
X167290000Y-69110000D01*
X160870000Y-66490000D02*
X167290000Y-66490000D01*
X160870000Y-69110000D02*
X160870000Y-66490000D01*
%TO.C,D12*%
X130850000Y-123470000D02*
X130850000Y-123340000D01*
X130850000Y-123340000D02*
X125530000Y-123340000D01*
X125530000Y-123340000D02*
X125530000Y-123470000D01*
X130850000Y-126030000D02*
X130850000Y-126160000D01*
X130850000Y-126160000D02*
X125530000Y-126160000D01*
X125530000Y-126160000D02*
X125530000Y-126030000D01*
X130010000Y-123340000D02*
X130010000Y-126160000D01*
%TO.C,D7*%
X107400000Y-121780000D02*
X107400000Y-121910000D01*
X107400000Y-121910000D02*
X112720000Y-121910000D01*
X112720000Y-121910000D02*
X112720000Y-121780000D01*
X107400000Y-119220000D02*
X107400000Y-119090000D01*
X107400000Y-119090000D02*
X112720000Y-119090000D01*
X112720000Y-119090000D02*
X112720000Y-119220000D01*
X108240000Y-121910000D02*
X108240000Y-119090000D01*
%TO.C,D18*%
X179850000Y-100220000D02*
X179850000Y-100090000D01*
X179850000Y-100090000D02*
X174530000Y-100090000D01*
X174530000Y-100090000D02*
X174530000Y-100220000D01*
X179850000Y-102780000D02*
X179850000Y-102910000D01*
X179850000Y-102910000D02*
X174530000Y-102910000D01*
X174530000Y-102910000D02*
X174530000Y-102780000D01*
X179010000Y-100090000D02*
X179010000Y-102910000D01*
%TO.C,D9*%
X126150000Y-83280000D02*
X126150000Y-83410000D01*
X126150000Y-83410000D02*
X131470000Y-83410000D01*
X131470000Y-83410000D02*
X131470000Y-83280000D01*
X126150000Y-80720000D02*
X126150000Y-80590000D01*
X126150000Y-80590000D02*
X131470000Y-80590000D01*
X131470000Y-80590000D02*
X131470000Y-80720000D01*
X126990000Y-83410000D02*
X126990000Y-80590000D01*
%TO.C,D13*%
X145400000Y-83280000D02*
X145400000Y-83410000D01*
X145400000Y-83410000D02*
X150720000Y-83410000D01*
X150720000Y-83410000D02*
X150720000Y-83280000D01*
X145400000Y-80720000D02*
X145400000Y-80590000D01*
X145400000Y-80590000D02*
X150720000Y-80590000D01*
X150720000Y-80590000D02*
X150720000Y-80720000D01*
X146240000Y-83410000D02*
X146240000Y-80590000D01*
D13*
%TO.C,P4*%
X173037500Y-56028000D02*
X173037500Y-57528000D01*
X177228500Y-56028000D02*
X173037500Y-56028000D01*
X177228500Y-57528000D02*
X177228500Y-56028000D01*
X171592500Y-57528000D02*
X178292500Y-57528000D01*
X171592500Y-73028000D02*
X178292500Y-73028000D01*
X171592500Y-57528000D02*
X171592500Y-73028000D01*
X178292500Y-57528000D02*
X178292500Y-73028000D01*
%TO.C,P2*%
X106800000Y-55350000D02*
X106800000Y-64550000D01*
X106800000Y-55350000D02*
X114500000Y-55350000D01*
X106800000Y-64550000D02*
X114500000Y-64550000D01*
X114500000Y-55350000D02*
X114500000Y-64550000D01*
D12*
%TO.C,D1*%
X92350000Y-80720000D02*
X92350000Y-80590000D01*
X92350000Y-80590000D02*
X87030000Y-80590000D01*
X87030000Y-80590000D02*
X87030000Y-80720000D01*
X92350000Y-83280000D02*
X92350000Y-83410000D01*
X92350000Y-83410000D02*
X87030000Y-83410000D01*
X87030000Y-83410000D02*
X87030000Y-83280000D01*
X91510000Y-80590000D02*
X91510000Y-83410000D01*
%TO.C,D2*%
X92350000Y-99720000D02*
X92350000Y-99590000D01*
X92350000Y-99590000D02*
X87030000Y-99590000D01*
X87030000Y-99590000D02*
X87030000Y-99720000D01*
X92350000Y-102280000D02*
X92350000Y-102410000D01*
X92350000Y-102410000D02*
X87030000Y-102410000D01*
X87030000Y-102410000D02*
X87030000Y-102280000D01*
X91510000Y-99590000D02*
X91510000Y-102410000D01*
%TO.C,D3*%
X90850000Y-118970000D02*
X90850000Y-118840000D01*
X90850000Y-118840000D02*
X85530000Y-118840000D01*
X85530000Y-118840000D02*
X85530000Y-118970000D01*
X90850000Y-121530000D02*
X90850000Y-121660000D01*
X90850000Y-121660000D02*
X85530000Y-121660000D01*
X85530000Y-121660000D02*
X85530000Y-121530000D01*
X90010000Y-118840000D02*
X90010000Y-121660000D01*
%TO.C,D4*%
X90850000Y-123470000D02*
X90850000Y-123340000D01*
X90850000Y-123340000D02*
X85530000Y-123340000D01*
X85530000Y-123340000D02*
X85530000Y-123470000D01*
X90850000Y-126030000D02*
X90850000Y-126160000D01*
X90850000Y-126160000D02*
X85530000Y-126160000D01*
X85530000Y-126160000D02*
X85530000Y-126030000D01*
X90010000Y-123340000D02*
X90010000Y-126160000D01*
%TO.C,D5*%
X111350000Y-80720000D02*
X111350000Y-80590000D01*
X111350000Y-80590000D02*
X106030000Y-80590000D01*
X106030000Y-80590000D02*
X106030000Y-80720000D01*
X111350000Y-83280000D02*
X111350000Y-83410000D01*
X111350000Y-83410000D02*
X106030000Y-83410000D01*
X106030000Y-83410000D02*
X106030000Y-83280000D01*
X110510000Y-80590000D02*
X110510000Y-83410000D01*
%TO.C,D6*%
X111350000Y-99720000D02*
X111350000Y-99590000D01*
X111350000Y-99590000D02*
X106030000Y-99590000D01*
X106030000Y-99590000D02*
X106030000Y-99720000D01*
X111350000Y-102280000D02*
X111350000Y-102410000D01*
X111350000Y-102410000D02*
X106030000Y-102410000D01*
X106030000Y-102410000D02*
X106030000Y-102280000D01*
X110510000Y-99590000D02*
X110510000Y-102410000D01*
%TO.C,D8*%
X112850000Y-123470000D02*
X112850000Y-123340000D01*
X112850000Y-123340000D02*
X107530000Y-123340000D01*
X107530000Y-123340000D02*
X107530000Y-123470000D01*
X112850000Y-126030000D02*
X112850000Y-126160000D01*
X112850000Y-126160000D02*
X107530000Y-126160000D01*
X107530000Y-126160000D02*
X107530000Y-126030000D01*
X112010000Y-123340000D02*
X112010000Y-126160000D01*
%TO.C,D10*%
X123100000Y-99720000D02*
X123100000Y-99590000D01*
X123100000Y-99590000D02*
X117780000Y-99590000D01*
X117780000Y-99590000D02*
X117780000Y-99720000D01*
X123100000Y-102280000D02*
X123100000Y-102410000D01*
X123100000Y-102410000D02*
X117780000Y-102410000D01*
X117780000Y-102410000D02*
X117780000Y-102280000D01*
X122260000Y-99590000D02*
X122260000Y-102410000D01*
%TO.C,D11*%
X125650000Y-121780000D02*
X125650000Y-121910000D01*
X125650000Y-121910000D02*
X130970000Y-121910000D01*
X130970000Y-121910000D02*
X130970000Y-121780000D01*
X125650000Y-119220000D02*
X125650000Y-119090000D01*
X125650000Y-119090000D02*
X130970000Y-119090000D01*
X130970000Y-119090000D02*
X130970000Y-119220000D01*
X126490000Y-121910000D02*
X126490000Y-119090000D01*
%TO.C,D14*%
X167850000Y-100220000D02*
X167850000Y-100090000D01*
X167850000Y-100090000D02*
X162530000Y-100090000D01*
X162530000Y-100090000D02*
X162530000Y-100220000D01*
X167850000Y-102780000D02*
X167850000Y-102910000D01*
X167850000Y-102910000D02*
X162530000Y-102910000D01*
X162530000Y-102910000D02*
X162530000Y-102780000D01*
X167010000Y-100090000D02*
X167010000Y-102910000D01*
%TO.C,D15*%
X144400000Y-121780000D02*
X144400000Y-121910000D01*
X144400000Y-121910000D02*
X149720000Y-121910000D01*
X149720000Y-121910000D02*
X149720000Y-121780000D01*
X144400000Y-119220000D02*
X144400000Y-119090000D01*
X144400000Y-119090000D02*
X149720000Y-119090000D01*
X149720000Y-119090000D02*
X149720000Y-119220000D01*
X145240000Y-121910000D02*
X145240000Y-119090000D01*
%TO.C,D16*%
X149850000Y-123470000D02*
X149850000Y-123340000D01*
X149850000Y-123340000D02*
X144530000Y-123340000D01*
X144530000Y-123340000D02*
X144530000Y-123470000D01*
X149850000Y-126030000D02*
X149850000Y-126160000D01*
X149850000Y-126160000D02*
X144530000Y-126160000D01*
X144530000Y-126160000D02*
X144530000Y-126030000D01*
X149010000Y-123340000D02*
X149010000Y-126160000D01*
%TO.C,D17*%
X168350000Y-80970000D02*
X168350000Y-80840000D01*
X168350000Y-80840000D02*
X163030000Y-80840000D01*
X163030000Y-80840000D02*
X163030000Y-80970000D01*
X168350000Y-83530000D02*
X168350000Y-83660000D01*
X168350000Y-83660000D02*
X163030000Y-83660000D01*
X163030000Y-83660000D02*
X163030000Y-83530000D01*
X167510000Y-80840000D02*
X167510000Y-83660000D01*
%TO.C,D19*%
X168100000Y-118720000D02*
X168100000Y-118590000D01*
X168100000Y-118590000D02*
X162780000Y-118590000D01*
X162780000Y-118590000D02*
X162780000Y-118720000D01*
X168100000Y-121280000D02*
X168100000Y-121410000D01*
X168100000Y-121410000D02*
X162780000Y-121410000D01*
X162780000Y-121410000D02*
X162780000Y-121280000D01*
X167260000Y-118590000D02*
X167260000Y-121410000D01*
%TO.C,D20*%
X168100000Y-123470000D02*
X168100000Y-123340000D01*
X168100000Y-123340000D02*
X162780000Y-123340000D01*
X162780000Y-123340000D02*
X162780000Y-123470000D01*
X168100000Y-126030000D02*
X168100000Y-126160000D01*
X168100000Y-126160000D02*
X162780000Y-126160000D01*
X162780000Y-126160000D02*
X162780000Y-126030000D01*
X167260000Y-123340000D02*
X167260000Y-126160000D01*
%TO.C,D21*%
X190100000Y-80970000D02*
X190100000Y-80840000D01*
X190100000Y-80840000D02*
X184780000Y-80840000D01*
X184780000Y-80840000D02*
X184780000Y-80970000D01*
X190100000Y-83530000D02*
X190100000Y-83660000D01*
X190100000Y-83660000D02*
X184780000Y-83660000D01*
X184780000Y-83660000D02*
X184780000Y-83530000D01*
X189260000Y-80840000D02*
X189260000Y-83660000D01*
%TO.C,D22*%
X191100000Y-100220000D02*
X191100000Y-100090000D01*
X191100000Y-100090000D02*
X185780000Y-100090000D01*
X185780000Y-100090000D02*
X185780000Y-100220000D01*
X191100000Y-102780000D02*
X191100000Y-102910000D01*
X191100000Y-102910000D02*
X185780000Y-102910000D01*
X185780000Y-102910000D02*
X185780000Y-102780000D01*
X190260000Y-100090000D02*
X190260000Y-102910000D01*
%TO.C,D23*%
X189350000Y-119470000D02*
X189350000Y-119340000D01*
X189350000Y-119340000D02*
X184030000Y-119340000D01*
X184030000Y-119340000D02*
X184030000Y-119470000D01*
X189350000Y-122030000D02*
X189350000Y-122160000D01*
X189350000Y-122160000D02*
X184030000Y-122160000D01*
X184030000Y-122160000D02*
X184030000Y-122030000D01*
X188510000Y-119340000D02*
X188510000Y-122160000D01*
%TO.C,D24*%
X189350000Y-123470000D02*
X189350000Y-123340000D01*
X189350000Y-123340000D02*
X184030000Y-123340000D01*
X184030000Y-123340000D02*
X184030000Y-123470000D01*
X189350000Y-126030000D02*
X189350000Y-126160000D01*
X189350000Y-126160000D02*
X184030000Y-126160000D01*
X184030000Y-126160000D02*
X184030000Y-126030000D01*
X188510000Y-123340000D02*
X188510000Y-126160000D01*
%TO.C,P3*%
X94370000Y-104920000D02*
X94370000Y-107580000D01*
X89230000Y-104920000D02*
X94370000Y-104920000D01*
X89230000Y-107580000D02*
X94370000Y-107580000D01*
X89230000Y-104920000D02*
X89230000Y-107580000D01*
X87960000Y-104920000D02*
X86630000Y-104920000D01*
X86630000Y-104920000D02*
X86630000Y-106250000D01*
%TO.C,R3*%
X140250000Y-104320000D02*
X139250000Y-104320000D01*
X139250000Y-105680000D02*
X140250000Y-105680000D01*
%TO.C,J1*%
D11*
X130252380Y-116216666D02*
X130966666Y-116216666D01*
X131109523Y-116169047D01*
X131204761Y-116073809D01*
X131252380Y-115930952D01*
X131252380Y-115835714D01*
X131252380Y-117216666D02*
X131252380Y-116645238D01*
X131252380Y-116930952D02*
X130252380Y-116930952D01*
X130395238Y-116835714D01*
X130490476Y-116740476D01*
X130538095Y-116645238D01*
X135531428Y-112359047D02*
X135531428Y-113120952D01*
X135912380Y-112740000D02*
X135150476Y-112740000D01*
%TO.C,SW1*%
X91833333Y-69254761D02*
X91690476Y-69302380D01*
X91452380Y-69302380D01*
X91357142Y-69254761D01*
X91309523Y-69207142D01*
X91261904Y-69111904D01*
X91261904Y-69016666D01*
X91309523Y-68921428D01*
X91357142Y-68873809D01*
X91452380Y-68826190D01*
X91642857Y-68778571D01*
X91738095Y-68730952D01*
X91785714Y-68683333D01*
X91833333Y-68588095D01*
X91833333Y-68492857D01*
X91785714Y-68397619D01*
X91738095Y-68350000D01*
X91642857Y-68302380D01*
X91404761Y-68302380D01*
X91261904Y-68350000D01*
X90928571Y-68302380D02*
X90690476Y-69302380D01*
X90500000Y-68588095D01*
X90309523Y-69302380D01*
X90071428Y-68302380D01*
X89166666Y-69302380D02*
X89738095Y-69302380D01*
X89452380Y-69302380D02*
X89452380Y-68302380D01*
X89547619Y-68445238D01*
X89642857Y-68540476D01*
X89738095Y-68588095D01*
%TO.C,SW5*%
X168033333Y-69254761D02*
X167890476Y-69302380D01*
X167652380Y-69302380D01*
X167557142Y-69254761D01*
X167509523Y-69207142D01*
X167461904Y-69111904D01*
X167461904Y-69016666D01*
X167509523Y-68921428D01*
X167557142Y-68873809D01*
X167652380Y-68826190D01*
X167842857Y-68778571D01*
X167938095Y-68730952D01*
X167985714Y-68683333D01*
X168033333Y-68588095D01*
X168033333Y-68492857D01*
X167985714Y-68397619D01*
X167938095Y-68350000D01*
X167842857Y-68302380D01*
X167604761Y-68302380D01*
X167461904Y-68350000D01*
X167128571Y-68302380D02*
X166890476Y-69302380D01*
X166700000Y-68588095D01*
X166509523Y-69302380D01*
X166271428Y-68302380D01*
X165414285Y-68302380D02*
X165890476Y-68302380D01*
X165938095Y-68778571D01*
X165890476Y-68730952D01*
X165795238Y-68683333D01*
X165557142Y-68683333D01*
X165461904Y-68730952D01*
X165414285Y-68778571D01*
X165366666Y-68873809D01*
X165366666Y-69111904D01*
X165414285Y-69207142D01*
X165461904Y-69254761D01*
X165557142Y-69302380D01*
X165795238Y-69302380D01*
X165890476Y-69254761D01*
X165938095Y-69207142D01*
%TO.C,SW3*%
X129933333Y-77254761D02*
X129790476Y-77302380D01*
X129552380Y-77302380D01*
X129457142Y-77254761D01*
X129409523Y-77207142D01*
X129361904Y-77111904D01*
X129361904Y-77016666D01*
X129409523Y-76921428D01*
X129457142Y-76873809D01*
X129552380Y-76826190D01*
X129742857Y-76778571D01*
X129838095Y-76730952D01*
X129885714Y-76683333D01*
X129933333Y-76588095D01*
X129933333Y-76492857D01*
X129885714Y-76397619D01*
X129838095Y-76350000D01*
X129742857Y-76302380D01*
X129504761Y-76302380D01*
X129361904Y-76350000D01*
X129028571Y-76302380D02*
X128790476Y-77302380D01*
X128600000Y-76588095D01*
X128409523Y-77302380D01*
X128171428Y-76302380D01*
X127885714Y-76302380D02*
X127266666Y-76302380D01*
X127600000Y-76683333D01*
X127457142Y-76683333D01*
X127361904Y-76730952D01*
X127314285Y-76778571D01*
X127266666Y-76873809D01*
X127266666Y-77111904D01*
X127314285Y-77207142D01*
X127361904Y-77254761D01*
X127457142Y-77302380D01*
X127742857Y-77302380D01*
X127838095Y-77254761D01*
X127885714Y-77207142D01*
%TO.C,SW12*%
X187559523Y-88304761D02*
X187416666Y-88352380D01*
X187178571Y-88352380D01*
X187083333Y-88304761D01*
X187035714Y-88257142D01*
X186988095Y-88161904D01*
X186988095Y-88066666D01*
X187035714Y-87971428D01*
X187083333Y-87923809D01*
X187178571Y-87876190D01*
X187369047Y-87828571D01*
X187464285Y-87780952D01*
X187511904Y-87733333D01*
X187559523Y-87638095D01*
X187559523Y-87542857D01*
X187511904Y-87447619D01*
X187464285Y-87400000D01*
X187369047Y-87352380D01*
X187130952Y-87352380D01*
X186988095Y-87400000D01*
X186654761Y-87352380D02*
X186416666Y-88352380D01*
X186226190Y-87638095D01*
X186035714Y-88352380D01*
X185797619Y-87352380D01*
X184892857Y-88352380D02*
X185464285Y-88352380D01*
X185178571Y-88352380D02*
X185178571Y-87352380D01*
X185273809Y-87495238D01*
X185369047Y-87590476D01*
X185464285Y-87638095D01*
X184511904Y-87447619D02*
X184464285Y-87400000D01*
X184369047Y-87352380D01*
X184130952Y-87352380D01*
X184035714Y-87400000D01*
X183988095Y-87447619D01*
X183940476Y-87542857D01*
X183940476Y-87638095D01*
X183988095Y-87780952D01*
X184559523Y-88352380D01*
X183940476Y-88352380D01*
%TO.C,SW2*%
X105533333Y-71004761D02*
X105390476Y-71052380D01*
X105152380Y-71052380D01*
X105057142Y-71004761D01*
X105009523Y-70957142D01*
X104961904Y-70861904D01*
X104961904Y-70766666D01*
X105009523Y-70671428D01*
X105057142Y-70623809D01*
X105152380Y-70576190D01*
X105342857Y-70528571D01*
X105438095Y-70480952D01*
X105485714Y-70433333D01*
X105533333Y-70338095D01*
X105533333Y-70242857D01*
X105485714Y-70147619D01*
X105438095Y-70100000D01*
X105342857Y-70052380D01*
X105104761Y-70052380D01*
X104961904Y-70100000D01*
X104628571Y-70052380D02*
X104390476Y-71052380D01*
X104200000Y-70338095D01*
X104009523Y-71052380D01*
X103771428Y-70052380D01*
X103438095Y-70147619D02*
X103390476Y-70100000D01*
X103295238Y-70052380D01*
X103057142Y-70052380D01*
X102961904Y-70100000D01*
X102914285Y-70147619D01*
X102866666Y-70242857D01*
X102866666Y-70338095D01*
X102914285Y-70480952D01*
X103485714Y-71052380D01*
X102866666Y-71052380D01*
%TO.C,SW4*%
X148004761Y-66666666D02*
X148052380Y-66809523D01*
X148052380Y-67047619D01*
X148004761Y-67142857D01*
X147957142Y-67190476D01*
X147861904Y-67238095D01*
X147766666Y-67238095D01*
X147671428Y-67190476D01*
X147623809Y-67142857D01*
X147576190Y-67047619D01*
X147528571Y-66857142D01*
X147480952Y-66761904D01*
X147433333Y-66714285D01*
X147338095Y-66666666D01*
X147242857Y-66666666D01*
X147147619Y-66714285D01*
X147100000Y-66761904D01*
X147052380Y-66857142D01*
X147052380Y-67095238D01*
X147100000Y-67238095D01*
X147052380Y-67571428D02*
X148052380Y-67809523D01*
X147338095Y-68000000D01*
X148052380Y-68190476D01*
X147052380Y-68428571D01*
X147385714Y-69238095D02*
X148052380Y-69238095D01*
X147004761Y-69000000D02*
X147719047Y-68761904D01*
X147719047Y-69380952D01*
%TO.C,SW6*%
X187083333Y-69254761D02*
X186940476Y-69302380D01*
X186702380Y-69302380D01*
X186607142Y-69254761D01*
X186559523Y-69207142D01*
X186511904Y-69111904D01*
X186511904Y-69016666D01*
X186559523Y-68921428D01*
X186607142Y-68873809D01*
X186702380Y-68826190D01*
X186892857Y-68778571D01*
X186988095Y-68730952D01*
X187035714Y-68683333D01*
X187083333Y-68588095D01*
X187083333Y-68492857D01*
X187035714Y-68397619D01*
X186988095Y-68350000D01*
X186892857Y-68302380D01*
X186654761Y-68302380D01*
X186511904Y-68350000D01*
X186178571Y-68302380D02*
X185940476Y-69302380D01*
X185750000Y-68588095D01*
X185559523Y-69302380D01*
X185321428Y-68302380D01*
X184511904Y-68302380D02*
X184702380Y-68302380D01*
X184797619Y-68350000D01*
X184845238Y-68397619D01*
X184940476Y-68540476D01*
X184988095Y-68730952D01*
X184988095Y-69111904D01*
X184940476Y-69207142D01*
X184892857Y-69254761D01*
X184797619Y-69302380D01*
X184607142Y-69302380D01*
X184511904Y-69254761D01*
X184464285Y-69207142D01*
X184416666Y-69111904D01*
X184416666Y-68873809D01*
X184464285Y-68778571D01*
X184511904Y-68730952D01*
X184607142Y-68683333D01*
X184797619Y-68683333D01*
X184892857Y-68730952D01*
X184940476Y-68778571D01*
X184988095Y-68873809D01*
%TO.C,SW7*%
X91833333Y-88304761D02*
X91690476Y-88352380D01*
X91452380Y-88352380D01*
X91357142Y-88304761D01*
X91309523Y-88257142D01*
X91261904Y-88161904D01*
X91261904Y-88066666D01*
X91309523Y-87971428D01*
X91357142Y-87923809D01*
X91452380Y-87876190D01*
X91642857Y-87828571D01*
X91738095Y-87780952D01*
X91785714Y-87733333D01*
X91833333Y-87638095D01*
X91833333Y-87542857D01*
X91785714Y-87447619D01*
X91738095Y-87400000D01*
X91642857Y-87352380D01*
X91404761Y-87352380D01*
X91261904Y-87400000D01*
X90928571Y-87352380D02*
X90690476Y-88352380D01*
X90500000Y-87638095D01*
X90309523Y-88352380D01*
X90071428Y-87352380D01*
X89785714Y-87352380D02*
X89119047Y-87352380D01*
X89547619Y-88352380D01*
%TO.C,SW8*%
X110883333Y-96304761D02*
X110740476Y-96352380D01*
X110502380Y-96352380D01*
X110407142Y-96304761D01*
X110359523Y-96257142D01*
X110311904Y-96161904D01*
X110311904Y-96066666D01*
X110359523Y-95971428D01*
X110407142Y-95923809D01*
X110502380Y-95876190D01*
X110692857Y-95828571D01*
X110788095Y-95780952D01*
X110835714Y-95733333D01*
X110883333Y-95638095D01*
X110883333Y-95542857D01*
X110835714Y-95447619D01*
X110788095Y-95400000D01*
X110692857Y-95352380D01*
X110454761Y-95352380D01*
X110311904Y-95400000D01*
X109978571Y-95352380D02*
X109740476Y-96352380D01*
X109550000Y-95638095D01*
X109359523Y-96352380D01*
X109121428Y-95352380D01*
X108597619Y-95780952D02*
X108692857Y-95733333D01*
X108740476Y-95685714D01*
X108788095Y-95590476D01*
X108788095Y-95542857D01*
X108740476Y-95447619D01*
X108692857Y-95400000D01*
X108597619Y-95352380D01*
X108407142Y-95352380D01*
X108311904Y-95400000D01*
X108264285Y-95447619D01*
X108216666Y-95542857D01*
X108216666Y-95590476D01*
X108264285Y-95685714D01*
X108311904Y-95733333D01*
X108407142Y-95780952D01*
X108597619Y-95780952D01*
X108692857Y-95828571D01*
X108740476Y-95876190D01*
X108788095Y-95971428D01*
X108788095Y-96161904D01*
X108740476Y-96257142D01*
X108692857Y-96304761D01*
X108597619Y-96352380D01*
X108407142Y-96352380D01*
X108311904Y-96304761D01*
X108264285Y-96257142D01*
X108216666Y-96161904D01*
X108216666Y-95971428D01*
X108264285Y-95876190D01*
X108311904Y-95828571D01*
X108407142Y-95780952D01*
%TO.C,SW9*%
X129933333Y-88304761D02*
X129790476Y-88352380D01*
X129552380Y-88352380D01*
X129457142Y-88304761D01*
X129409523Y-88257142D01*
X129361904Y-88161904D01*
X129361904Y-88066666D01*
X129409523Y-87971428D01*
X129457142Y-87923809D01*
X129552380Y-87876190D01*
X129742857Y-87828571D01*
X129838095Y-87780952D01*
X129885714Y-87733333D01*
X129933333Y-87638095D01*
X129933333Y-87542857D01*
X129885714Y-87447619D01*
X129838095Y-87400000D01*
X129742857Y-87352380D01*
X129504761Y-87352380D01*
X129361904Y-87400000D01*
X129028571Y-87352380D02*
X128790476Y-88352380D01*
X128600000Y-87638095D01*
X128409523Y-88352380D01*
X128171428Y-87352380D01*
X127742857Y-88352380D02*
X127552380Y-88352380D01*
X127457142Y-88304761D01*
X127409523Y-88257142D01*
X127314285Y-88114285D01*
X127266666Y-87923809D01*
X127266666Y-87542857D01*
X127314285Y-87447619D01*
X127361904Y-87400000D01*
X127457142Y-87352380D01*
X127647619Y-87352380D01*
X127742857Y-87400000D01*
X127790476Y-87447619D01*
X127838095Y-87542857D01*
X127838095Y-87780952D01*
X127790476Y-87876190D01*
X127742857Y-87923809D01*
X127647619Y-87971428D01*
X127457142Y-87971428D01*
X127361904Y-87923809D01*
X127314285Y-87876190D01*
X127266666Y-87780952D01*
%TO.C,SW10*%
X149459523Y-88304761D02*
X149316666Y-88352380D01*
X149078571Y-88352380D01*
X148983333Y-88304761D01*
X148935714Y-88257142D01*
X148888095Y-88161904D01*
X148888095Y-88066666D01*
X148935714Y-87971428D01*
X148983333Y-87923809D01*
X149078571Y-87876190D01*
X149269047Y-87828571D01*
X149364285Y-87780952D01*
X149411904Y-87733333D01*
X149459523Y-87638095D01*
X149459523Y-87542857D01*
X149411904Y-87447619D01*
X149364285Y-87400000D01*
X149269047Y-87352380D01*
X149030952Y-87352380D01*
X148888095Y-87400000D01*
X148554761Y-87352380D02*
X148316666Y-88352380D01*
X148126190Y-87638095D01*
X147935714Y-88352380D01*
X147697619Y-87352380D01*
X146792857Y-88352380D02*
X147364285Y-88352380D01*
X147078571Y-88352380D02*
X147078571Y-87352380D01*
X147173809Y-87495238D01*
X147269047Y-87590476D01*
X147364285Y-87638095D01*
X146173809Y-87352380D02*
X146078571Y-87352380D01*
X145983333Y-87400000D01*
X145935714Y-87447619D01*
X145888095Y-87542857D01*
X145840476Y-87733333D01*
X145840476Y-87971428D01*
X145888095Y-88161904D01*
X145935714Y-88257142D01*
X145983333Y-88304761D01*
X146078571Y-88352380D01*
X146173809Y-88352380D01*
X146269047Y-88304761D01*
X146316666Y-88257142D01*
X146364285Y-88161904D01*
X146411904Y-87971428D01*
X146411904Y-87733333D01*
X146364285Y-87542857D01*
X146316666Y-87447619D01*
X146269047Y-87400000D01*
X146173809Y-87352380D01*
%TO.C,SW11*%
X168509523Y-88304761D02*
X168366666Y-88352380D01*
X168128571Y-88352380D01*
X168033333Y-88304761D01*
X167985714Y-88257142D01*
X167938095Y-88161904D01*
X167938095Y-88066666D01*
X167985714Y-87971428D01*
X168033333Y-87923809D01*
X168128571Y-87876190D01*
X168319047Y-87828571D01*
X168414285Y-87780952D01*
X168461904Y-87733333D01*
X168509523Y-87638095D01*
X168509523Y-87542857D01*
X168461904Y-87447619D01*
X168414285Y-87400000D01*
X168319047Y-87352380D01*
X168080952Y-87352380D01*
X167938095Y-87400000D01*
X167604761Y-87352380D02*
X167366666Y-88352380D01*
X167176190Y-87638095D01*
X166985714Y-88352380D01*
X166747619Y-87352380D01*
X165842857Y-88352380D02*
X166414285Y-88352380D01*
X166128571Y-88352380D02*
X166128571Y-87352380D01*
X166223809Y-87495238D01*
X166319047Y-87590476D01*
X166414285Y-87638095D01*
X164890476Y-88352380D02*
X165461904Y-88352380D01*
X165176190Y-88352380D02*
X165176190Y-87352380D01*
X165271428Y-87495238D01*
X165366666Y-87590476D01*
X165461904Y-87638095D01*
%TO.C,SW13*%
X90904761Y-114190476D02*
X90952380Y-114333333D01*
X90952380Y-114571428D01*
X90904761Y-114666666D01*
X90857142Y-114714285D01*
X90761904Y-114761904D01*
X90666666Y-114761904D01*
X90571428Y-114714285D01*
X90523809Y-114666666D01*
X90476190Y-114571428D01*
X90428571Y-114380952D01*
X90380952Y-114285714D01*
X90333333Y-114238095D01*
X90238095Y-114190476D01*
X90142857Y-114190476D01*
X90047619Y-114238095D01*
X90000000Y-114285714D01*
X89952380Y-114380952D01*
X89952380Y-114619047D01*
X90000000Y-114761904D01*
X89952380Y-115095238D02*
X90952380Y-115333333D01*
X90238095Y-115523809D01*
X90952380Y-115714285D01*
X89952380Y-115952380D01*
X90952380Y-116857142D02*
X90952380Y-116285714D01*
X90952380Y-116571428D02*
X89952380Y-116571428D01*
X90095238Y-116476190D01*
X90190476Y-116380952D01*
X90238095Y-116285714D01*
X89952380Y-117190476D02*
X89952380Y-117809523D01*
X90333333Y-117476190D01*
X90333333Y-117619047D01*
X90380952Y-117714285D01*
X90428571Y-117761904D01*
X90523809Y-117809523D01*
X90761904Y-117809523D01*
X90857142Y-117761904D01*
X90904761Y-117714285D01*
X90952380Y-117619047D01*
X90952380Y-117333333D01*
X90904761Y-117238095D01*
X90857142Y-117190476D01*
%TO.C,SW14*%
X111359523Y-115354761D02*
X111216666Y-115402380D01*
X110978571Y-115402380D01*
X110883333Y-115354761D01*
X110835714Y-115307142D01*
X110788095Y-115211904D01*
X110788095Y-115116666D01*
X110835714Y-115021428D01*
X110883333Y-114973809D01*
X110978571Y-114926190D01*
X111169047Y-114878571D01*
X111264285Y-114830952D01*
X111311904Y-114783333D01*
X111359523Y-114688095D01*
X111359523Y-114592857D01*
X111311904Y-114497619D01*
X111264285Y-114450000D01*
X111169047Y-114402380D01*
X110930952Y-114402380D01*
X110788095Y-114450000D01*
X110454761Y-114402380D02*
X110216666Y-115402380D01*
X110026190Y-114688095D01*
X109835714Y-115402380D01*
X109597619Y-114402380D01*
X108692857Y-115402380D02*
X109264285Y-115402380D01*
X108978571Y-115402380D02*
X108978571Y-114402380D01*
X109073809Y-114545238D01*
X109169047Y-114640476D01*
X109264285Y-114688095D01*
X107835714Y-114735714D02*
X107835714Y-115402380D01*
X108073809Y-114354761D02*
X108311904Y-115069047D01*
X107692857Y-115069047D01*
%TO.C,SW15*%
X129004761Y-104590476D02*
X129052380Y-104733333D01*
X129052380Y-104971428D01*
X129004761Y-105066666D01*
X128957142Y-105114285D01*
X128861904Y-105161904D01*
X128766666Y-105161904D01*
X128671428Y-105114285D01*
X128623809Y-105066666D01*
X128576190Y-104971428D01*
X128528571Y-104780952D01*
X128480952Y-104685714D01*
X128433333Y-104638095D01*
X128338095Y-104590476D01*
X128242857Y-104590476D01*
X128147619Y-104638095D01*
X128100000Y-104685714D01*
X128052380Y-104780952D01*
X128052380Y-105019047D01*
X128100000Y-105161904D01*
X128052380Y-105495238D02*
X129052380Y-105733333D01*
X128338095Y-105923809D01*
X129052380Y-106114285D01*
X128052380Y-106352380D01*
X129052380Y-107257142D02*
X129052380Y-106685714D01*
X129052380Y-106971428D02*
X128052380Y-106971428D01*
X128195238Y-106876190D01*
X128290476Y-106780952D01*
X128338095Y-106685714D01*
X128052380Y-108161904D02*
X128052380Y-107685714D01*
X128528571Y-107638095D01*
X128480952Y-107685714D01*
X128433333Y-107780952D01*
X128433333Y-108019047D01*
X128480952Y-108114285D01*
X128528571Y-108161904D01*
X128623809Y-108209523D01*
X128861904Y-108209523D01*
X128957142Y-108161904D01*
X129004761Y-108114285D01*
X129052380Y-108019047D01*
X129052380Y-107780952D01*
X129004761Y-107685714D01*
X128957142Y-107638095D01*
%TO.C,SW16*%
X148204761Y-104790476D02*
X148252380Y-104933333D01*
X148252380Y-105171428D01*
X148204761Y-105266666D01*
X148157142Y-105314285D01*
X148061904Y-105361904D01*
X147966666Y-105361904D01*
X147871428Y-105314285D01*
X147823809Y-105266666D01*
X147776190Y-105171428D01*
X147728571Y-104980952D01*
X147680952Y-104885714D01*
X147633333Y-104838095D01*
X147538095Y-104790476D01*
X147442857Y-104790476D01*
X147347619Y-104838095D01*
X147300000Y-104885714D01*
X147252380Y-104980952D01*
X147252380Y-105219047D01*
X147300000Y-105361904D01*
X147252380Y-105695238D02*
X148252380Y-105933333D01*
X147538095Y-106123809D01*
X148252380Y-106314285D01*
X147252380Y-106552380D01*
X148252380Y-107457142D02*
X148252380Y-106885714D01*
X148252380Y-107171428D02*
X147252380Y-107171428D01*
X147395238Y-107076190D01*
X147490476Y-106980952D01*
X147538095Y-106885714D01*
X147252380Y-108314285D02*
X147252380Y-108123809D01*
X147300000Y-108028571D01*
X147347619Y-107980952D01*
X147490476Y-107885714D01*
X147680952Y-107838095D01*
X148061904Y-107838095D01*
X148157142Y-107885714D01*
X148204761Y-107933333D01*
X148252380Y-108028571D01*
X148252380Y-108219047D01*
X148204761Y-108314285D01*
X148157142Y-108361904D01*
X148061904Y-108409523D01*
X147823809Y-108409523D01*
X147728571Y-108361904D01*
X147680952Y-108314285D01*
X147633333Y-108219047D01*
X147633333Y-108028571D01*
X147680952Y-107933333D01*
X147728571Y-107885714D01*
X147823809Y-107838095D01*
%TO.C,SW17*%
X168509523Y-107354761D02*
X168366666Y-107402380D01*
X168128571Y-107402380D01*
X168033333Y-107354761D01*
X167985714Y-107307142D01*
X167938095Y-107211904D01*
X167938095Y-107116666D01*
X167985714Y-107021428D01*
X168033333Y-106973809D01*
X168128571Y-106926190D01*
X168319047Y-106878571D01*
X168414285Y-106830952D01*
X168461904Y-106783333D01*
X168509523Y-106688095D01*
X168509523Y-106592857D01*
X168461904Y-106497619D01*
X168414285Y-106450000D01*
X168319047Y-106402380D01*
X168080952Y-106402380D01*
X167938095Y-106450000D01*
X167604761Y-106402380D02*
X167366666Y-107402380D01*
X167176190Y-106688095D01*
X166985714Y-107402380D01*
X166747619Y-106402380D01*
X165842857Y-107402380D02*
X166414285Y-107402380D01*
X166128571Y-107402380D02*
X166128571Y-106402380D01*
X166223809Y-106545238D01*
X166319047Y-106640476D01*
X166414285Y-106688095D01*
X165509523Y-106402380D02*
X164842857Y-106402380D01*
X165271428Y-107402380D01*
%TO.C,SW18*%
X187559523Y-115354761D02*
X187416666Y-115402380D01*
X187178571Y-115402380D01*
X187083333Y-115354761D01*
X187035714Y-115307142D01*
X186988095Y-115211904D01*
X186988095Y-115116666D01*
X187035714Y-115021428D01*
X187083333Y-114973809D01*
X187178571Y-114926190D01*
X187369047Y-114878571D01*
X187464285Y-114830952D01*
X187511904Y-114783333D01*
X187559523Y-114688095D01*
X187559523Y-114592857D01*
X187511904Y-114497619D01*
X187464285Y-114450000D01*
X187369047Y-114402380D01*
X187130952Y-114402380D01*
X186988095Y-114450000D01*
X186654761Y-114402380D02*
X186416666Y-115402380D01*
X186226190Y-114688095D01*
X186035714Y-115402380D01*
X185797619Y-114402380D01*
X184892857Y-115402380D02*
X185464285Y-115402380D01*
X185178571Y-115402380D02*
X185178571Y-114402380D01*
X185273809Y-114545238D01*
X185369047Y-114640476D01*
X185464285Y-114688095D01*
X184321428Y-114830952D02*
X184416666Y-114783333D01*
X184464285Y-114735714D01*
X184511904Y-114640476D01*
X184511904Y-114592857D01*
X184464285Y-114497619D01*
X184416666Y-114450000D01*
X184321428Y-114402380D01*
X184130952Y-114402380D01*
X184035714Y-114450000D01*
X183988095Y-114497619D01*
X183940476Y-114592857D01*
X183940476Y-114640476D01*
X183988095Y-114735714D01*
X184035714Y-114783333D01*
X184130952Y-114830952D01*
X184321428Y-114830952D01*
X184416666Y-114878571D01*
X184464285Y-114926190D01*
X184511904Y-115021428D01*
X184511904Y-115211904D01*
X184464285Y-115307142D01*
X184416666Y-115354761D01*
X184321428Y-115402380D01*
X184130952Y-115402380D01*
X184035714Y-115354761D01*
X183988095Y-115307142D01*
X183940476Y-115211904D01*
X183940476Y-115021428D01*
X183988095Y-114926190D01*
X184035714Y-114878571D01*
X184130952Y-114830952D01*
%TO.C,SW19*%
X92309523Y-126404761D02*
X92166666Y-126452380D01*
X91928571Y-126452380D01*
X91833333Y-126404761D01*
X91785714Y-126357142D01*
X91738095Y-126261904D01*
X91738095Y-126166666D01*
X91785714Y-126071428D01*
X91833333Y-126023809D01*
X91928571Y-125976190D01*
X92119047Y-125928571D01*
X92214285Y-125880952D01*
X92261904Y-125833333D01*
X92309523Y-125738095D01*
X92309523Y-125642857D01*
X92261904Y-125547619D01*
X92214285Y-125500000D01*
X92119047Y-125452380D01*
X91880952Y-125452380D01*
X91738095Y-125500000D01*
X91404761Y-125452380D02*
X91166666Y-126452380D01*
X90976190Y-125738095D01*
X90785714Y-126452380D01*
X90547619Y-125452380D01*
X89642857Y-126452380D02*
X90214285Y-126452380D01*
X89928571Y-126452380D02*
X89928571Y-125452380D01*
X90023809Y-125595238D01*
X90119047Y-125690476D01*
X90214285Y-125738095D01*
X89166666Y-126452380D02*
X88976190Y-126452380D01*
X88880952Y-126404761D01*
X88833333Y-126357142D01*
X88738095Y-126214285D01*
X88690476Y-126023809D01*
X88690476Y-125642857D01*
X88738095Y-125547619D01*
X88785714Y-125500000D01*
X88880952Y-125452380D01*
X89071428Y-125452380D01*
X89166666Y-125500000D01*
X89214285Y-125547619D01*
X89261904Y-125642857D01*
X89261904Y-125880952D01*
X89214285Y-125976190D01*
X89166666Y-126023809D01*
X89071428Y-126071428D01*
X88880952Y-126071428D01*
X88785714Y-126023809D01*
X88738095Y-125976190D01*
X88690476Y-125880952D01*
%TO.C,SW20*%
X111359523Y-126404761D02*
X111216666Y-126452380D01*
X110978571Y-126452380D01*
X110883333Y-126404761D01*
X110835714Y-126357142D01*
X110788095Y-126261904D01*
X110788095Y-126166666D01*
X110835714Y-126071428D01*
X110883333Y-126023809D01*
X110978571Y-125976190D01*
X111169047Y-125928571D01*
X111264285Y-125880952D01*
X111311904Y-125833333D01*
X111359523Y-125738095D01*
X111359523Y-125642857D01*
X111311904Y-125547619D01*
X111264285Y-125500000D01*
X111169047Y-125452380D01*
X110930952Y-125452380D01*
X110788095Y-125500000D01*
X110454761Y-125452380D02*
X110216666Y-126452380D01*
X110026190Y-125738095D01*
X109835714Y-126452380D01*
X109597619Y-125452380D01*
X109264285Y-125547619D02*
X109216666Y-125500000D01*
X109121428Y-125452380D01*
X108883333Y-125452380D01*
X108788095Y-125500000D01*
X108740476Y-125547619D01*
X108692857Y-125642857D01*
X108692857Y-125738095D01*
X108740476Y-125880952D01*
X109311904Y-126452380D01*
X108692857Y-126452380D01*
X108073809Y-125452380D02*
X107978571Y-125452380D01*
X107883333Y-125500000D01*
X107835714Y-125547619D01*
X107788095Y-125642857D01*
X107740476Y-125833333D01*
X107740476Y-126071428D01*
X107788095Y-126261904D01*
X107835714Y-126357142D01*
X107883333Y-126404761D01*
X107978571Y-126452380D01*
X108073809Y-126452380D01*
X108169047Y-126404761D01*
X108216666Y-126357142D01*
X108264285Y-126261904D01*
X108311904Y-126071428D01*
X108311904Y-125833333D01*
X108264285Y-125642857D01*
X108216666Y-125547619D01*
X108169047Y-125500000D01*
X108073809Y-125452380D01*
%TO.C,SW21*%
X130409523Y-126404761D02*
X130266666Y-126452380D01*
X130028571Y-126452380D01*
X129933333Y-126404761D01*
X129885714Y-126357142D01*
X129838095Y-126261904D01*
X129838095Y-126166666D01*
X129885714Y-126071428D01*
X129933333Y-126023809D01*
X130028571Y-125976190D01*
X130219047Y-125928571D01*
X130314285Y-125880952D01*
X130361904Y-125833333D01*
X130409523Y-125738095D01*
X130409523Y-125642857D01*
X130361904Y-125547619D01*
X130314285Y-125500000D01*
X130219047Y-125452380D01*
X129980952Y-125452380D01*
X129838095Y-125500000D01*
X129504761Y-125452380D02*
X129266666Y-126452380D01*
X129076190Y-125738095D01*
X128885714Y-126452380D01*
X128647619Y-125452380D01*
X128314285Y-125547619D02*
X128266666Y-125500000D01*
X128171428Y-125452380D01*
X127933333Y-125452380D01*
X127838095Y-125500000D01*
X127790476Y-125547619D01*
X127742857Y-125642857D01*
X127742857Y-125738095D01*
X127790476Y-125880952D01*
X128361904Y-126452380D01*
X127742857Y-126452380D01*
X126790476Y-126452380D02*
X127361904Y-126452380D01*
X127076190Y-126452380D02*
X127076190Y-125452380D01*
X127171428Y-125595238D01*
X127266666Y-125690476D01*
X127361904Y-125738095D01*
%TO.C,SW22*%
X149459523Y-126404761D02*
X149316666Y-126452380D01*
X149078571Y-126452380D01*
X148983333Y-126404761D01*
X148935714Y-126357142D01*
X148888095Y-126261904D01*
X148888095Y-126166666D01*
X148935714Y-126071428D01*
X148983333Y-126023809D01*
X149078571Y-125976190D01*
X149269047Y-125928571D01*
X149364285Y-125880952D01*
X149411904Y-125833333D01*
X149459523Y-125738095D01*
X149459523Y-125642857D01*
X149411904Y-125547619D01*
X149364285Y-125500000D01*
X149269047Y-125452380D01*
X149030952Y-125452380D01*
X148888095Y-125500000D01*
X148554761Y-125452380D02*
X148316666Y-126452380D01*
X148126190Y-125738095D01*
X147935714Y-126452380D01*
X147697619Y-125452380D01*
X147364285Y-125547619D02*
X147316666Y-125500000D01*
X147221428Y-125452380D01*
X146983333Y-125452380D01*
X146888095Y-125500000D01*
X146840476Y-125547619D01*
X146792857Y-125642857D01*
X146792857Y-125738095D01*
X146840476Y-125880952D01*
X147411904Y-126452380D01*
X146792857Y-126452380D01*
X146411904Y-125547619D02*
X146364285Y-125500000D01*
X146269047Y-125452380D01*
X146030952Y-125452380D01*
X145935714Y-125500000D01*
X145888095Y-125547619D01*
X145840476Y-125642857D01*
X145840476Y-125738095D01*
X145888095Y-125880952D01*
X146459523Y-126452380D01*
X145840476Y-126452380D01*
%TO.C,SW23*%
X168509523Y-126404761D02*
X168366666Y-126452380D01*
X168128571Y-126452380D01*
X168033333Y-126404761D01*
X167985714Y-126357142D01*
X167938095Y-126261904D01*
X167938095Y-126166666D01*
X167985714Y-126071428D01*
X168033333Y-126023809D01*
X168128571Y-125976190D01*
X168319047Y-125928571D01*
X168414285Y-125880952D01*
X168461904Y-125833333D01*
X168509523Y-125738095D01*
X168509523Y-125642857D01*
X168461904Y-125547619D01*
X168414285Y-125500000D01*
X168319047Y-125452380D01*
X168080952Y-125452380D01*
X167938095Y-125500000D01*
X167604761Y-125452380D02*
X167366666Y-126452380D01*
X167176190Y-125738095D01*
X166985714Y-126452380D01*
X166747619Y-125452380D01*
X166414285Y-125547619D02*
X166366666Y-125500000D01*
X166271428Y-125452380D01*
X166033333Y-125452380D01*
X165938095Y-125500000D01*
X165890476Y-125547619D01*
X165842857Y-125642857D01*
X165842857Y-125738095D01*
X165890476Y-125880952D01*
X166461904Y-126452380D01*
X165842857Y-126452380D01*
X165509523Y-125452380D02*
X164890476Y-125452380D01*
X165223809Y-125833333D01*
X165080952Y-125833333D01*
X164985714Y-125880952D01*
X164938095Y-125928571D01*
X164890476Y-126023809D01*
X164890476Y-126261904D01*
X164938095Y-126357142D01*
X164985714Y-126404761D01*
X165080952Y-126452380D01*
X165366666Y-126452380D01*
X165461904Y-126404761D01*
X165509523Y-126357142D01*
%TO.C,SW24*%
X187559523Y-126404761D02*
X187416666Y-126452380D01*
X187178571Y-126452380D01*
X187083333Y-126404761D01*
X187035714Y-126357142D01*
X186988095Y-126261904D01*
X186988095Y-126166666D01*
X187035714Y-126071428D01*
X187083333Y-126023809D01*
X187178571Y-125976190D01*
X187369047Y-125928571D01*
X187464285Y-125880952D01*
X187511904Y-125833333D01*
X187559523Y-125738095D01*
X187559523Y-125642857D01*
X187511904Y-125547619D01*
X187464285Y-125500000D01*
X187369047Y-125452380D01*
X187130952Y-125452380D01*
X186988095Y-125500000D01*
X186654761Y-125452380D02*
X186416666Y-126452380D01*
X186226190Y-125738095D01*
X186035714Y-126452380D01*
X185797619Y-125452380D01*
X185464285Y-125547619D02*
X185416666Y-125500000D01*
X185321428Y-125452380D01*
X185083333Y-125452380D01*
X184988095Y-125500000D01*
X184940476Y-125547619D01*
X184892857Y-125642857D01*
X184892857Y-125738095D01*
X184940476Y-125880952D01*
X185511904Y-126452380D01*
X184892857Y-126452380D01*
X184035714Y-125785714D02*
X184035714Y-126452380D01*
X184273809Y-125404761D02*
X184511904Y-126119047D01*
X183892857Y-126119047D01*
%TO.C,R2*%
X157242780Y-72849133D02*
X156766590Y-72515800D01*
X157242780Y-72277704D02*
X156242780Y-72277704D01*
X156242780Y-72658657D01*
X156290400Y-72753895D01*
X156338019Y-72801514D01*
X156433257Y-72849133D01*
X156576114Y-72849133D01*
X156671352Y-72801514D01*
X156718971Y-72753895D01*
X156766590Y-72658657D01*
X156766590Y-72277704D01*
X156338019Y-73230085D02*
X156290400Y-73277704D01*
X156242780Y-73372942D01*
X156242780Y-73611038D01*
X156290400Y-73706276D01*
X156338019Y-73753895D01*
X156433257Y-73801514D01*
X156528495Y-73801514D01*
X156671352Y-73753895D01*
X157242780Y-73182466D01*
X157242780Y-73801514D01*
%TO.C,R1*%
X164187066Y-68344380D02*
X164520400Y-67868190D01*
X164758495Y-68344380D02*
X164758495Y-67344380D01*
X164377542Y-67344380D01*
X164282304Y-67392000D01*
X164234685Y-67439619D01*
X164187066Y-67534857D01*
X164187066Y-67677714D01*
X164234685Y-67772952D01*
X164282304Y-67820571D01*
X164377542Y-67868190D01*
X164758495Y-67868190D01*
X163234685Y-68344380D02*
X163806114Y-68344380D01*
X163520400Y-68344380D02*
X163520400Y-67344380D01*
X163615638Y-67487238D01*
X163710876Y-67582476D01*
X163806114Y-67630095D01*
%TO.C,D12*%
X129455085Y-125151580D02*
X129455085Y-124151580D01*
X129216990Y-124151580D01*
X129074133Y-124199200D01*
X128978895Y-124294438D01*
X128931276Y-124389676D01*
X128883657Y-124580152D01*
X128883657Y-124723009D01*
X128931276Y-124913485D01*
X128978895Y-125008723D01*
X129074133Y-125103961D01*
X129216990Y-125151580D01*
X129455085Y-125151580D01*
X127931276Y-125151580D02*
X128502704Y-125151580D01*
X128216990Y-125151580D02*
X128216990Y-124151580D01*
X128312228Y-124294438D01*
X128407466Y-124389676D01*
X128502704Y-124437295D01*
X127550323Y-124246819D02*
X127502704Y-124199200D01*
X127407466Y-124151580D01*
X127169371Y-124151580D01*
X127074133Y-124199200D01*
X127026514Y-124246819D01*
X126978895Y-124342057D01*
X126978895Y-124437295D01*
X127026514Y-124580152D01*
X127597942Y-125151580D01*
X126978895Y-125151580D01*
%TO.C,D7*%
X112042695Y-120291980D02*
X112042695Y-119291980D01*
X111804600Y-119291980D01*
X111661742Y-119339600D01*
X111566504Y-119434838D01*
X111518885Y-119530076D01*
X111471266Y-119720552D01*
X111471266Y-119863409D01*
X111518885Y-120053885D01*
X111566504Y-120149123D01*
X111661742Y-120244361D01*
X111804600Y-120291980D01*
X112042695Y-120291980D01*
X111137933Y-119291980D02*
X110471266Y-119291980D01*
X110899838Y-120291980D01*
%TO.C,D18*%
X178467785Y-101926980D02*
X178467785Y-100926980D01*
X178229690Y-100926980D01*
X178086833Y-100974600D01*
X177991595Y-101069838D01*
X177943976Y-101165076D01*
X177896357Y-101355552D01*
X177896357Y-101498409D01*
X177943976Y-101688885D01*
X177991595Y-101784123D01*
X178086833Y-101879361D01*
X178229690Y-101926980D01*
X178467785Y-101926980D01*
X176943976Y-101926980D02*
X177515404Y-101926980D01*
X177229690Y-101926980D02*
X177229690Y-100926980D01*
X177324928Y-101069838D01*
X177420166Y-101165076D01*
X177515404Y-101212695D01*
X176372547Y-101355552D02*
X176467785Y-101307933D01*
X176515404Y-101260314D01*
X176563023Y-101165076D01*
X176563023Y-101117457D01*
X176515404Y-101022219D01*
X176467785Y-100974600D01*
X176372547Y-100926980D01*
X176182071Y-100926980D01*
X176086833Y-100974600D01*
X176039214Y-101022219D01*
X175991595Y-101117457D01*
X175991595Y-101165076D01*
X176039214Y-101260314D01*
X176086833Y-101307933D01*
X176182071Y-101355552D01*
X176372547Y-101355552D01*
X176467785Y-101403171D01*
X176515404Y-101450790D01*
X176563023Y-101546028D01*
X176563023Y-101736504D01*
X176515404Y-101831742D01*
X176467785Y-101879361D01*
X176372547Y-101926980D01*
X176182071Y-101926980D01*
X176086833Y-101879361D01*
X176039214Y-101831742D01*
X175991595Y-101736504D01*
X175991595Y-101546028D01*
X176039214Y-101450790D01*
X176086833Y-101403171D01*
X176182071Y-101355552D01*
%TO.C,D9*%
X129802095Y-82553980D02*
X129802095Y-81553980D01*
X129564000Y-81553980D01*
X129421142Y-81601600D01*
X129325904Y-81696838D01*
X129278285Y-81792076D01*
X129230666Y-81982552D01*
X129230666Y-82125409D01*
X129278285Y-82315885D01*
X129325904Y-82411123D01*
X129421142Y-82506361D01*
X129564000Y-82553980D01*
X129802095Y-82553980D01*
X128754476Y-82553980D02*
X128564000Y-82553980D01*
X128468761Y-82506361D01*
X128421142Y-82458742D01*
X128325904Y-82315885D01*
X128278285Y-82125409D01*
X128278285Y-81744457D01*
X128325904Y-81649219D01*
X128373523Y-81601600D01*
X128468761Y-81553980D01*
X128659238Y-81553980D01*
X128754476Y-81601600D01*
X128802095Y-81649219D01*
X128849714Y-81744457D01*
X128849714Y-81982552D01*
X128802095Y-82077790D01*
X128754476Y-82125409D01*
X128659238Y-82173028D01*
X128468761Y-82173028D01*
X128373523Y-82125409D01*
X128325904Y-82077790D01*
X128278285Y-81982552D01*
%TO.C,D13*%
X149401285Y-82553980D02*
X149401285Y-81553980D01*
X149163190Y-81553980D01*
X149020333Y-81601600D01*
X148925095Y-81696838D01*
X148877476Y-81792076D01*
X148829857Y-81982552D01*
X148829857Y-82125409D01*
X148877476Y-82315885D01*
X148925095Y-82411123D01*
X149020333Y-82506361D01*
X149163190Y-82553980D01*
X149401285Y-82553980D01*
X147877476Y-82553980D02*
X148448904Y-82553980D01*
X148163190Y-82553980D02*
X148163190Y-81553980D01*
X148258428Y-81696838D01*
X148353666Y-81792076D01*
X148448904Y-81839695D01*
X147544142Y-81553980D02*
X146925095Y-81553980D01*
X147258428Y-81934933D01*
X147115571Y-81934933D01*
X147020333Y-81982552D01*
X146972714Y-82030171D01*
X146925095Y-82125409D01*
X146925095Y-82363504D01*
X146972714Y-82458742D01*
X147020333Y-82506361D01*
X147115571Y-82553980D01*
X147401285Y-82553980D01*
X147496523Y-82506361D01*
X147544142Y-82458742D01*
%TO.C,P4*%
X171203880Y-67714904D02*
X170203880Y-67714904D01*
X170203880Y-68095857D01*
X170251500Y-68191095D01*
X170299119Y-68238714D01*
X170394357Y-68286333D01*
X170537214Y-68286333D01*
X170632452Y-68238714D01*
X170680071Y-68191095D01*
X170727690Y-68095857D01*
X170727690Y-67714904D01*
X170537214Y-69143476D02*
X171203880Y-69143476D01*
X170156261Y-68905380D02*
X170870547Y-68667285D01*
X170870547Y-69286333D01*
%TO.C,D1*%
X90313795Y-82439680D02*
X90313795Y-81439680D01*
X90075700Y-81439680D01*
X89932842Y-81487300D01*
X89837604Y-81582538D01*
X89789985Y-81677776D01*
X89742366Y-81868252D01*
X89742366Y-82011109D01*
X89789985Y-82201585D01*
X89837604Y-82296823D01*
X89932842Y-82392061D01*
X90075700Y-82439680D01*
X90313795Y-82439680D01*
X88789985Y-82439680D02*
X89361414Y-82439680D01*
X89075700Y-82439680D02*
X89075700Y-81439680D01*
X89170938Y-81582538D01*
X89266176Y-81677776D01*
X89361414Y-81725395D01*
%TO.C,D2*%
X90351895Y-101439680D02*
X90351895Y-100439680D01*
X90113800Y-100439680D01*
X89970942Y-100487300D01*
X89875704Y-100582538D01*
X89828085Y-100677776D01*
X89780466Y-100868252D01*
X89780466Y-101011109D01*
X89828085Y-101201585D01*
X89875704Y-101296823D01*
X89970942Y-101392061D01*
X90113800Y-101439680D01*
X90351895Y-101439680D01*
X89399514Y-100534919D02*
X89351895Y-100487300D01*
X89256657Y-100439680D01*
X89018561Y-100439680D01*
X88923323Y-100487300D01*
X88875704Y-100534919D01*
X88828085Y-100630157D01*
X88828085Y-100725395D01*
X88875704Y-100868252D01*
X89447133Y-101439680D01*
X88828085Y-101439680D01*
%TO.C,D3*%
X88991595Y-120676980D02*
X88991595Y-119676980D01*
X88753500Y-119676980D01*
X88610642Y-119724600D01*
X88515404Y-119819838D01*
X88467785Y-119915076D01*
X88420166Y-120105552D01*
X88420166Y-120248409D01*
X88467785Y-120438885D01*
X88515404Y-120534123D01*
X88610642Y-120629361D01*
X88753500Y-120676980D01*
X88991595Y-120676980D01*
X88086833Y-119676980D02*
X87467785Y-119676980D01*
X87801119Y-120057933D01*
X87658261Y-120057933D01*
X87563023Y-120105552D01*
X87515404Y-120153171D01*
X87467785Y-120248409D01*
X87467785Y-120486504D01*
X87515404Y-120581742D01*
X87563023Y-120629361D01*
X87658261Y-120676980D01*
X87943976Y-120676980D01*
X88039214Y-120629361D01*
X88086833Y-120581742D01*
%TO.C,D4*%
X89029695Y-125202380D02*
X89029695Y-124202380D01*
X88791600Y-124202380D01*
X88648742Y-124250000D01*
X88553504Y-124345238D01*
X88505885Y-124440476D01*
X88458266Y-124630952D01*
X88458266Y-124773809D01*
X88505885Y-124964285D01*
X88553504Y-125059523D01*
X88648742Y-125154761D01*
X88791600Y-125202380D01*
X89029695Y-125202380D01*
X87601123Y-124535714D02*
X87601123Y-125202380D01*
X87839219Y-124154761D02*
X88077314Y-124869047D01*
X87458266Y-124869047D01*
%TO.C,D5*%
X109097895Y-82439680D02*
X109097895Y-81439680D01*
X108859800Y-81439680D01*
X108716942Y-81487300D01*
X108621704Y-81582538D01*
X108574085Y-81677776D01*
X108526466Y-81868252D01*
X108526466Y-82011109D01*
X108574085Y-82201585D01*
X108621704Y-82296823D01*
X108716942Y-82392061D01*
X108859800Y-82439680D01*
X109097895Y-82439680D01*
X107621704Y-81439680D02*
X108097895Y-81439680D01*
X108145514Y-81915871D01*
X108097895Y-81868252D01*
X108002657Y-81820633D01*
X107764561Y-81820633D01*
X107669323Y-81868252D01*
X107621704Y-81915871D01*
X107574085Y-82011109D01*
X107574085Y-82249204D01*
X107621704Y-82344442D01*
X107669323Y-82392061D01*
X107764561Y-82439680D01*
X108002657Y-82439680D01*
X108097895Y-82392061D01*
X108145514Y-82344442D01*
%TO.C,D6*%
X109275695Y-101452380D02*
X109275695Y-100452380D01*
X109037600Y-100452380D01*
X108894742Y-100500000D01*
X108799504Y-100595238D01*
X108751885Y-100690476D01*
X108704266Y-100880952D01*
X108704266Y-101023809D01*
X108751885Y-101214285D01*
X108799504Y-101309523D01*
X108894742Y-101404761D01*
X109037600Y-101452380D01*
X109275695Y-101452380D01*
X107847123Y-100452380D02*
X108037600Y-100452380D01*
X108132838Y-100500000D01*
X108180457Y-100547619D01*
X108275695Y-100690476D01*
X108323314Y-100880952D01*
X108323314Y-101261904D01*
X108275695Y-101357142D01*
X108228076Y-101404761D01*
X108132838Y-101452380D01*
X107942361Y-101452380D01*
X107847123Y-101404761D01*
X107799504Y-101357142D01*
X107751885Y-101261904D01*
X107751885Y-101023809D01*
X107799504Y-100928571D01*
X107847123Y-100880952D01*
X107942361Y-100833333D01*
X108132838Y-100833333D01*
X108228076Y-100880952D01*
X108275695Y-100928571D01*
X108323314Y-101023809D01*
%TO.C,D8*%
X110877295Y-125151580D02*
X110877295Y-124151580D01*
X110639200Y-124151580D01*
X110496342Y-124199200D01*
X110401104Y-124294438D01*
X110353485Y-124389676D01*
X110305866Y-124580152D01*
X110305866Y-124723009D01*
X110353485Y-124913485D01*
X110401104Y-125008723D01*
X110496342Y-125103961D01*
X110639200Y-125151580D01*
X110877295Y-125151580D01*
X109734438Y-124580152D02*
X109829676Y-124532533D01*
X109877295Y-124484914D01*
X109924914Y-124389676D01*
X109924914Y-124342057D01*
X109877295Y-124246819D01*
X109829676Y-124199200D01*
X109734438Y-124151580D01*
X109543961Y-124151580D01*
X109448723Y-124199200D01*
X109401104Y-124246819D01*
X109353485Y-124342057D01*
X109353485Y-124389676D01*
X109401104Y-124484914D01*
X109448723Y-124532533D01*
X109543961Y-124580152D01*
X109734438Y-124580152D01*
X109829676Y-124627771D01*
X109877295Y-124675390D01*
X109924914Y-124770628D01*
X109924914Y-124961104D01*
X109877295Y-125056342D01*
X109829676Y-125103961D01*
X109734438Y-125151580D01*
X109543961Y-125151580D01*
X109448723Y-125103961D01*
X109401104Y-125056342D01*
X109353485Y-124961104D01*
X109353485Y-124770628D01*
X109401104Y-124675390D01*
X109448723Y-124627771D01*
X109543961Y-124580152D01*
%TO.C,D10*%
X116815680Y-96979014D02*
X115815680Y-96979014D01*
X115815680Y-97217109D01*
X115863300Y-97359966D01*
X115958538Y-97455204D01*
X116053776Y-97502823D01*
X116244252Y-97550442D01*
X116387109Y-97550442D01*
X116577585Y-97502823D01*
X116672823Y-97455204D01*
X116768061Y-97359966D01*
X116815680Y-97217109D01*
X116815680Y-96979014D01*
X116815680Y-98502823D02*
X116815680Y-97931395D01*
X116815680Y-98217109D02*
X115815680Y-98217109D01*
X115958538Y-98121871D01*
X116053776Y-98026633D01*
X116101395Y-97931395D01*
X115815680Y-99121871D02*
X115815680Y-99217109D01*
X115863300Y-99312347D01*
X115910919Y-99359966D01*
X116006157Y-99407585D01*
X116196633Y-99455204D01*
X116434728Y-99455204D01*
X116625204Y-99407585D01*
X116720442Y-99359966D01*
X116768061Y-99312347D01*
X116815680Y-99217109D01*
X116815680Y-99121871D01*
X116768061Y-99026633D01*
X116720442Y-98979014D01*
X116625204Y-98931395D01*
X116434728Y-98883776D01*
X116196633Y-98883776D01*
X116006157Y-98931395D01*
X115910919Y-98979014D01*
X115863300Y-99026633D01*
X115815680Y-99121871D01*
%TO.C,D11*%
X129778285Y-120965080D02*
X129778285Y-119965080D01*
X129540190Y-119965080D01*
X129397333Y-120012700D01*
X129302095Y-120107938D01*
X129254476Y-120203176D01*
X129206857Y-120393652D01*
X129206857Y-120536509D01*
X129254476Y-120726985D01*
X129302095Y-120822223D01*
X129397333Y-120917461D01*
X129540190Y-120965080D01*
X129778285Y-120965080D01*
X128254476Y-120965080D02*
X128825904Y-120965080D01*
X128540190Y-120965080D02*
X128540190Y-119965080D01*
X128635428Y-120107938D01*
X128730666Y-120203176D01*
X128825904Y-120250795D01*
X127302095Y-120965080D02*
X127873523Y-120965080D01*
X127587809Y-120965080D02*
X127587809Y-119965080D01*
X127683047Y-120107938D01*
X127778285Y-120203176D01*
X127873523Y-120250795D01*
%TO.C,D14*%
X166132285Y-101925580D02*
X166132285Y-100925580D01*
X165894190Y-100925580D01*
X165751333Y-100973200D01*
X165656095Y-101068438D01*
X165608476Y-101163676D01*
X165560857Y-101354152D01*
X165560857Y-101497009D01*
X165608476Y-101687485D01*
X165656095Y-101782723D01*
X165751333Y-101877961D01*
X165894190Y-101925580D01*
X166132285Y-101925580D01*
X164608476Y-101925580D02*
X165179904Y-101925580D01*
X164894190Y-101925580D02*
X164894190Y-100925580D01*
X164989428Y-101068438D01*
X165084666Y-101163676D01*
X165179904Y-101211295D01*
X163751333Y-101258914D02*
X163751333Y-101925580D01*
X163989428Y-100877961D02*
X164227523Y-101592247D01*
X163608476Y-101592247D01*
%TO.C,D15*%
X148799485Y-121030780D02*
X148799485Y-120030780D01*
X148561390Y-120030780D01*
X148418533Y-120078400D01*
X148323295Y-120173638D01*
X148275676Y-120268876D01*
X148228057Y-120459352D01*
X148228057Y-120602209D01*
X148275676Y-120792685D01*
X148323295Y-120887923D01*
X148418533Y-120983161D01*
X148561390Y-121030780D01*
X148799485Y-121030780D01*
X147275676Y-121030780D02*
X147847104Y-121030780D01*
X147561390Y-121030780D02*
X147561390Y-120030780D01*
X147656628Y-120173638D01*
X147751866Y-120268876D01*
X147847104Y-120316495D01*
X146370914Y-120030780D02*
X146847104Y-120030780D01*
X146894723Y-120506971D01*
X146847104Y-120459352D01*
X146751866Y-120411733D01*
X146513771Y-120411733D01*
X146418533Y-120459352D01*
X146370914Y-120506971D01*
X146323295Y-120602209D01*
X146323295Y-120840304D01*
X146370914Y-120935542D01*
X146418533Y-120983161D01*
X146513771Y-121030780D01*
X146751866Y-121030780D01*
X146847104Y-120983161D01*
X146894723Y-120935542D01*
%TO.C,D16*%
X148328085Y-125227780D02*
X148328085Y-124227780D01*
X148089990Y-124227780D01*
X147947133Y-124275400D01*
X147851895Y-124370638D01*
X147804276Y-124465876D01*
X147756657Y-124656352D01*
X147756657Y-124799209D01*
X147804276Y-124989685D01*
X147851895Y-125084923D01*
X147947133Y-125180161D01*
X148089990Y-125227780D01*
X148328085Y-125227780D01*
X146804276Y-125227780D02*
X147375704Y-125227780D01*
X147089990Y-125227780D02*
X147089990Y-124227780D01*
X147185228Y-124370638D01*
X147280466Y-124465876D01*
X147375704Y-124513495D01*
X145947133Y-124227780D02*
X146137609Y-124227780D01*
X146232847Y-124275400D01*
X146280466Y-124323019D01*
X146375704Y-124465876D01*
X146423323Y-124656352D01*
X146423323Y-125037304D01*
X146375704Y-125132542D01*
X146328085Y-125180161D01*
X146232847Y-125227780D01*
X146042371Y-125227780D01*
X145947133Y-125180161D01*
X145899514Y-125132542D01*
X145851895Y-125037304D01*
X145851895Y-124799209D01*
X145899514Y-124703971D01*
X145947133Y-124656352D01*
X146042371Y-124608733D01*
X146232847Y-124608733D01*
X146328085Y-124656352D01*
X146375704Y-124703971D01*
X146423323Y-124799209D01*
%TO.C,D17*%
X166754685Y-82706380D02*
X166754685Y-81706380D01*
X166516590Y-81706380D01*
X166373733Y-81754000D01*
X166278495Y-81849238D01*
X166230876Y-81944476D01*
X166183257Y-82134952D01*
X166183257Y-82277809D01*
X166230876Y-82468285D01*
X166278495Y-82563523D01*
X166373733Y-82658761D01*
X166516590Y-82706380D01*
X166754685Y-82706380D01*
X165230876Y-82706380D02*
X165802304Y-82706380D01*
X165516590Y-82706380D02*
X165516590Y-81706380D01*
X165611828Y-81849238D01*
X165707066Y-81944476D01*
X165802304Y-81992095D01*
X164897542Y-81706380D02*
X164230876Y-81706380D01*
X164659447Y-82706380D01*
%TO.C,D19*%
X166666985Y-120426980D02*
X166666985Y-119426980D01*
X166428890Y-119426980D01*
X166286033Y-119474600D01*
X166190795Y-119569838D01*
X166143176Y-119665076D01*
X166095557Y-119855552D01*
X166095557Y-119998409D01*
X166143176Y-120188885D01*
X166190795Y-120284123D01*
X166286033Y-120379361D01*
X166428890Y-120426980D01*
X166666985Y-120426980D01*
X165143176Y-120426980D02*
X165714604Y-120426980D01*
X165428890Y-120426980D02*
X165428890Y-119426980D01*
X165524128Y-119569838D01*
X165619366Y-119665076D01*
X165714604Y-119712695D01*
X164666985Y-120426980D02*
X164476509Y-120426980D01*
X164381271Y-120379361D01*
X164333652Y-120331742D01*
X164238414Y-120188885D01*
X164190795Y-119998409D01*
X164190795Y-119617457D01*
X164238414Y-119522219D01*
X164286033Y-119474600D01*
X164381271Y-119426980D01*
X164571747Y-119426980D01*
X164666985Y-119474600D01*
X164714604Y-119522219D01*
X164762223Y-119617457D01*
X164762223Y-119855552D01*
X164714604Y-119950790D01*
X164666985Y-119998409D01*
X164571747Y-120046028D01*
X164381271Y-120046028D01*
X164286033Y-119998409D01*
X164238414Y-119950790D01*
X164190795Y-119855552D01*
%TO.C,D20*%
X166324085Y-125176980D02*
X166324085Y-124176980D01*
X166085990Y-124176980D01*
X165943133Y-124224600D01*
X165847895Y-124319838D01*
X165800276Y-124415076D01*
X165752657Y-124605552D01*
X165752657Y-124748409D01*
X165800276Y-124938885D01*
X165847895Y-125034123D01*
X165943133Y-125129361D01*
X166085990Y-125176980D01*
X166324085Y-125176980D01*
X165371704Y-124272219D02*
X165324085Y-124224600D01*
X165228847Y-124176980D01*
X164990752Y-124176980D01*
X164895514Y-124224600D01*
X164847895Y-124272219D01*
X164800276Y-124367457D01*
X164800276Y-124462695D01*
X164847895Y-124605552D01*
X165419323Y-125176980D01*
X164800276Y-125176980D01*
X164181228Y-124176980D02*
X164085990Y-124176980D01*
X163990752Y-124224600D01*
X163943133Y-124272219D01*
X163895514Y-124367457D01*
X163847895Y-124557933D01*
X163847895Y-124796028D01*
X163895514Y-124986504D01*
X163943133Y-125081742D01*
X163990752Y-125129361D01*
X164085990Y-125176980D01*
X164181228Y-125176980D01*
X164276466Y-125129361D01*
X164324085Y-125081742D01*
X164371704Y-124986504D01*
X164419323Y-124796028D01*
X164419323Y-124557933D01*
X164371704Y-124367457D01*
X164324085Y-124272219D01*
X164276466Y-124224600D01*
X164181228Y-124176980D01*
%TO.C,D21*%
X188324085Y-82707180D02*
X188324085Y-81707180D01*
X188085990Y-81707180D01*
X187943133Y-81754800D01*
X187847895Y-81850038D01*
X187800276Y-81945276D01*
X187752657Y-82135752D01*
X187752657Y-82278609D01*
X187800276Y-82469085D01*
X187847895Y-82564323D01*
X187943133Y-82659561D01*
X188085990Y-82707180D01*
X188324085Y-82707180D01*
X187371704Y-81802419D02*
X187324085Y-81754800D01*
X187228847Y-81707180D01*
X186990752Y-81707180D01*
X186895514Y-81754800D01*
X186847895Y-81802419D01*
X186800276Y-81897657D01*
X186800276Y-81992895D01*
X186847895Y-82135752D01*
X187419323Y-82707180D01*
X186800276Y-82707180D01*
X185847895Y-82707180D02*
X186419323Y-82707180D01*
X186133609Y-82707180D02*
X186133609Y-81707180D01*
X186228847Y-81850038D01*
X186324085Y-81945276D01*
X186419323Y-81992895D01*
%TO.C,D22*%
X189203085Y-101905580D02*
X189203085Y-100905580D01*
X188964990Y-100905580D01*
X188822133Y-100953200D01*
X188726895Y-101048438D01*
X188679276Y-101143676D01*
X188631657Y-101334152D01*
X188631657Y-101477009D01*
X188679276Y-101667485D01*
X188726895Y-101762723D01*
X188822133Y-101857961D01*
X188964990Y-101905580D01*
X189203085Y-101905580D01*
X188250704Y-101000819D02*
X188203085Y-100953200D01*
X188107847Y-100905580D01*
X187869752Y-100905580D01*
X187774514Y-100953200D01*
X187726895Y-101000819D01*
X187679276Y-101096057D01*
X187679276Y-101191295D01*
X187726895Y-101334152D01*
X188298323Y-101905580D01*
X187679276Y-101905580D01*
X187298323Y-101000819D02*
X187250704Y-100953200D01*
X187155466Y-100905580D01*
X186917371Y-100905580D01*
X186822133Y-100953200D01*
X186774514Y-101000819D01*
X186726895Y-101096057D01*
X186726895Y-101191295D01*
X186774514Y-101334152D01*
X187345942Y-101905580D01*
X186726895Y-101905580D01*
%TO.C,D23*%
X187684685Y-121153980D02*
X187684685Y-120153980D01*
X187446590Y-120153980D01*
X187303733Y-120201600D01*
X187208495Y-120296838D01*
X187160876Y-120392076D01*
X187113257Y-120582552D01*
X187113257Y-120725409D01*
X187160876Y-120915885D01*
X187208495Y-121011123D01*
X187303733Y-121106361D01*
X187446590Y-121153980D01*
X187684685Y-121153980D01*
X186732304Y-120249219D02*
X186684685Y-120201600D01*
X186589447Y-120153980D01*
X186351352Y-120153980D01*
X186256114Y-120201600D01*
X186208495Y-120249219D01*
X186160876Y-120344457D01*
X186160876Y-120439695D01*
X186208495Y-120582552D01*
X186779923Y-121153980D01*
X186160876Y-121153980D01*
X185827542Y-120153980D02*
X185208495Y-120153980D01*
X185541828Y-120534933D01*
X185398971Y-120534933D01*
X185303733Y-120582552D01*
X185256114Y-120630171D01*
X185208495Y-120725409D01*
X185208495Y-120963504D01*
X185256114Y-121058742D01*
X185303733Y-121106361D01*
X185398971Y-121153980D01*
X185684685Y-121153980D01*
X185779923Y-121106361D01*
X185827542Y-121058742D01*
%TO.C,D24*%
X187778685Y-125204780D02*
X187778685Y-124204780D01*
X187540590Y-124204780D01*
X187397733Y-124252400D01*
X187302495Y-124347638D01*
X187254876Y-124442876D01*
X187207257Y-124633352D01*
X187207257Y-124776209D01*
X187254876Y-124966685D01*
X187302495Y-125061923D01*
X187397733Y-125157161D01*
X187540590Y-125204780D01*
X187778685Y-125204780D01*
X186826304Y-124300019D02*
X186778685Y-124252400D01*
X186683447Y-124204780D01*
X186445352Y-124204780D01*
X186350114Y-124252400D01*
X186302495Y-124300019D01*
X186254876Y-124395257D01*
X186254876Y-124490495D01*
X186302495Y-124633352D01*
X186873923Y-125204780D01*
X186254876Y-125204780D01*
X185397733Y-124538114D02*
X185397733Y-125204780D01*
X185635828Y-124157161D02*
X185873923Y-124871447D01*
X185254876Y-124871447D01*
%TO.C,P3*%
X100209523Y-105852380D02*
X99971428Y-106852380D01*
X99780952Y-106138095D01*
X99590476Y-106852380D01*
X99352380Y-105852380D01*
X99019047Y-106804761D02*
X98876190Y-106852380D01*
X98638095Y-106852380D01*
X98542857Y-106804761D01*
X98495238Y-106757142D01*
X98447619Y-106661904D01*
X98447619Y-106566666D01*
X98495238Y-106471428D01*
X98542857Y-106423809D01*
X98638095Y-106376190D01*
X98828571Y-106328571D01*
X98923809Y-106280952D01*
X98971428Y-106233333D01*
X99019047Y-106138095D01*
X99019047Y-106042857D01*
X98971428Y-105947619D01*
X98923809Y-105900000D01*
X98828571Y-105852380D01*
X98590476Y-105852380D01*
X98447619Y-105900000D01*
X98066666Y-105947619D02*
X98019047Y-105900000D01*
X97923809Y-105852380D01*
X97685714Y-105852380D01*
X97590476Y-105900000D01*
X97542857Y-105947619D01*
X97495238Y-106042857D01*
X97495238Y-106138095D01*
X97542857Y-106280952D01*
X98114285Y-106852380D01*
X97495238Y-106852380D01*
X96923809Y-106280952D02*
X97019047Y-106233333D01*
X97066666Y-106185714D01*
X97114285Y-106090476D01*
X97114285Y-106042857D01*
X97066666Y-105947619D01*
X97019047Y-105900000D01*
X96923809Y-105852380D01*
X96733333Y-105852380D01*
X96638095Y-105900000D01*
X96590476Y-105947619D01*
X96542857Y-106042857D01*
X96542857Y-106090476D01*
X96590476Y-106185714D01*
X96638095Y-106233333D01*
X96733333Y-106280952D01*
X96923809Y-106280952D01*
X97019047Y-106328571D01*
X97066666Y-106376190D01*
X97114285Y-106471428D01*
X97114285Y-106661904D01*
X97066666Y-106757142D01*
X97019047Y-106804761D01*
X96923809Y-106852380D01*
X96733333Y-106852380D01*
X96638095Y-106804761D01*
X96590476Y-106757142D01*
X96542857Y-106661904D01*
X96542857Y-106471428D01*
X96590476Y-106376190D01*
X96638095Y-106328571D01*
X96733333Y-106280952D01*
X95590476Y-106852380D02*
X96161904Y-106852380D01*
X95876190Y-106852380D02*
X95876190Y-105852380D01*
X95971428Y-105995238D01*
X96066666Y-106090476D01*
X96161904Y-106138095D01*
X95209523Y-105947619D02*
X95161904Y-105900000D01*
X95066666Y-105852380D01*
X94828571Y-105852380D01*
X94733333Y-105900000D01*
X94685714Y-105947619D01*
X94638095Y-106042857D01*
X94638095Y-106138095D01*
X94685714Y-106280952D01*
X95257142Y-106852380D01*
X94638095Y-106852380D01*
%TO.C,R3*%
X139166666Y-104202380D02*
X139500000Y-103726190D01*
X139738095Y-104202380D02*
X139738095Y-103202380D01*
X139357142Y-103202380D01*
X139261904Y-103250000D01*
X139214285Y-103297619D01*
X139166666Y-103392857D01*
X139166666Y-103535714D01*
X139214285Y-103630952D01*
X139261904Y-103678571D01*
X139357142Y-103726190D01*
X139738095Y-103726190D01*
X138833333Y-103202380D02*
X138214285Y-103202380D01*
X138547619Y-103583333D01*
X138404761Y-103583333D01*
X138309523Y-103630952D01*
X138261904Y-103678571D01*
X138214285Y-103773809D01*
X138214285Y-104011904D01*
X138261904Y-104107142D01*
X138309523Y-104154761D01*
X138404761Y-104202380D01*
X138690476Y-104202380D01*
X138785714Y-104154761D01*
X138833333Y-104107142D01*
%TD*%
M02*
