%TF.GenerationSoftware,KiCad,Pcbnew,(2017-09-19 revision dddaa7e69)-makepkg*%
%TF.CreationDate,2017-10-17T20:10:02+02:00*%
%TF.ProjectId,lets_split,6C6574735F73706C69742E6B69636164,rev?*%
%TF.SameCoordinates,Original*%
%TF.FileFunction,Soldermask,Top*%
%TF.FilePolarity,Negative*%
%FSLAX46Y46*%
G04 Gerber Fmt 4.6, Leading zero omitted, Abs format (unit mm)*
G04 Created by KiCad (PCBNEW (2017-09-19 revision dddaa7e69)-makepkg) date 10/17/17 20:10:02*
%MOMM*%
%LPD*%
G01*
G04 APERTURE LIST*
%ADD10C,2.400000*%
%ADD11R,2.400000X2.400000*%
%ADD12C,1.600000*%
%ADD13C,4.400000*%
%ADD14C,2.100000*%
%ADD15C,3.400000*%
%ADD16R,2.950000X2.900000*%
%ADD17R,0.900000X2.700000*%
%ADD18R,2.400000X2.900000*%
%ADD19R,3.200000X3.200000*%
%ADD20R,3.200000X2.600000*%
%ADD21R,3.200000X2.400000*%
%ADD22R,1.900000X3.400000*%
%ADD23O,1.750000X1.750000*%
%ADD24R,1.750000X1.750000*%
%ADD25R,2.152600X2.152600*%
%ADD26C,2.152600*%
%ADD27C,8.400000*%
%ADD28C,2.000000*%
%ADD29O,2.000000X2.000000*%
%ADD30R,2.600000X2.600000*%
%ADD31O,2.600000X2.600000*%
%ADD32C,1.300000*%
G04 APERTURE END LIST*
D10*
%TO.C,J1*%
X138000000Y-120350000D03*
D11*
X138000000Y-112750000D03*
%TD*%
D12*
%TO.C,REF\002A\002A*%
X139600000Y-91000000D03*
%TD*%
D13*
%TO.C,SW1*%
X90500000Y-72850000D03*
D14*
X85420000Y-72850000D03*
D15*
X94310000Y-75390000D03*
X87960000Y-77930000D03*
D16*
X96590000Y-77930000D03*
D14*
X95580000Y-72850000D03*
D15*
X93040000Y-77930000D03*
X86690000Y-75390000D03*
D16*
X83140000Y-75390000D03*
%TD*%
D13*
%TO.C,SW5*%
X166700000Y-72850000D03*
D14*
X161620000Y-72850000D03*
D15*
X170510000Y-75390000D03*
X164160000Y-77930000D03*
D16*
X172790000Y-77930000D03*
D14*
X171780000Y-72850000D03*
D15*
X169240000Y-77930000D03*
X162890000Y-75390000D03*
D16*
X159340000Y-75390000D03*
%TD*%
D13*
%TO.C,SW3*%
X128600000Y-72850000D03*
D14*
X133680000Y-72850000D03*
D15*
X124790000Y-70310000D03*
X131140000Y-67770000D03*
D16*
X122510000Y-67770000D03*
D14*
X123520000Y-72850000D03*
D15*
X126060000Y-67770000D03*
X132410000Y-70310000D03*
D16*
X135960000Y-70310000D03*
%TD*%
D13*
%TO.C,SW12*%
X185750000Y-91900000D03*
D14*
X180670000Y-91900000D03*
D15*
X189560000Y-94440000D03*
X183210000Y-96980000D03*
D16*
X191840000Y-96980000D03*
D14*
X190830000Y-91900000D03*
D15*
X188290000Y-96980000D03*
X181940000Y-94440000D03*
D16*
X178390000Y-94440000D03*
%TD*%
D13*
%TO.C,SW2*%
X109550000Y-72850000D03*
D14*
X104470000Y-72850000D03*
D15*
X113360000Y-75390000D03*
X107010000Y-77930000D03*
D16*
X115640000Y-77930000D03*
D14*
X114630000Y-72850000D03*
D15*
X112090000Y-77930000D03*
X105740000Y-75390000D03*
D16*
X102190000Y-75390000D03*
%TD*%
D13*
%TO.C,SW4*%
X147650000Y-72850000D03*
D14*
X152730000Y-72850000D03*
D15*
X143840000Y-70310000D03*
X150190000Y-67770000D03*
D16*
X141560000Y-67770000D03*
D14*
X142570000Y-72850000D03*
D15*
X145110000Y-67770000D03*
X151460000Y-70310000D03*
D16*
X155010000Y-70310000D03*
%TD*%
D13*
%TO.C,SW6*%
X185750000Y-72850000D03*
D14*
X180670000Y-72850000D03*
D15*
X189560000Y-75390000D03*
X183210000Y-77930000D03*
D16*
X191840000Y-77930000D03*
D14*
X190830000Y-72850000D03*
D15*
X188290000Y-77930000D03*
X181940000Y-75390000D03*
D16*
X178390000Y-75390000D03*
%TD*%
D13*
%TO.C,SW7*%
X90500000Y-91900000D03*
D14*
X85420000Y-91900000D03*
D15*
X94310000Y-94440000D03*
X87960000Y-96980000D03*
D16*
X96590000Y-96980000D03*
D14*
X95580000Y-91900000D03*
D15*
X93040000Y-96980000D03*
X86690000Y-94440000D03*
D16*
X83140000Y-94440000D03*
%TD*%
D13*
%TO.C,SW8*%
X109550000Y-91900000D03*
D14*
X114630000Y-91900000D03*
D15*
X105740000Y-89360000D03*
X112090000Y-86820000D03*
D16*
X103460000Y-86820000D03*
D14*
X104470000Y-91900000D03*
D15*
X107010000Y-86820000D03*
X113360000Y-89360000D03*
D16*
X116910000Y-89360000D03*
%TD*%
D13*
%TO.C,SW9*%
X128600000Y-91900000D03*
D14*
X123520000Y-91900000D03*
D15*
X132410000Y-94440000D03*
X126060000Y-96980000D03*
D16*
X134690000Y-96980000D03*
D14*
X133680000Y-91900000D03*
D15*
X131140000Y-96980000D03*
X124790000Y-94440000D03*
D16*
X121240000Y-94440000D03*
%TD*%
D13*
%TO.C,SW10*%
X147650000Y-91900000D03*
D14*
X142570000Y-91900000D03*
D15*
X151460000Y-94440000D03*
X145110000Y-96980000D03*
D16*
X153740000Y-96980000D03*
D14*
X152730000Y-91900000D03*
D15*
X150190000Y-96980000D03*
X143840000Y-94440000D03*
D16*
X140290000Y-94440000D03*
%TD*%
D13*
%TO.C,SW11*%
X166700000Y-91900000D03*
D14*
X161620000Y-91900000D03*
D15*
X170510000Y-94440000D03*
X164160000Y-96980000D03*
D16*
X172790000Y-96980000D03*
D14*
X171780000Y-91900000D03*
D15*
X169240000Y-96980000D03*
X162890000Y-94440000D03*
D16*
X159340000Y-94440000D03*
%TD*%
D13*
%TO.C,SW13*%
X90500000Y-110950000D03*
D14*
X85420000Y-110950000D03*
D15*
X94310000Y-113490000D03*
X87960000Y-116030000D03*
D16*
X96590000Y-116030000D03*
D14*
X95580000Y-110950000D03*
D15*
X93040000Y-116030000D03*
X86690000Y-113490000D03*
D16*
X83140000Y-113490000D03*
%TD*%
D13*
%TO.C,SW14*%
X109550000Y-110950000D03*
D14*
X114630000Y-110950000D03*
D15*
X105740000Y-108410000D03*
X112090000Y-105870000D03*
D16*
X103460000Y-105870000D03*
D14*
X104470000Y-110950000D03*
D15*
X107010000Y-105870000D03*
X113360000Y-108410000D03*
D16*
X116910000Y-108410000D03*
%TD*%
D13*
%TO.C,SW15*%
X128600000Y-110950000D03*
D14*
X133680000Y-110950000D03*
D15*
X124790000Y-108410000D03*
X131140000Y-105870000D03*
D16*
X122510000Y-105870000D03*
D14*
X123520000Y-110950000D03*
D15*
X126060000Y-105870000D03*
X132410000Y-108410000D03*
D16*
X135960000Y-108410000D03*
%TD*%
D13*
%TO.C,SW16*%
X147650000Y-110950000D03*
D14*
X152730000Y-110950000D03*
D15*
X143840000Y-108410000D03*
X150190000Y-105870000D03*
D16*
X141560000Y-105870000D03*
D14*
X142570000Y-110950000D03*
D15*
X145110000Y-105870000D03*
X151460000Y-108410000D03*
D16*
X155010000Y-108410000D03*
%TD*%
D13*
%TO.C,SW17*%
X166700000Y-110950000D03*
D14*
X161620000Y-110950000D03*
D15*
X170510000Y-113490000D03*
X164160000Y-116030000D03*
D16*
X172790000Y-116030000D03*
D14*
X171780000Y-110950000D03*
D15*
X169240000Y-116030000D03*
X162890000Y-113490000D03*
D16*
X159340000Y-113490000D03*
%TD*%
D13*
%TO.C,SW18*%
X185750000Y-110950000D03*
D14*
X190830000Y-110950000D03*
D15*
X181940000Y-108410000D03*
X188290000Y-105870000D03*
D16*
X179660000Y-105870000D03*
D14*
X180670000Y-110950000D03*
D15*
X183210000Y-105870000D03*
X189560000Y-108410000D03*
D16*
X193110000Y-108410000D03*
%TD*%
D13*
%TO.C,SW19*%
X90500000Y-130000000D03*
D14*
X85420000Y-130000000D03*
D15*
X94310000Y-132540000D03*
X87960000Y-135080000D03*
D16*
X96590000Y-135080000D03*
D14*
X95580000Y-130000000D03*
D15*
X93040000Y-135080000D03*
X86690000Y-132540000D03*
D16*
X83140000Y-132540000D03*
%TD*%
D13*
%TO.C,SW20*%
X109550000Y-130000000D03*
D14*
X104470000Y-130000000D03*
D15*
X113360000Y-132540000D03*
X107010000Y-135080000D03*
D16*
X115640000Y-135080000D03*
D14*
X114630000Y-130000000D03*
D15*
X112090000Y-135080000D03*
X105740000Y-132540000D03*
D16*
X102190000Y-132540000D03*
%TD*%
D13*
%TO.C,SW21*%
X128600000Y-130000000D03*
D14*
X123520000Y-130000000D03*
D15*
X132410000Y-132540000D03*
X126060000Y-135080000D03*
D16*
X134690000Y-135080000D03*
D14*
X133680000Y-130000000D03*
D15*
X131140000Y-135080000D03*
X124790000Y-132540000D03*
D16*
X121240000Y-132540000D03*
%TD*%
D13*
%TO.C,SW22*%
X147650000Y-130000000D03*
D14*
X142570000Y-130000000D03*
D15*
X151460000Y-132540000D03*
X145110000Y-135080000D03*
D16*
X153740000Y-135080000D03*
D14*
X152730000Y-130000000D03*
D15*
X150190000Y-135080000D03*
X143840000Y-132540000D03*
D16*
X140290000Y-132540000D03*
%TD*%
D13*
%TO.C,SW23*%
X166700000Y-130000000D03*
D14*
X161620000Y-130000000D03*
D15*
X170510000Y-132540000D03*
X164160000Y-135080000D03*
D16*
X172790000Y-135080000D03*
D14*
X171780000Y-130000000D03*
D15*
X169240000Y-135080000D03*
X162890000Y-132540000D03*
D16*
X159340000Y-132540000D03*
%TD*%
D13*
%TO.C,SW24*%
X185750000Y-130000000D03*
D14*
X180670000Y-130000000D03*
D15*
X189560000Y-132540000D03*
X183210000Y-135080000D03*
D16*
X191840000Y-135080000D03*
D14*
X190830000Y-130000000D03*
D15*
X188290000Y-135080000D03*
X181940000Y-132540000D03*
D16*
X178390000Y-132540000D03*
%TD*%
D17*
%TO.C,P2*%
X109050000Y-63850000D03*
X109850000Y-63850000D03*
X110650000Y-63850000D03*
X111450000Y-63850000D03*
X112250000Y-63850000D03*
D18*
X115100000Y-58250000D03*
X106200000Y-58250000D03*
X106200000Y-63750000D03*
X115100000Y-63750000D03*
%TD*%
D19*
%TO.C,P4*%
X171242500Y-70328000D03*
D20*
X171242500Y-60928000D03*
X178642500Y-62828000D03*
D21*
X178642500Y-60028000D03*
X171242500Y-58128000D03*
%TD*%
D22*
%TO.C,P3*%
X93040000Y-106250000D03*
X90500000Y-106250000D03*
X87960000Y-106250000D03*
%TD*%
D23*
%TO.C,P1*%
X106850000Y-69100000D03*
X108850000Y-69100000D03*
X110850000Y-69100000D03*
D24*
X112850000Y-69100000D03*
%TD*%
D12*
%TO.C,REF\002A\002A*%
X118600000Y-80200000D03*
%TD*%
%TO.C,REF\002A\002A*%
X188000000Y-117500000D03*
%TD*%
%TO.C,REF\002A\002A*%
X154500000Y-116750000D03*
%TD*%
%TO.C,REF\002A\002A*%
X182250000Y-117000000D03*
%TD*%
%TO.C,REF\002A\002A*%
X164250000Y-106500000D03*
%TD*%
%TO.C,REF\002A\002A*%
X119500000Y-118250000D03*
%TD*%
%TO.C,REF\002A\002A*%
X146000000Y-116800000D03*
%TD*%
%TO.C,REF\002A\002A*%
X187000000Y-85250000D03*
%TD*%
%TO.C,REF\002A\002A*%
X176250000Y-89000000D03*
%TD*%
%TO.C,REF\002A\002A*%
X150750000Y-74250000D03*
%TD*%
%TO.C,REF\002A\002A*%
X88250000Y-122000000D03*
%TD*%
%TO.C,REF\002A\002A*%
X85000000Y-106500000D03*
%TD*%
%TO.C,REF\002A\002A*%
X90250000Y-86000000D03*
%TD*%
D25*
%TO.C,U1*%
X128780000Y-101370000D03*
D26*
X131320000Y-101370000D03*
X133860000Y-101370000D03*
X136400000Y-101370000D03*
X138940000Y-101370000D03*
X141480000Y-101370000D03*
X144020000Y-101370000D03*
X146560000Y-101370000D03*
X149100000Y-101370000D03*
X151640000Y-101370000D03*
X154180000Y-101370000D03*
X156720000Y-101370000D03*
X156720000Y-86130000D03*
X154180000Y-86130000D03*
X151640000Y-86130000D03*
X149100000Y-86130000D03*
X146560000Y-86130000D03*
X144020000Y-86130000D03*
X141480000Y-86130000D03*
X133860000Y-86130000D03*
X131320000Y-86130000D03*
X128780000Y-86130000D03*
X138940000Y-86130000D03*
X136400000Y-86130000D03*
%TD*%
D27*
%TO.C,REF\002A\002A*%
X99991000Y-120488000D03*
%TD*%
%TO.C,REF\002A\002A*%
X176350000Y-120550000D03*
%TD*%
%TO.C,REF\002A\002A*%
X176200000Y-82450000D03*
%TD*%
D28*
%TO.C,R2*%
X156800000Y-67800000D03*
D29*
X156800000Y-77960000D03*
%TD*%
%TO.C,R1*%
X169160000Y-67800000D03*
D28*
X159000000Y-67800000D03*
%TD*%
D30*
%TO.C,D12*%
X132000000Y-124750000D03*
D31*
X124380000Y-124750000D03*
%TD*%
D30*
%TO.C,D7*%
X106250000Y-120500000D03*
D31*
X113870000Y-120500000D03*
%TD*%
D30*
%TO.C,D18*%
X181000000Y-101500000D03*
D31*
X173380000Y-101500000D03*
%TD*%
D30*
%TO.C,D9*%
X125000000Y-82000000D03*
D31*
X132620000Y-82000000D03*
%TD*%
D30*
%TO.C,D13*%
X144250000Y-82000000D03*
D31*
X151870000Y-82000000D03*
%TD*%
D14*
%TO.C,P4*%
X174942500Y-69028000D03*
X174942500Y-62028000D03*
%TD*%
D32*
%TO.C,P2*%
X108450000Y-61250000D03*
X112850000Y-61250000D03*
%TD*%
D30*
%TO.C,D1*%
X93500000Y-82000000D03*
D31*
X85880000Y-82000000D03*
%TD*%
D30*
%TO.C,D2*%
X93500000Y-101000000D03*
D31*
X85880000Y-101000000D03*
%TD*%
D30*
%TO.C,D3*%
X92000000Y-120250000D03*
D31*
X84380000Y-120250000D03*
%TD*%
D30*
%TO.C,D4*%
X92000000Y-124750000D03*
D31*
X84380000Y-124750000D03*
%TD*%
D30*
%TO.C,D5*%
X112500000Y-82000000D03*
D31*
X104880000Y-82000000D03*
%TD*%
D30*
%TO.C,D6*%
X112500000Y-101000000D03*
D31*
X104880000Y-101000000D03*
%TD*%
D30*
%TO.C,D8*%
X114000000Y-124750000D03*
D31*
X106380000Y-124750000D03*
%TD*%
D30*
%TO.C,D10*%
X124250000Y-101000000D03*
D31*
X116630000Y-101000000D03*
%TD*%
D30*
%TO.C,D11*%
X124500000Y-120500000D03*
D31*
X132120000Y-120500000D03*
%TD*%
D30*
%TO.C,D14*%
X169000000Y-101500000D03*
D31*
X161380000Y-101500000D03*
%TD*%
D30*
%TO.C,D15*%
X143250000Y-120500000D03*
D31*
X150870000Y-120500000D03*
%TD*%
D30*
%TO.C,D16*%
X151000000Y-124750000D03*
D31*
X143380000Y-124750000D03*
%TD*%
D30*
%TO.C,D17*%
X169500000Y-82250000D03*
D31*
X161880000Y-82250000D03*
%TD*%
D30*
%TO.C,D19*%
X169250000Y-120000000D03*
D31*
X161630000Y-120000000D03*
%TD*%
D30*
%TO.C,D20*%
X169250000Y-124750000D03*
D31*
X161630000Y-124750000D03*
%TD*%
D30*
%TO.C,D21*%
X191250000Y-82250000D03*
D31*
X183630000Y-82250000D03*
%TD*%
D30*
%TO.C,D22*%
X192250000Y-101500000D03*
D31*
X184630000Y-101500000D03*
%TD*%
D30*
%TO.C,D23*%
X190500000Y-120750000D03*
D31*
X182880000Y-120750000D03*
%TD*%
D30*
%TO.C,D24*%
X190500000Y-124750000D03*
D31*
X182880000Y-124750000D03*
%TD*%
M02*
