G04 #@! TF.FileFunction,Copper,L2,Bot,Signal*
%FSLAX46Y46*%
G04 Gerber Fmt 4.6, Leading zero omitted, Abs format (unit mm)*
G04 Created by KiCad (PCBNEW 4.0.1-stable) date 10-10-2017 08:31:20*
%MOMM*%
G01*
G04 APERTURE LIST*
%ADD10C,0.100000*%
%ADD11R,1.500000X1.000000*%
%ADD12R,2.500000X1.200000*%
%ADD13C,1.600000*%
%ADD14O,1.600000X1.600000*%
%ADD15C,1.998980*%
%ADD16R,1.998980X1.998980*%
%ADD17R,1.524000X1.524000*%
%ADD18C,1.524000*%
%ADD19R,2.550000X2.500000*%
%ADD20R,2.500000X2.550000*%
%ADD21R,1.752600X1.752600*%
%ADD22C,1.752600*%
%ADD23C,0.800000*%
%ADD24C,0.406400*%
%ADD25C,0.203200*%
G04 APERTURE END LIST*
D10*
D11*
X215616000Y-78213000D03*
X215616000Y-79483000D03*
D12*
X248105000Y-69565000D03*
X241605000Y-68465000D03*
X241605000Y-64465000D03*
X241605000Y-61465000D03*
D13*
X216759000Y-81388000D03*
D14*
X226919000Y-81388000D03*
D13*
X214346000Y-81388000D03*
D14*
X204186000Y-81388000D03*
D15*
X244823460Y-102840000D03*
D16*
X244823460Y-113000000D03*
D15*
X169007000Y-103613000D03*
D16*
X169007000Y-113773000D03*
D15*
X153790000Y-81352540D03*
D16*
X163950000Y-81352540D03*
D15*
X182596000Y-80882540D03*
D16*
X192756000Y-80882540D03*
D15*
X205456000Y-67037000D03*
D16*
X205456000Y-77197000D03*
D15*
X225197460Y-67090000D03*
D16*
X225197460Y-77250000D03*
D15*
X238000000Y-81250000D03*
D16*
X229750000Y-81297460D03*
D15*
X259060000Y-81247460D03*
D16*
X250500000Y-81250000D03*
D15*
X243244380Y-88967000D03*
D16*
X243291840Y-97517000D03*
D15*
X225247460Y-86140000D03*
D16*
X225247460Y-96300000D03*
D15*
X205453460Y-85960000D03*
D16*
X205453460Y-96120000D03*
D15*
X182860000Y-100447460D03*
D16*
X172700000Y-100447460D03*
D15*
X167356000Y-124949000D03*
D16*
X167356000Y-135109000D03*
D15*
X152890000Y-100402540D03*
D16*
X163050000Y-100402540D03*
D15*
X187047460Y-104790000D03*
D16*
X187047460Y-114950000D03*
D15*
X205453460Y-105264000D03*
D16*
X205453460Y-115424000D03*
D15*
X225297460Y-105240000D03*
D16*
X225297460Y-115400000D03*
D15*
X258760000Y-100347460D03*
D16*
X248600000Y-100347460D03*
D15*
X238410000Y-119497460D03*
D16*
X228250000Y-119497460D03*
D15*
X224506000Y-125076000D03*
D16*
X224506000Y-135236000D03*
D15*
X205453460Y-124949000D03*
D16*
X205453460Y-135109000D03*
D15*
X186406000Y-124949000D03*
D16*
X186406000Y-135109000D03*
D15*
X243553460Y-125076000D03*
D16*
X243553460Y-135236000D03*
D17*
X238222000Y-66846000D03*
X238222000Y-64846000D03*
X238222000Y-62846000D03*
D18*
X238232000Y-64856000D03*
X238212000Y-62846000D03*
X238232000Y-66856000D03*
D17*
X251186000Y-66846000D03*
X251186000Y-64846000D03*
X251186000Y-62846000D03*
D18*
X251196000Y-64856000D03*
X251176000Y-62846000D03*
X251196000Y-66856000D03*
D15*
X260160000Y-119497460D03*
D16*
X250000000Y-119497460D03*
D19*
X152410000Y-76930000D03*
X165860000Y-74390000D03*
D20*
X182630000Y-77940000D03*
X180090000Y-64490000D03*
D19*
X202690000Y-66770000D03*
X189240000Y-69310000D03*
X221740000Y-66770000D03*
X208290000Y-69310000D03*
X228610000Y-76930000D03*
X242060000Y-74390000D03*
X247660000Y-76930000D03*
X261110000Y-74390000D03*
X202690000Y-85820000D03*
X189240000Y-88360000D03*
X221740000Y-85820000D03*
X208290000Y-88360000D03*
X228610000Y-95980000D03*
X242060000Y-93440000D03*
X247660000Y-95980000D03*
X261110000Y-93440000D03*
X152410000Y-115030000D03*
X165860000Y-112490000D03*
X183640000Y-104870000D03*
X170190000Y-107410000D03*
X202690000Y-104870000D03*
X189240000Y-107410000D03*
X221740000Y-104870000D03*
X208290000Y-107410000D03*
X228610000Y-115030000D03*
X242060000Y-112490000D03*
X247660000Y-115030000D03*
X261110000Y-112490000D03*
X152410000Y-134080000D03*
X165860000Y-131540000D03*
X171460000Y-134080000D03*
X184910000Y-131540000D03*
X190510000Y-134080000D03*
X203960000Y-131540000D03*
X209560000Y-134080000D03*
X223010000Y-131540000D03*
X228610000Y-134080000D03*
X242060000Y-131540000D03*
X247660000Y-134080000D03*
X261110000Y-131540000D03*
X152410000Y-95980000D03*
X165860000Y-93440000D03*
D20*
X182630000Y-96990000D03*
X180090000Y-83540000D03*
D21*
X170658000Y-63862000D03*
D22*
X170658000Y-66402000D03*
X170658000Y-68942000D03*
X170658000Y-71482000D03*
X170658000Y-74022000D03*
X170658000Y-76562000D03*
X170658000Y-79102000D03*
X170658000Y-81642000D03*
X170658000Y-84182000D03*
X170658000Y-86722000D03*
X170658000Y-89262000D03*
X170658000Y-91802000D03*
X185898000Y-91802000D03*
X185898000Y-89262000D03*
X185898000Y-86722000D03*
X185898000Y-84182000D03*
X185898000Y-81642000D03*
X185898000Y-79102000D03*
X185898000Y-76562000D03*
X185898000Y-68942000D03*
X185898000Y-66402000D03*
X185898000Y-63862000D03*
X185898000Y-74022000D03*
X185898000Y-71482000D03*
D21*
X126342000Y-63862000D03*
D22*
X126342000Y-66402000D03*
X126342000Y-68942000D03*
X126342000Y-71482000D03*
X126342000Y-74022000D03*
X126342000Y-76562000D03*
X126342000Y-79102000D03*
X126342000Y-81642000D03*
X126342000Y-84182000D03*
X126342000Y-86722000D03*
X126342000Y-89262000D03*
X126342000Y-91802000D03*
X111102000Y-91802000D03*
X111102000Y-89262000D03*
X111102000Y-86722000D03*
X111102000Y-84182000D03*
X111102000Y-81642000D03*
X111102000Y-79102000D03*
X111102000Y-76562000D03*
X111102000Y-68942000D03*
X111102000Y-66402000D03*
X111102000Y-63862000D03*
X111102000Y-74022000D03*
X111102000Y-71482000D03*
D15*
X36840000Y-119497460D03*
D16*
X47000000Y-119497460D03*
D17*
X45814000Y-66846000D03*
X45814000Y-64846000D03*
X45814000Y-62846000D03*
D18*
X45804000Y-64856000D03*
X45824000Y-62846000D03*
X45804000Y-66856000D03*
D17*
X58778000Y-66846000D03*
X58778000Y-64846000D03*
X58778000Y-62846000D03*
D18*
X58768000Y-64856000D03*
X58788000Y-62846000D03*
X58768000Y-66856000D03*
D15*
X53446540Y-125076000D03*
D16*
X53446540Y-135236000D03*
D15*
X110594000Y-124949000D03*
D16*
X110594000Y-135109000D03*
D15*
X91546540Y-124949000D03*
D16*
X91546540Y-135109000D03*
D15*
X72494000Y-125076000D03*
D16*
X72494000Y-135236000D03*
D15*
X58590000Y-119497460D03*
D16*
X68750000Y-119497460D03*
D15*
X38240000Y-100347460D03*
D16*
X48400000Y-100347460D03*
D15*
X71702540Y-105240000D03*
D16*
X71702540Y-115400000D03*
D15*
X91546540Y-105264000D03*
D16*
X91546540Y-115424000D03*
D15*
X109952540Y-104790000D03*
D16*
X109952540Y-114950000D03*
D15*
X144110000Y-100402540D03*
D16*
X133950000Y-100402540D03*
D15*
X129644000Y-124949000D03*
D16*
X129644000Y-135109000D03*
D15*
X114140000Y-100447460D03*
D16*
X124300000Y-100447460D03*
D15*
X91546540Y-85960000D03*
D16*
X91546540Y-96120000D03*
D15*
X71752540Y-86140000D03*
D16*
X71752540Y-96300000D03*
D15*
X53755620Y-88967000D03*
D16*
X53708160Y-97517000D03*
D15*
X37940000Y-81247460D03*
D16*
X46500000Y-81250000D03*
D15*
X59000000Y-81250000D03*
D16*
X67250000Y-81297460D03*
D15*
X71802540Y-67090000D03*
D16*
X71802540Y-77250000D03*
D15*
X91544000Y-67037000D03*
D16*
X91544000Y-77197000D03*
D15*
X114404000Y-80882540D03*
D16*
X104244000Y-80882540D03*
D15*
X143210000Y-81352540D03*
D16*
X133050000Y-81352540D03*
D15*
X127993000Y-103613000D03*
D16*
X127993000Y-113773000D03*
D15*
X52176540Y-102840000D03*
D16*
X52176540Y-113000000D03*
D13*
X82654000Y-81388000D03*
D14*
X92814000Y-81388000D03*
D13*
X80241000Y-81388000D03*
D14*
X70081000Y-81388000D03*
D23*
X155037000Y-112249000D03*
X141963000Y-112249000D03*
X154910000Y-131172000D03*
X142090000Y-131172000D03*
X230856000Y-131299000D03*
X66144000Y-131299000D03*
X222474000Y-69450000D03*
X74526000Y-69450000D03*
X225141000Y-70085000D03*
X71859000Y-70085000D03*
X208290000Y-93072000D03*
X88710000Y-93072000D03*
X244064000Y-91040000D03*
X52936000Y-91040000D03*
X259558000Y-96628000D03*
X37442000Y-96628000D03*
X222601000Y-76054000D03*
X74399000Y-76054000D03*
X239238000Y-68561000D03*
X206218000Y-74276000D03*
X90782000Y-74276000D03*
X57762000Y-68561000D03*
D24*
X152410000Y-79972540D02*
X153790000Y-81352540D01*
X152410000Y-76930000D02*
X152410000Y-79972540D01*
X113642000Y-79102000D02*
X112372000Y-80372000D01*
X126342000Y-79102000D02*
X113642000Y-79102000D01*
D25*
X112372000Y-80372000D02*
X109832000Y-80372000D01*
D24*
X105957230Y-80372000D02*
X109832000Y-80372000D01*
X133050000Y-81352540D02*
X130660000Y-81352540D01*
X126342000Y-79102000D02*
X127581275Y-79102000D01*
X129831815Y-81352540D02*
X130660000Y-81352540D01*
X127581275Y-79102000D02*
X129831815Y-81352540D01*
X105446690Y-80882540D02*
X104244000Y-80882540D01*
D25*
X105446690Y-80882540D02*
X105514000Y-80815230D01*
D24*
X105957230Y-80372000D02*
X105514000Y-80815230D01*
X101964350Y-77197000D02*
X104244000Y-79476650D01*
X104244000Y-79476650D02*
X104244000Y-80882540D01*
X101704000Y-77197000D02*
X91544000Y-77197000D01*
X101964350Y-77197000D02*
X101704000Y-77197000D01*
X91544000Y-77197000D02*
X71855540Y-77197000D01*
X71855540Y-77197000D02*
X71802540Y-77250000D01*
X49380000Y-86595000D02*
X46500000Y-83715000D01*
X46500000Y-83715000D02*
X46500000Y-81250000D01*
X63358350Y-86595000D02*
X49380000Y-86595000D01*
X67250000Y-81297460D02*
X67250000Y-82703350D01*
X67250000Y-82703350D02*
X63358350Y-86595000D01*
X67250000Y-81297460D02*
X67250000Y-79891570D01*
X67250000Y-79891570D02*
X69891570Y-77250000D01*
X69891570Y-77250000D02*
X71802540Y-77250000D01*
X152410000Y-99922540D02*
X152890000Y-100402540D01*
X152410000Y-95980000D02*
X152410000Y-99922540D01*
X124300000Y-100447460D02*
X124300000Y-99041570D01*
X124300000Y-99041570D02*
X122913000Y-97654570D01*
X122913000Y-97654570D02*
X122913000Y-83831725D01*
X122913000Y-83831725D02*
X125102725Y-81642000D01*
X126342000Y-81642000D02*
X125102725Y-81642000D01*
X125102725Y-81642000D02*
X124848725Y-81896000D01*
X104371000Y-101962000D02*
X98529000Y-96120000D01*
X98529000Y-96120000D02*
X92952430Y-96120000D01*
X121379570Y-101962000D02*
X104371000Y-101962000D01*
X124300000Y-100447460D02*
X122894110Y-100447460D01*
X122894110Y-100447460D02*
X121379570Y-101962000D01*
X53708160Y-97517000D02*
X49824570Y-97517000D01*
X49824570Y-97517000D02*
X48400000Y-98941570D01*
X48400000Y-98941570D02*
X48400000Y-100347460D01*
X70798430Y-98660000D02*
X56257050Y-98660000D01*
X56257050Y-98660000D02*
X55114050Y-97517000D01*
X55114050Y-97517000D02*
X53708160Y-97517000D01*
X71752540Y-96300000D02*
X71752540Y-97705890D01*
X71752540Y-97705890D02*
X70798430Y-98660000D01*
X91546540Y-96120000D02*
X71932540Y-96120000D01*
X71932540Y-96120000D02*
X71752540Y-96300000D01*
X92952430Y-96120000D02*
X91546540Y-96120000D01*
X133950000Y-100402540D02*
X124344920Y-100402540D01*
X124344920Y-100402540D02*
X124300000Y-100447460D01*
X152410000Y-113373600D02*
X153407600Y-112376000D01*
X152410000Y-115030000D02*
X152410000Y-113373600D01*
X154910000Y-112376000D02*
X155037000Y-112249000D01*
X153407600Y-112376000D02*
X154910000Y-112376000D01*
X141709000Y-107804000D02*
X137518000Y-103613000D01*
X137518000Y-103613000D02*
X127993000Y-103613000D01*
X141709000Y-111429315D02*
X141709000Y-107804000D01*
X141963000Y-112249000D02*
X141963000Y-111683315D01*
X141963000Y-111683315D02*
X141709000Y-111429315D01*
X169007000Y-110880278D02*
X169007000Y-113773000D01*
X166670189Y-99218811D02*
X166670189Y-108543467D01*
X167813190Y-98075810D02*
X166670189Y-99218811D01*
X167813190Y-88296810D02*
X167813190Y-98075810D01*
X166670189Y-108543467D02*
X169007000Y-110880278D01*
X167843915Y-88296810D02*
X167813190Y-88296810D01*
X169418725Y-86722000D02*
X167843915Y-88296810D01*
X170658000Y-86722000D02*
X169418725Y-86722000D01*
X127993000Y-113773000D02*
X111129540Y-113773000D01*
X111129540Y-113773000D02*
X109952540Y-114950000D01*
X109952540Y-114950000D02*
X92020540Y-114950000D01*
X92020540Y-114950000D02*
X91546540Y-115424000D01*
X91546540Y-115424000D02*
X71726540Y-115424000D01*
X71726540Y-115424000D02*
X71702540Y-115400000D01*
X71702540Y-115400000D02*
X70296650Y-115400000D01*
X70296650Y-115400000D02*
X68367650Y-117329000D01*
X57911430Y-117329000D02*
X68367650Y-117329000D01*
X52176540Y-113000000D02*
X53582430Y-113000000D01*
X53582430Y-113000000D02*
X57911430Y-117329000D01*
X43030000Y-117964000D02*
X44563460Y-119497460D01*
X44563460Y-119497460D02*
X47000000Y-119497460D01*
X43030000Y-114154000D02*
X43030000Y-117964000D01*
X44935000Y-112249000D02*
X43030000Y-114154000D01*
X50019650Y-112249000D02*
X44935000Y-112249000D01*
X52176540Y-113000000D02*
X50770650Y-113000000D01*
X50770650Y-113000000D02*
X50019650Y-112249000D01*
X152410000Y-133672000D02*
X154910000Y-131172000D01*
X152410000Y-134080000D02*
X152410000Y-133672000D01*
X142090000Y-131172000D02*
X141690001Y-130772001D01*
X141690001Y-130772001D02*
X141690001Y-127470001D01*
X141690001Y-127470001D02*
X139169000Y-124949000D01*
X139169000Y-124949000D02*
X129644000Y-124949000D01*
X168753000Y-91167000D02*
X170658000Y-89262000D01*
X168753000Y-98914000D02*
X168753000Y-91167000D01*
X167229000Y-100438000D02*
X168753000Y-98914000D01*
X173833000Y-114916000D02*
X167229000Y-108312000D01*
X167229000Y-108312000D02*
X167229000Y-100438000D01*
X173833000Y-123298000D02*
X173833000Y-114916000D01*
X168626000Y-132433110D02*
X168626000Y-128505000D01*
X167356000Y-133703110D02*
X168626000Y-132433110D01*
X168626000Y-128505000D02*
X173833000Y-123298000D01*
X167356000Y-135109000D02*
X167356000Y-133703110D01*
X70462000Y-134220000D02*
X70462000Y-134609890D01*
X70462000Y-134609890D02*
X71088110Y-135236000D01*
X71088110Y-135236000D02*
X72494000Y-135236000D01*
X70462000Y-131798110D02*
X70462000Y-134220000D01*
X70462000Y-122615350D02*
X70462000Y-131798110D01*
X68750000Y-119497460D02*
X68750000Y-120903350D01*
X68750000Y-120903350D02*
X70462000Y-122615350D01*
X71088110Y-135236000D02*
X53446540Y-135236000D01*
X91546540Y-135109000D02*
X72621000Y-135109000D01*
X72621000Y-135109000D02*
X72494000Y-135236000D01*
X110594000Y-135109000D02*
X109188110Y-135109000D01*
X109188110Y-135109000D02*
X91546540Y-135109000D01*
X129644000Y-135109000D02*
X110594000Y-135109000D01*
X182630000Y-80848540D02*
X182596000Y-80882540D01*
X182630000Y-77940000D02*
X182630000Y-80848540D01*
X182630000Y-100217460D02*
X182860000Y-100447460D01*
X182630000Y-96990000D02*
X182630000Y-100217460D01*
X186967460Y-104870000D02*
X187047460Y-104790000D01*
X183640000Y-104870000D02*
X186967460Y-104870000D01*
X186406000Y-124949000D02*
X176119000Y-124949000D01*
X176119000Y-124949000D02*
X174468000Y-126600000D01*
X171460000Y-132423600D02*
X171460000Y-134080000D01*
X174468000Y-129415600D02*
X171460000Y-132423600D01*
X174468000Y-126600000D02*
X174468000Y-129415600D01*
X202957000Y-67037000D02*
X202690000Y-66770000D01*
X205456000Y-67037000D02*
X202957000Y-67037000D01*
X202830000Y-85960000D02*
X202690000Y-85820000D01*
X205453460Y-85960000D02*
X202830000Y-85960000D01*
X205059460Y-104870000D02*
X205453460Y-105264000D01*
X202690000Y-104870000D02*
X205059460Y-104870000D01*
X193518000Y-126600000D02*
X195169000Y-124949000D01*
X193518000Y-130410000D02*
X193518000Y-126600000D01*
X195169000Y-124949000D02*
X205453460Y-124949000D01*
X192502000Y-131426000D02*
X193518000Y-130410000D01*
X191507600Y-131426000D02*
X192502000Y-131426000D01*
X190510000Y-132423600D02*
X191507600Y-131426000D01*
X190510000Y-134080000D02*
X190510000Y-132423600D01*
X224877460Y-66770000D02*
X225197460Y-67090000D01*
X221740000Y-66770000D02*
X224877460Y-66770000D01*
X222060000Y-86140000D02*
X221740000Y-85820000D01*
X225247460Y-86140000D02*
X222060000Y-86140000D01*
X224927460Y-104870000D02*
X225297460Y-105240000D01*
X221740000Y-104870000D02*
X224927460Y-104870000D01*
X212568000Y-126981000D02*
X214473000Y-125076000D01*
X211298000Y-131045000D02*
X212568000Y-129775000D01*
X214473000Y-125076000D02*
X224506000Y-125076000D01*
X210938600Y-131045000D02*
X211298000Y-131045000D01*
X209560000Y-132423600D02*
X210938600Y-131045000D01*
X212568000Y-129775000D02*
X212568000Y-126981000D01*
X209560000Y-134080000D02*
X209560000Y-132423600D01*
X238000000Y-79836508D02*
X236825000Y-78661508D01*
X238000000Y-81250000D02*
X238000000Y-79836508D01*
X228610000Y-75273600D02*
X229734600Y-74149000D01*
X228610000Y-76930000D02*
X228610000Y-75273600D01*
X229734600Y-74149000D02*
X232888000Y-74149000D01*
X232888000Y-74149000D02*
X236825000Y-78086000D01*
X236825000Y-78086000D02*
X236825000Y-78661508D01*
X228610000Y-94323600D02*
X229734600Y-93199000D01*
X228610000Y-95980000D02*
X228610000Y-94323600D01*
X229734600Y-93199000D02*
X230856000Y-93199000D01*
X230856000Y-93199000D02*
X231618000Y-92437000D01*
X231618000Y-92437000D02*
X231618000Y-89008000D01*
X231618000Y-89008000D02*
X233015000Y-87611000D01*
X241888380Y-87611000D02*
X243244380Y-88967000D01*
X233015000Y-87611000D02*
X241888380Y-87611000D01*
X228610000Y-113373600D02*
X228610000Y-115030000D01*
X230729000Y-111995000D02*
X229988600Y-111995000D01*
X229988600Y-111995000D02*
X228610000Y-113373600D01*
X231491000Y-111233000D02*
X230729000Y-111995000D01*
X231491000Y-107804000D02*
X231491000Y-111233000D01*
X236455000Y-102840000D02*
X231491000Y-107804000D01*
X244823460Y-102840000D02*
X236455000Y-102840000D01*
X228610000Y-133545000D02*
X230856000Y-131299000D01*
X228610000Y-134080000D02*
X228610000Y-133545000D01*
X53446540Y-125076000D02*
X64620000Y-125076000D01*
X64620000Y-125076000D02*
X65382000Y-125838000D01*
X65382000Y-125838000D02*
X65382000Y-130537000D01*
X65382000Y-130537000D02*
X66144000Y-131299000D01*
X247660000Y-75273600D02*
X248657600Y-74276000D01*
X247660000Y-76930000D02*
X247660000Y-75273600D01*
X252446000Y-74633460D02*
X259060000Y-81247460D01*
X252088540Y-74276000D02*
X252446000Y-74633460D01*
X248657600Y-74276000D02*
X252088540Y-74276000D01*
X247660000Y-95980000D02*
X247660000Y-94323600D01*
X251557000Y-93144460D02*
X258760000Y-100347460D01*
X248839140Y-93144460D02*
X247660000Y-94323600D01*
X251557000Y-93144460D02*
X248839140Y-93144460D01*
X252911540Y-112249000D02*
X260160000Y-119497460D01*
X248784600Y-112249000D02*
X252911540Y-112249000D01*
X247660000Y-113373600D02*
X248784600Y-112249000D01*
X247660000Y-115030000D02*
X247660000Y-113373600D01*
X247660000Y-132423600D02*
X247660000Y-134080000D01*
X238410000Y-123173600D02*
X247660000Y-132423600D01*
X238410000Y-123044000D02*
X238410000Y-123173600D01*
X238410000Y-123044000D02*
X238410000Y-119497460D01*
X222873999Y-69050001D02*
X226937999Y-69050001D01*
X222474000Y-69450000D02*
X222873999Y-69050001D01*
X229132000Y-66856000D02*
X238232000Y-66856000D01*
X226937999Y-69050001D02*
X229132000Y-66856000D01*
X53136001Y-66094001D02*
X53898000Y-66856000D01*
X46565999Y-66094001D02*
X53136001Y-66094001D01*
X45804000Y-66856000D02*
X46565999Y-66094001D01*
X53898000Y-66856000D02*
X58768000Y-66856000D01*
X126342000Y-68942000D02*
X126342000Y-71482000D01*
X111102000Y-66402000D02*
X112341275Y-66402000D01*
X112341275Y-66402000D02*
X114150000Y-68210725D01*
X117452000Y-74784000D02*
X121262000Y-74784000D01*
X114150000Y-68210725D02*
X114150000Y-70212000D01*
X116944000Y-74276000D02*
X117452000Y-74784000D01*
X114150000Y-70212000D02*
X116944000Y-73006000D01*
X116944000Y-73006000D02*
X116944000Y-74276000D01*
X121262000Y-74784000D02*
X125834000Y-70212000D01*
X125834000Y-70212000D02*
X126311275Y-70212000D01*
X126311275Y-70212000D02*
X126342000Y-70181275D01*
X126342000Y-70181275D02*
X126342000Y-68942000D01*
X111102000Y-66402000D02*
X102974000Y-66402000D01*
X102974000Y-66402000D02*
X100180000Y-69196000D01*
X100180000Y-69196000D02*
X89258000Y-69196000D01*
X89258000Y-69196000D02*
X86210000Y-66148000D01*
X86210000Y-66148000D02*
X83416000Y-66148000D01*
X83416000Y-66148000D02*
X80114000Y-69450000D01*
X80114000Y-69450000D02*
X74526000Y-69450000D01*
X250118370Y-64856000D02*
X251196000Y-64856000D01*
X250007600Y-64856000D02*
X250118370Y-64856000D01*
X248105000Y-66758600D02*
X250007600Y-64856000D01*
X248105000Y-69565000D02*
X248105000Y-66758600D01*
X225141000Y-70085000D02*
X224741001Y-70484999D01*
X224741001Y-71736000D02*
X224741001Y-72262999D01*
X224741001Y-70484999D02*
X224741001Y-71736000D01*
X218791000Y-78213000D02*
X215616000Y-78213000D01*
X224741001Y-72262999D02*
X218791000Y-78213000D01*
X58788000Y-62846000D02*
X45824000Y-62846000D01*
X89512000Y-73260000D02*
X88242000Y-74530000D01*
X76050000Y-74276000D02*
X71859000Y-70085000D01*
X88242000Y-74530000D02*
X76304000Y-74530000D01*
X76304000Y-74530000D02*
X76050000Y-74276000D01*
X111102000Y-71482000D02*
X107546000Y-75038000D01*
X107546000Y-75038000D02*
X94846000Y-75038000D01*
X93068000Y-73260000D02*
X89512000Y-73260000D01*
X94846000Y-75038000D02*
X93068000Y-73260000D01*
X58788000Y-62846000D02*
X59865630Y-62846000D01*
X61754370Y-64679370D02*
X67160000Y-70085000D01*
X67160000Y-70085000D02*
X71859000Y-70085000D01*
X61699000Y-64679370D02*
X61754370Y-64679370D01*
X59865630Y-62846000D02*
X61699000Y-64679370D01*
X239309630Y-64856000D02*
X239619000Y-64546630D01*
X238232000Y-64856000D02*
X239309630Y-64856000D01*
X239619000Y-64546630D02*
X239619000Y-63227000D01*
X239619000Y-63227000D02*
X240000000Y-62846000D01*
X240000000Y-62846000D02*
X241397000Y-62846000D01*
X241605000Y-62638000D02*
X241605000Y-61465000D01*
X241397000Y-62846000D02*
X241605000Y-62638000D01*
X165860000Y-95096400D02*
X165860000Y-112490000D01*
X165860000Y-93440000D02*
X165860000Y-95096400D01*
X165860000Y-74390000D02*
X165860000Y-76046400D01*
X165860000Y-131540000D02*
X165860000Y-127771000D01*
X165860000Y-127771000D02*
X162530000Y-124441000D01*
X162530000Y-124441000D02*
X162530000Y-116186000D01*
X162530000Y-116186000D02*
X164308000Y-114408000D01*
X165860000Y-114146400D02*
X165860000Y-112490000D01*
X165598400Y-114408000D02*
X165860000Y-114146400D01*
X164308000Y-114408000D02*
X165598400Y-114408000D01*
X165860000Y-89135000D02*
X165860000Y-93440000D01*
X165860000Y-76046400D02*
X165860000Y-84309000D01*
X166876000Y-84182000D02*
X165860000Y-85198000D01*
X170658000Y-84182000D02*
X166876000Y-84182000D01*
X165860000Y-85198000D02*
X165860000Y-89135000D01*
X165860000Y-84309000D02*
X165860000Y-85198000D01*
X170190000Y-105753600D02*
X171441600Y-104502000D01*
X170190000Y-107410000D02*
X170190000Y-105753600D01*
X171441600Y-104502000D02*
X175611000Y-104502000D01*
X186591400Y-131540000D02*
X188819000Y-129312400D01*
X184910000Y-131540000D02*
X186591400Y-131540000D01*
X188819000Y-121901000D02*
X183993000Y-117075000D01*
X183993000Y-117075000D02*
X177262000Y-117075000D01*
X170190000Y-110003000D02*
X170190000Y-107410000D01*
X177262000Y-117075000D02*
X170190000Y-110003000D01*
X188819000Y-129312400D02*
X188819000Y-121901000D01*
X181746400Y-83540000D02*
X182342000Y-84135600D01*
X180090000Y-83540000D02*
X181746400Y-83540000D01*
X182342000Y-84135600D02*
X182342000Y-89643000D01*
X182342000Y-89643000D02*
X179675000Y-92310000D01*
X179675000Y-100438000D02*
X177516000Y-102597000D01*
X177516000Y-102597000D02*
X177643000Y-102470000D01*
X175611000Y-104502000D02*
X177516000Y-102597000D01*
X180090000Y-64515000D02*
X180090000Y-64490000D01*
X182596000Y-67021000D02*
X180090000Y-64515000D01*
X182596000Y-70466000D02*
X182596000Y-67021000D01*
X180090000Y-72972000D02*
X182596000Y-70466000D01*
X180090000Y-83540000D02*
X180090000Y-72972000D01*
X172055000Y-93961000D02*
X179675000Y-93961000D01*
X179675000Y-93961000D02*
X179675000Y-100438000D01*
X179675000Y-92310000D02*
X179675000Y-93961000D01*
X171577725Y-93961000D02*
X172055000Y-93961000D01*
X170658000Y-93041275D02*
X171577725Y-93961000D01*
X170658000Y-91802000D02*
X170658000Y-93041275D01*
X203960000Y-129883600D02*
X207615000Y-126228600D01*
X203960000Y-131540000D02*
X203960000Y-129883600D01*
X207615000Y-126228600D02*
X207615000Y-122409000D01*
X207615000Y-122409000D02*
X205329000Y-120123000D01*
X205329000Y-120123000D02*
X196693000Y-120123000D01*
X189240000Y-112670000D02*
X189240000Y-107410000D01*
X196693000Y-120123000D02*
X189240000Y-112670000D01*
X189240000Y-88360000D02*
X189240000Y-90016400D01*
X189240000Y-70966400D02*
X189240000Y-88360000D01*
X189240000Y-69310000D02*
X189240000Y-70966400D01*
X189240000Y-90016400D02*
X189240000Y-91802000D01*
X189240000Y-93904725D02*
X189240000Y-94342000D01*
X187137275Y-91802000D02*
X189240000Y-93904725D01*
X185898000Y-91802000D02*
X187137275Y-91802000D01*
X189240000Y-94342000D02*
X189240000Y-107410000D01*
X189240000Y-91802000D02*
X189240000Y-94342000D01*
X224691400Y-131540000D02*
X226538000Y-129693400D01*
X223010000Y-131540000D02*
X224691400Y-131540000D01*
X226538000Y-129693400D02*
X226538000Y-122536000D01*
X226538000Y-122536000D02*
X223617000Y-119615000D01*
X223617000Y-119615000D02*
X214473000Y-119615000D01*
X208290000Y-113432000D02*
X208290000Y-107410000D01*
X214473000Y-119615000D02*
X208290000Y-113432000D01*
X208290000Y-107410000D02*
X208290000Y-105753600D01*
X208290000Y-88360000D02*
X208290000Y-69310000D01*
X208290000Y-93072000D02*
X208290000Y-88360000D01*
X208290000Y-105753600D02*
X208290000Y-93072000D01*
X103088299Y-85845701D02*
X110225701Y-85845701D01*
X110225701Y-85845701D02*
X111102000Y-86722000D01*
X100942000Y-87992000D02*
X93790000Y-87992000D01*
X93790000Y-87992000D02*
X88710000Y-93072000D01*
X103088299Y-85845701D02*
X100942000Y-87992000D01*
X242060000Y-95096400D02*
X241524000Y-95632400D01*
X242060000Y-93440000D02*
X242060000Y-95096400D01*
X237841000Y-115678000D02*
X240528400Y-115678000D01*
X235555000Y-117964000D02*
X237841000Y-115678000D01*
X240528400Y-115678000D02*
X242060000Y-114146400D01*
X235555000Y-123933000D02*
X235555000Y-117964000D01*
X237841000Y-126219000D02*
X235555000Y-123933000D01*
X242060000Y-114146400D02*
X242060000Y-112490000D01*
X239873000Y-126219000D02*
X237841000Y-126219000D01*
X242060000Y-128406000D02*
X239873000Y-126219000D01*
X242060000Y-131540000D02*
X242060000Y-128406000D01*
X242060000Y-112490000D02*
X242060000Y-108538000D01*
X242060000Y-108538000D02*
X246223000Y-104375000D01*
X246223000Y-104375000D02*
X246223000Y-101581000D01*
X246223000Y-101581000D02*
X244953000Y-100311000D01*
X242794000Y-100311000D02*
X241524000Y-99041000D01*
X244953000Y-100311000D02*
X242794000Y-100311000D01*
X241524000Y-95632400D02*
X241524000Y-99041000D01*
X239725600Y-78360400D02*
X239746000Y-78360400D01*
X242060000Y-76046400D02*
X242060000Y-74390000D01*
X239619000Y-78467000D02*
X239725600Y-78360400D01*
X243937000Y-86341000D02*
X241143000Y-86341000D01*
X239619000Y-84817000D02*
X239619000Y-78467000D01*
X245461000Y-91720400D02*
X245461000Y-87865000D01*
X239746000Y-78360400D02*
X242060000Y-76046400D01*
X245461000Y-87865000D02*
X243937000Y-86341000D01*
X243741400Y-93440000D02*
X245461000Y-91720400D01*
X241143000Y-86341000D02*
X239619000Y-84817000D01*
X242060000Y-93440000D02*
X243741400Y-93440000D01*
X244780600Y-91040000D02*
X245461000Y-91720400D01*
X244064000Y-91040000D02*
X244780600Y-91040000D01*
X52936000Y-91040000D02*
X54460000Y-91040000D01*
X90782000Y-83420000D02*
X100180000Y-83420000D01*
X54460000Y-91040000D02*
X57508000Y-87992000D01*
X57508000Y-87992000D02*
X64366000Y-87992000D01*
X64366000Y-87992000D02*
X64620000Y-88246000D01*
X64620000Y-88246000D02*
X80368000Y-88246000D01*
X100942000Y-84182000D02*
X111102000Y-84182000D01*
X80368000Y-88246000D02*
X83670000Y-84944000D01*
X83670000Y-84944000D02*
X89258000Y-84944000D01*
X89258000Y-84944000D02*
X90782000Y-83420000D01*
X100180000Y-83420000D02*
X100942000Y-84182000D01*
X261110000Y-76046400D02*
X261110000Y-93440000D01*
X261110000Y-74390000D02*
X261110000Y-76046400D01*
X261110000Y-93440000D02*
X261110000Y-95096400D01*
X261110000Y-129883600D02*
X262098000Y-128895600D01*
X261110000Y-131540000D02*
X261110000Y-129883600D01*
X262098000Y-128895600D02*
X262098000Y-116313000D01*
X261110000Y-115325000D02*
X261110000Y-112490000D01*
X262098000Y-116313000D02*
X261110000Y-115325000D01*
X260348000Y-96628000D02*
X261110000Y-95866000D01*
X259558000Y-96628000D02*
X260348000Y-96628000D01*
X261110000Y-95866000D02*
X261110000Y-112490000D01*
X261110000Y-95096400D02*
X261110000Y-95866000D01*
X37442000Y-96628000D02*
X41506000Y-96628000D01*
X41506000Y-96628000D02*
X44808000Y-93326000D01*
X44808000Y-93326000D02*
X49634000Y-93326000D01*
X68176000Y-93326000D02*
X69446000Y-94596000D01*
X89766000Y-94088000D02*
X94592000Y-94088000D01*
X49634000Y-93326000D02*
X50432399Y-94124399D01*
X69446000Y-94596000D02*
X89258000Y-94596000D01*
X50432399Y-94124399D02*
X54750399Y-94124399D01*
X105768000Y-94596000D02*
X111102000Y-89262000D01*
X54750399Y-94124399D02*
X56746000Y-96120000D01*
X56746000Y-96120000D02*
X61318000Y-96120000D01*
X61318000Y-96120000D02*
X64112000Y-93326000D01*
X89258000Y-94596000D02*
X89766000Y-94088000D01*
X64112000Y-93326000D02*
X68176000Y-93326000D01*
X95100000Y-94596000D02*
X105768000Y-94596000D01*
X94592000Y-94088000D02*
X95100000Y-94596000D01*
X241605000Y-68465000D02*
X241605000Y-69471400D01*
X237714000Y-69958000D02*
X241118400Y-69958000D01*
X236444000Y-68688000D02*
X237714000Y-69958000D01*
X241118400Y-69958000D02*
X241605000Y-69471400D01*
X229967000Y-68688000D02*
X236444000Y-68688000D01*
X222601000Y-80245000D02*
X222601000Y-76054000D01*
X222601000Y-76054000D02*
X229967000Y-68688000D01*
X223744000Y-81388000D02*
X222601000Y-80245000D01*
X226919000Y-81388000D02*
X223744000Y-81388000D01*
X106022000Y-76562000D02*
X94055722Y-76562000D01*
X89512000Y-76054000D02*
X74964685Y-76054000D01*
X110086000Y-77832000D02*
X107292000Y-77832000D01*
X107292000Y-77832000D02*
X106022000Y-76562000D01*
X94055722Y-76562000D02*
X92785722Y-75292000D01*
X74964685Y-76054000D02*
X74399000Y-76054000D01*
X92785722Y-75292000D02*
X90274000Y-75292000D01*
X90274000Y-75292000D02*
X89512000Y-76054000D01*
D25*
X112372000Y-77832000D02*
X110086000Y-77832000D01*
D24*
X112880000Y-78340000D02*
X112372000Y-77832000D01*
X124564000Y-78340000D02*
X112880000Y-78340000D01*
X124768399Y-78135601D02*
X124564000Y-78340000D01*
X126342000Y-76562000D02*
X124768399Y-78135601D01*
X204186000Y-81388000D02*
X204186000Y-80256630D01*
X239637999Y-68161001D02*
X239637999Y-66510001D01*
X239238000Y-68561000D02*
X239637999Y-68161001D01*
X239637999Y-66510001D02*
X240508000Y-65640000D01*
X241605000Y-65471400D02*
X241605000Y-64465000D01*
X241436400Y-65640000D02*
X241605000Y-65471400D01*
X240508000Y-65640000D02*
X241436400Y-65640000D01*
X204186000Y-80256630D02*
X203678000Y-79748630D01*
X203678000Y-75800000D02*
X205202000Y-74276000D01*
X205202000Y-74276000D02*
X206218000Y-74276000D01*
X203678000Y-79748630D02*
X203678000Y-75800000D01*
D25*
X109832000Y-75292000D02*
X112118000Y-75292000D01*
D24*
X112372000Y-75546000D02*
X112118000Y-75292000D01*
X117706000Y-75546000D02*
X124818000Y-75546000D01*
X124818000Y-75546000D02*
X126342000Y-74022000D01*
X116182000Y-77070000D02*
X117706000Y-75546000D01*
X113896000Y-77070000D02*
X116182000Y-77070000D01*
X112372000Y-75546000D02*
X113896000Y-77070000D01*
X109324000Y-75800000D02*
X109832000Y-75292000D01*
X94338000Y-75800000D02*
X109324000Y-75800000D01*
X94084000Y-75546000D02*
X94338000Y-75800000D01*
X92814000Y-74276000D02*
X94084000Y-75546000D01*
X90782000Y-74276000D02*
X92814000Y-74276000D01*
X57762000Y-68561000D02*
X63604000Y-68561000D01*
X63604000Y-68561000D02*
X65382000Y-70339000D01*
X65382000Y-70339000D02*
X65382000Y-72752000D01*
X65382000Y-72752000D02*
X66906000Y-74276000D01*
X75259722Y-74276000D02*
X76326532Y-75342810D01*
X88953190Y-75342810D02*
X90020000Y-74276000D01*
X66906000Y-74276000D02*
X75259722Y-74276000D01*
X76326532Y-75342810D02*
X88953190Y-75342810D01*
X90020000Y-74276000D02*
X90782000Y-74276000D01*
X215616000Y-80245000D02*
X216759000Y-81388000D01*
X215616000Y-79483000D02*
X215616000Y-80245000D01*
X80241000Y-81388000D02*
X82654000Y-81388000D01*
M02*
