M48
;DRILL file {KiCad (2017-09-19 revision dddaa7e69)-makepkg} date 10/17/17 20:10:04
;FORMAT={2:4/ absolute / inch / suppress leading zeros}
FMAT,2
INCH,TZ
T1C0.016
T2C0.031
T3C0.035
T4C0.039
T5C0.043
T6C0.043
T7C0.315
T8C0.067
T9C0.118
T10C0.157
%
G90
G05
M72
T1
X34646Y-41831
X35630Y-41831
X36614Y-41831
X39272Y-40650
X39764Y-38091
X43504Y-37795
X43701Y-26378
X46358Y-36811
X48327Y-34646
X51870Y-35728
X54232Y-35039
X54232Y-39075
X54626Y-30512
X55217Y-31299
X57776Y-32283
X60433Y-47736
X60709Y-30472
X61181Y-31398
X61909Y-36220
X65591Y-31654
X68406Y-25197
X68819Y-22913
X68976Y-28268
X69449Y-29055
X55530Y-52681
X60730Y-52681
X48030Y-37681
X53230Y-37681
X63030Y-37681
X68230Y-37681
X48030Y-27181
X53230Y-27181
X33030Y-52681
X38230Y-52681
X63030Y-52681
X68230Y-52681
X40530Y-42181
X45730Y-42181
X59350Y-29232
X33465Y-41929
X69390Y-35039
X70530Y-52681
X75730Y-52681
X55530Y-42181
X60730Y-42181
X33030Y-30181
X38230Y-30181
X40530Y-34681
X45730Y-34681
X48030Y-42181
X53230Y-42181
X35531Y-33858
X74016Y-46260
X63030Y-45181
X68230Y-45181
X40530Y-52681
X45730Y-52681
X48030Y-52681
X53230Y-52681
X40530Y-30181
X45730Y-30181
X54961Y-35827
X33030Y-37681
X38230Y-37681
X70530Y-37681
X75730Y-37681
X64665Y-41929
X47047Y-46555
X60827Y-45965
X63030Y-30181
X68230Y-30181
X55530Y-37681
X60730Y-37681
X33030Y-45181
X38230Y-45181
X70530Y-30181
X75730Y-30181
X57480Y-45984
X73622Y-33563
X71752Y-46063
X34744Y-48031
X46693Y-31575
X55530Y-27181
X60730Y-27181
X70530Y-42181
X75730Y-42181
T2
X61732Y-26693
X61732Y-30693
X62598Y-26693
X66598Y-26693
X42067Y-27205
X42854Y-27205
X43642Y-27205
X44429Y-27205
T3
X42697Y-24114
X44429Y-24114
T4
X54331Y-44390
X54331Y-47382
T5
X50701Y-33909
X50701Y-39909
X51701Y-33909
X51701Y-39909
X52701Y-33909
X52701Y-39909
X53701Y-33909
X53701Y-39909
X54701Y-33909
X54701Y-39909
X55701Y-33909
X55701Y-39909
X56701Y-33909
X56701Y-39909
X57701Y-33909
X57701Y-39909
X58701Y-33909
X58701Y-39909
X59701Y-33909
X59701Y-39909
X60701Y-33909
X60701Y-39909
X61701Y-33909
X61701Y-39909
T6
X63634Y-49114
X66634Y-49114
X48969Y-49114
X51969Y-49114
X33811Y-32283
X36811Y-32283
X68260Y-39961
X71260Y-39961
X41882Y-49114
X44882Y-49114
X33811Y-39764
X36811Y-39764
X33220Y-47343
X36220Y-47343
X49016Y-47441
X52016Y-47441
X41831Y-47441
X44831Y-47441
X33220Y-49114
X36220Y-49114
X56791Y-32283
X59791Y-32283
X63732Y-32382
X66732Y-32382
X72000Y-49114
X75000Y-49114
X49213Y-32283
X52213Y-32283
X45917Y-39764
X48917Y-39764
X41291Y-32283
X44291Y-32283
X41291Y-39764
X44291Y-39764
X63634Y-47244
X66634Y-47244
X72000Y-47539
X75000Y-47539
X56398Y-47441
X59398Y-47441
X72295Y-32382
X75295Y-32382
X63535Y-39961
X66535Y-39961
X72689Y-39961
X75689Y-39961
X56449Y-49114
X59449Y-49114
T7
X39367Y-47436
X69370Y-32461
X69429Y-47461
T8
X63630Y-28681
X67630Y-28681
X56130Y-36181
X60130Y-36181
X33630Y-43681
X37630Y-43681
X71130Y-28681
X75130Y-28681
X56130Y-28681
X60130Y-28681
X71130Y-43681
X75130Y-43681
X56130Y-51181
X60130Y-51181
X48630Y-36181
X52630Y-36181
X63630Y-36181
X67630Y-36181
X48630Y-28681
X52630Y-28681
X33630Y-51181
X37630Y-51181
X63630Y-51181
X67630Y-51181
X41130Y-43681
X45130Y-43681
X71130Y-51181
X75130Y-51181
X56130Y-43681
X60130Y-43681
X33630Y-28681
X37630Y-28681
X41130Y-36181
X45130Y-36181
X48630Y-43681
X52630Y-43681
X68875Y-24420
X68875Y-27176
X63630Y-43681
X67630Y-43681
X41130Y-51181
X45130Y-51181
X48630Y-51181
X52630Y-51181
X41130Y-28681
X45130Y-28681
X33630Y-36181
X37630Y-36181
X71130Y-36181
X75130Y-36181
T9
X64130Y-29681
X64630Y-30681
X66630Y-30681
X67130Y-29681
X56630Y-37181
X57130Y-38181
X59130Y-38181
X59630Y-37181
X34130Y-44681
X34630Y-45681
X36630Y-45681
X37130Y-44681
X71630Y-29681
X72130Y-30681
X74130Y-30681
X74630Y-29681
X56630Y-27681
X57130Y-26681
X59130Y-26681
X59630Y-27681
X71630Y-42681
X72130Y-41681
X74130Y-41681
X74630Y-42681
X56630Y-52181
X57130Y-53181
X59130Y-53181
X59630Y-52181
X49130Y-37181
X49630Y-38181
X51630Y-38181
X52130Y-37181
X64130Y-37181
X64630Y-38181
X66630Y-38181
X67130Y-37181
X49130Y-27681
X49630Y-26681
X51630Y-26681
X52130Y-27681
X34130Y-52181
X34630Y-53181
X36630Y-53181
X37130Y-52181
X64130Y-52181
X64630Y-53181
X66630Y-53181
X67130Y-52181
X41630Y-42681
X42130Y-41681
X44130Y-41681
X44630Y-42681
X71630Y-52181
X72130Y-53181
X74130Y-53181
X74630Y-52181
X56630Y-42681
X57130Y-41681
X59130Y-41681
X59630Y-42681
X34130Y-29681
X34630Y-30681
X36630Y-30681
X37130Y-29681
X41630Y-35181
X42130Y-34181
X44130Y-34181
X44630Y-35181
X49130Y-42681
X49630Y-41681
X51630Y-41681
X52130Y-42681
X64130Y-44681
X64630Y-45681
X66630Y-45681
X67130Y-44681
X41630Y-52181
X42130Y-53181
X44130Y-53181
X44630Y-52181
X49130Y-52181
X49630Y-53181
X51630Y-53181
X52130Y-52181
X41630Y-29681
X42130Y-30681
X44130Y-30681
X44630Y-29681
X34130Y-37181
X34630Y-38181
X36630Y-38181
X37130Y-37181
X71630Y-37181
X72130Y-38181
X74130Y-38181
X74630Y-37181
T10
X43130Y-43681
X73130Y-51181
X58130Y-43681
X35630Y-28681
X43130Y-36181
X50630Y-43681
X65630Y-43681
X43130Y-51181
X50630Y-51181
X43130Y-28681
X35630Y-36181
X73130Y-36181
X65630Y-28681
X58130Y-36181
X35630Y-43681
X73130Y-28681
X58130Y-28681
X73130Y-43681
X58130Y-51181
X50630Y-36181
X65630Y-36181
X50630Y-28681
X35630Y-51181
X65630Y-51181
T0
M30
