G04 #@! TF.GenerationSoftware,KiCad,Pcbnew,(2017-09-19 revision dddaa7e69)-makepkg*
G04 #@! TF.CreationDate,2017-11-16T19:15:37+01:00*
G04 #@! TF.ProjectId,lets_split,6C6574735F73706C69742E6B69636164,rev?*
G04 #@! TF.SameCoordinates,Original*
G04 #@! TF.FileFunction,Soldermask,Top*
G04 #@! TF.FilePolarity,Negative*
%FSLAX46Y46*%
G04 Gerber Fmt 4.6, Leading zero omitted, Abs format (unit mm)*
G04 Created by KiCad (PCBNEW (2017-09-19 revision dddaa7e69)-makepkg) date 11/16/17 19:15:37*
%MOMM*%
%LPD*%
G01*
G04 APERTURE LIST*
%ADD10C,4.400000*%
%ADD11C,2.100000*%
%ADD12C,3.400000*%
%ADD13C,6.400000*%
%ADD14C,2.400000*%
%ADD15R,2.400000X2.400000*%
%ADD16C,2.775000*%
%ADD17C,1.400000*%
%ADD18C,1.300000*%
%ADD19R,2.100000X2.100000*%
%ADD20O,2.100000X2.100000*%
G04 APERTURE END LIST*
D10*
X300000000Y-110950000D03*
D11*
X305080000Y-110950000D03*
X294920000Y-110950000D03*
D12*
X303810000Y-113490000D03*
X297460000Y-116030000D03*
D10*
X280950000Y-110950000D03*
D11*
X286030000Y-110950000D03*
X275870000Y-110950000D03*
D12*
X284760000Y-113490000D03*
X278410000Y-116030000D03*
D10*
X204750000Y-110950000D03*
D11*
X209830000Y-110950000D03*
X199670000Y-110950000D03*
D12*
X208560000Y-113490000D03*
X202210000Y-116030000D03*
D10*
X261900000Y-110950000D03*
D11*
X266980000Y-110950000D03*
X256820000Y-110950000D03*
D12*
X265710000Y-113490000D03*
X259360000Y-116030000D03*
D10*
X223800000Y-72850000D03*
D11*
X228880000Y-72850000D03*
X218720000Y-72850000D03*
D12*
X227610000Y-75390000D03*
X221260000Y-77930000D03*
D10*
X261900000Y-72850000D03*
D11*
X266980000Y-72850000D03*
X256820000Y-72850000D03*
D12*
X265710000Y-75390000D03*
X259360000Y-77930000D03*
X240310000Y-77930000D03*
X246660000Y-75390000D03*
D11*
X237770000Y-72850000D03*
X247930000Y-72850000D03*
D10*
X242850000Y-72850000D03*
X242850000Y-130000000D03*
D11*
X237770000Y-130000000D03*
X247930000Y-130000000D03*
D12*
X239040000Y-127460000D03*
X245390000Y-124920000D03*
D10*
X300000000Y-130000000D03*
D11*
X294920000Y-130000000D03*
X305080000Y-130000000D03*
D12*
X296190000Y-127460000D03*
X302540000Y-124920000D03*
D10*
X300000000Y-72850000D03*
D11*
X305080000Y-72850000D03*
X294920000Y-72850000D03*
D12*
X303810000Y-75390000D03*
X297460000Y-77930000D03*
D10*
X261900000Y-130000000D03*
D11*
X256820000Y-130000000D03*
X266980000Y-130000000D03*
D12*
X258090000Y-127460000D03*
X264440000Y-124920000D03*
D10*
X204750000Y-91900000D03*
D11*
X209830000Y-91900000D03*
X199670000Y-91900000D03*
D12*
X208560000Y-94440000D03*
X202210000Y-96980000D03*
D10*
X300000000Y-91900000D03*
D11*
X305080000Y-91900000D03*
X294920000Y-91900000D03*
D12*
X303810000Y-94440000D03*
X297460000Y-96980000D03*
D10*
X204750000Y-72850000D03*
D11*
X209830000Y-72850000D03*
X199670000Y-72850000D03*
D12*
X208560000Y-75390000D03*
X202210000Y-77930000D03*
D10*
X223800000Y-130000000D03*
D11*
X218720000Y-130000000D03*
X228880000Y-130000000D03*
D12*
X219990000Y-127460000D03*
X226340000Y-124920000D03*
D10*
X261900000Y-91900000D03*
D11*
X266980000Y-91900000D03*
X256820000Y-91900000D03*
D12*
X265710000Y-94440000D03*
X259360000Y-96980000D03*
D10*
X242850000Y-110950000D03*
D11*
X247930000Y-110950000D03*
X237770000Y-110950000D03*
D12*
X246660000Y-113490000D03*
X240310000Y-116030000D03*
D10*
X280950000Y-91900000D03*
D11*
X286030000Y-91900000D03*
X275870000Y-91900000D03*
D12*
X284760000Y-94440000D03*
X278410000Y-96980000D03*
D10*
X204750000Y-130000000D03*
D11*
X199670000Y-130000000D03*
X209830000Y-130000000D03*
D12*
X200940000Y-127460000D03*
X207290000Y-124920000D03*
D10*
X223800000Y-91900000D03*
D11*
X228880000Y-91900000D03*
X218720000Y-91900000D03*
D12*
X227610000Y-94440000D03*
X221260000Y-96980000D03*
D10*
X280950000Y-72850000D03*
D11*
X286030000Y-72850000D03*
X275870000Y-72850000D03*
D12*
X284760000Y-75390000D03*
X278410000Y-77930000D03*
D10*
X280950000Y-130000000D03*
D11*
X275870000Y-130000000D03*
X286030000Y-130000000D03*
D12*
X277140000Y-127460000D03*
X283490000Y-124920000D03*
D10*
X242850000Y-91900000D03*
D11*
X247930000Y-91900000D03*
X237770000Y-91900000D03*
D12*
X246660000Y-94440000D03*
X240310000Y-96980000D03*
D10*
X223800000Y-110950000D03*
D11*
X228880000Y-110950000D03*
X218720000Y-110950000D03*
D12*
X227610000Y-113490000D03*
X221260000Y-116030000D03*
D13*
X290600000Y-120550000D03*
X290450000Y-82450000D03*
X214241000Y-120488000D03*
D14*
X252426000Y-88896000D03*
D15*
X252426000Y-82296000D03*
D16*
X271285500Y-62738000D03*
X271285500Y-67818000D03*
X268110500Y-62738000D03*
X268110500Y-67818000D03*
D17*
X273190500Y-64262000D03*
X273190500Y-66294000D03*
X268110500Y-65278000D03*
D18*
X227100000Y-61250000D03*
X222700000Y-61250000D03*
D11*
X290442500Y-61628000D03*
X290442500Y-68628000D03*
D19*
X263792500Y-61531500D03*
D20*
X261252500Y-61531500D03*
D10*
X128600000Y-72850000D03*
D11*
X133680000Y-72850000D03*
X123520000Y-72850000D03*
D12*
X132410000Y-75390000D03*
X126060000Y-77930000D03*
X145110000Y-116030000D03*
X151460000Y-113490000D03*
D11*
X142570000Y-110950000D03*
X152730000Y-110950000D03*
D10*
X147650000Y-110950000D03*
D12*
X107010000Y-116030000D03*
X113360000Y-113490000D03*
D11*
X104470000Y-110950000D03*
X114630000Y-110950000D03*
D10*
X109550000Y-110950000D03*
D12*
X131140000Y-124920000D03*
X124790000Y-127460000D03*
D11*
X133680000Y-130000000D03*
X123520000Y-130000000D03*
D10*
X128600000Y-130000000D03*
D12*
X150190000Y-124920000D03*
X143840000Y-127460000D03*
D11*
X152730000Y-130000000D03*
X142570000Y-130000000D03*
D10*
X147650000Y-130000000D03*
D12*
X188290000Y-124920000D03*
X181940000Y-127460000D03*
D11*
X190830000Y-130000000D03*
X180670000Y-130000000D03*
D10*
X185750000Y-130000000D03*
D12*
X183210000Y-116030000D03*
X189560000Y-113490000D03*
D11*
X180670000Y-110950000D03*
X190830000Y-110950000D03*
D10*
X185750000Y-110950000D03*
D12*
X145110000Y-77930000D03*
X151460000Y-75390000D03*
D11*
X142570000Y-72850000D03*
X152730000Y-72850000D03*
D10*
X147650000Y-72850000D03*
D12*
X107010000Y-77930000D03*
X113360000Y-75390000D03*
D11*
X104470000Y-72850000D03*
X114630000Y-72850000D03*
D10*
X109550000Y-72850000D03*
D12*
X145110000Y-96980000D03*
X151460000Y-94440000D03*
D11*
X142570000Y-91900000D03*
X152730000Y-91900000D03*
D10*
X147650000Y-91900000D03*
D12*
X164160000Y-96980000D03*
X170510000Y-94440000D03*
D11*
X161620000Y-91900000D03*
X171780000Y-91900000D03*
D10*
X166700000Y-91900000D03*
D12*
X93040000Y-124920000D03*
X86690000Y-127460000D03*
D11*
X95580000Y-130000000D03*
X85420000Y-130000000D03*
D10*
X90500000Y-130000000D03*
D12*
X112090000Y-124920000D03*
X105740000Y-127460000D03*
D11*
X114630000Y-130000000D03*
X104470000Y-130000000D03*
D10*
X109550000Y-130000000D03*
D12*
X126060000Y-116030000D03*
X132410000Y-113490000D03*
D11*
X123520000Y-110950000D03*
X133680000Y-110950000D03*
D10*
X128600000Y-110950000D03*
D12*
X87960000Y-77930000D03*
X94310000Y-75390000D03*
D11*
X85420000Y-72850000D03*
X95580000Y-72850000D03*
D10*
X90500000Y-72850000D03*
D12*
X164160000Y-77930000D03*
X170510000Y-75390000D03*
D11*
X161620000Y-72850000D03*
X171780000Y-72850000D03*
D10*
X166700000Y-72850000D03*
D12*
X183210000Y-96980000D03*
X189560000Y-94440000D03*
D11*
X180670000Y-91900000D03*
X190830000Y-91900000D03*
D10*
X185750000Y-91900000D03*
D12*
X183210000Y-77930000D03*
X189560000Y-75390000D03*
D11*
X180670000Y-72850000D03*
X190830000Y-72850000D03*
D10*
X185750000Y-72850000D03*
D12*
X87960000Y-96980000D03*
X94310000Y-94440000D03*
D11*
X85420000Y-91900000D03*
X95580000Y-91900000D03*
D10*
X90500000Y-91900000D03*
D12*
X107010000Y-96980000D03*
X113360000Y-94440000D03*
D11*
X104470000Y-91900000D03*
X114630000Y-91900000D03*
D10*
X109550000Y-91900000D03*
D12*
X126060000Y-96980000D03*
X132410000Y-94440000D03*
D11*
X123520000Y-91900000D03*
X133680000Y-91900000D03*
D10*
X128600000Y-91900000D03*
D12*
X87960000Y-116030000D03*
X94310000Y-113490000D03*
D11*
X85420000Y-110950000D03*
X95580000Y-110950000D03*
D10*
X90500000Y-110950000D03*
D12*
X164160000Y-116030000D03*
X170510000Y-113490000D03*
D11*
X161620000Y-110950000D03*
X171780000Y-110950000D03*
D10*
X166700000Y-110950000D03*
D12*
X169240000Y-124920000D03*
X162890000Y-127460000D03*
D11*
X171780000Y-130000000D03*
X161620000Y-130000000D03*
D10*
X166700000Y-130000000D03*
D18*
X108450000Y-61250000D03*
X112850000Y-61250000D03*
D15*
X138176000Y-82296000D03*
D14*
X138176000Y-88896000D03*
D11*
X176192500Y-68628000D03*
X176192500Y-61628000D03*
D13*
X99991000Y-120488000D03*
X176350000Y-120550000D03*
X176200000Y-82450000D03*
D20*
X147002500Y-61531500D03*
D19*
X149542500Y-61531500D03*
D17*
X153860500Y-65278000D03*
X158940500Y-66294000D03*
X158940500Y-64262000D03*
D16*
X153860500Y-67818000D03*
X153860500Y-62738000D03*
X157035500Y-67818000D03*
X157035500Y-62738000D03*
M02*
