G04 #@! TF.FileFunction,Profile,NP*
%FSLAX46Y46*%
G04 Gerber Fmt 4.6, Leading zero omitted, Abs format (unit mm)*
G04 Created by KiCad (PCBNEW 4.0.1-stable) date 10-10-2017 08:31:20*
%MOMM*%
G01*
G04 APERTURE LIST*
%ADD10C,0.100000*%
%ADD11C,0.150000*%
G04 APERTURE END LIST*
D10*
D11*
X147000000Y-133500000D02*
G75*
G03X150000000Y-133500000I1500000J0D01*
G01*
X150000000Y-133500000D02*
X150000000Y-103000000D01*
X147000000Y-103000000D02*
X147000000Y-133500000D01*
X150000000Y-67500000D02*
X150000000Y-98000000D01*
X147000000Y-98000000D02*
X147000000Y-67500000D01*
X150000000Y-103000000D02*
G75*
G03X147000000Y-103000000I-1500000J0D01*
G01*
X147000000Y-98000000D02*
G75*
G03X150000000Y-98000000I1500000J0D01*
G01*
X150000000Y-67500000D02*
G75*
G03X147000000Y-67500000I-1500000J0D01*
G01*
X189000000Y-59000000D02*
X193500000Y-63500000D01*
X193500000Y-63500000D02*
X234500000Y-63500000D01*
X234500000Y-63500000D02*
X238750000Y-59250000D01*
X238750000Y-59250000D02*
X251000000Y-59250000D01*
X251000000Y-59250000D02*
X255750000Y-64000000D01*
X255750000Y-64000000D02*
X263000000Y-64000000D01*
X263000000Y-64000000D02*
X263000000Y-137000000D01*
X263000000Y-137000000D02*
X34000000Y-137000000D01*
X134000000Y-64000000D02*
X163000000Y-64000000D01*
X163000000Y-64000000D02*
X168000000Y-59000000D01*
X168000000Y-59000000D02*
X189000000Y-59000000D01*
X129000000Y-59000000D02*
X108000000Y-59000000D01*
X134000000Y-64000000D02*
X129000000Y-59000000D01*
X34000000Y-64000000D02*
X34000000Y-137000000D01*
X41250000Y-64000000D02*
X34000000Y-64000000D01*
X46000000Y-59250000D02*
X41250000Y-64000000D01*
X58250000Y-59250000D02*
X46000000Y-59250000D01*
X62500000Y-63500000D02*
X58250000Y-59250000D01*
X103500000Y-63500000D02*
X62500000Y-63500000D01*
X108000000Y-59000000D02*
X103500000Y-63500000D01*
M02*
