G04 #@! TF.GenerationSoftware,KiCad,Pcbnew,(2017-09-19 revision dddaa7e69)-makepkg*
G04 #@! TF.CreationDate,2017-11-16T19:15:37+01:00*
G04 #@! TF.ProjectId,lets_split,6C6574735F73706C69742E6B69636164,rev?*
G04 #@! TF.SameCoordinates,Original*
G04 #@! TF.FileFunction,Paste,Bot*
G04 #@! TF.FilePolarity,Positive*
%FSLAX46Y46*%
G04 Gerber Fmt 4.6, Leading zero omitted, Abs format (unit mm)*
G04 Created by KiCad (PCBNEW (2017-09-19 revision dddaa7e69)-makepkg) date 11/16/17 19:15:37*
%MOMM*%
%LPD*%
G01*
G04 APERTURE LIST*
%ADD10R,2.550000X2.500000*%
%ADD11R,1.798320X1.767840*%
%ADD12R,0.900000X1.200000*%
%ADD13R,0.889000X0.889000*%
%ADD14R,1.200000X0.900000*%
%ADD15R,1.500000X3.000000*%
%ADD16C,0.497840*%
%ADD17R,2.032000X1.778000*%
%ADD18R,1.500000X1.000000*%
%ADD19R,5.080000X5.080000*%
%ADD20R,0.998220X0.299720*%
%ADD21R,0.299720X0.998220*%
%ADD22R,0.500000X2.300000*%
%ADD23R,2.000000X2.500000*%
%ADD24R,2.800000X2.800000*%
%ADD25R,2.800000X2.200000*%
%ADD26R,2.800000X2.000000*%
G04 APERTURE END LIST*
D10*
X293910000Y-116030000D03*
X307360000Y-113490000D03*
X274860000Y-116030000D03*
X288310000Y-113490000D03*
D11*
X279103620Y-81407000D03*
X275024380Y-81407000D03*
X241011240Y-119507000D03*
X236932000Y-119507000D03*
X202776620Y-119507000D03*
X198697380Y-119507000D03*
D10*
X198660000Y-116030000D03*
X212110000Y-113490000D03*
D11*
X260053620Y-119507000D03*
X255974380Y-119507000D03*
X202776620Y-100457000D03*
X198697380Y-100457000D03*
D10*
X255810000Y-116030000D03*
X269260000Y-113490000D03*
X217710000Y-77930000D03*
X231160000Y-75390000D03*
X255810000Y-77930000D03*
X269260000Y-75390000D03*
X250210000Y-75390000D03*
X236760000Y-77930000D03*
D11*
X260046000Y-100457000D03*
X255966760Y-100457000D03*
X267165620Y-81407000D03*
X263086380Y-81407000D03*
X252941620Y-133223000D03*
X248862380Y-133223000D03*
D10*
X248940000Y-124920000D03*
X235490000Y-127460000D03*
D11*
X223477620Y-119507000D03*
X219398380Y-119507000D03*
X214841620Y-133223000D03*
X210762380Y-133223000D03*
D10*
X306090000Y-124920000D03*
X292640000Y-127460000D03*
X293910000Y-77930000D03*
X307360000Y-75390000D03*
X267990000Y-124920000D03*
X254540000Y-127460000D03*
X198660000Y-96980000D03*
X212110000Y-94440000D03*
X293910000Y-96980000D03*
X307360000Y-94440000D03*
X198660000Y-77930000D03*
X212110000Y-75390000D03*
D11*
X241003620Y-81407000D03*
X236924380Y-81407000D03*
X221953620Y-100457000D03*
X217874380Y-100457000D03*
D10*
X229890000Y-124920000D03*
X216440000Y-127460000D03*
X255810000Y-96980000D03*
X269260000Y-94440000D03*
D11*
X279111240Y-100457000D03*
X275032000Y-100457000D03*
X271991620Y-133223000D03*
X267912380Y-133223000D03*
D10*
X236760000Y-116030000D03*
X250210000Y-113490000D03*
X274860000Y-96980000D03*
X288310000Y-94440000D03*
D11*
X233899240Y-133223000D03*
X229820000Y-133223000D03*
D10*
X210840000Y-124920000D03*
X197390000Y-127460000D03*
X217710000Y-96980000D03*
X231160000Y-94440000D03*
X274860000Y-77930000D03*
X288310000Y-75390000D03*
D11*
X221953620Y-81407000D03*
X217874380Y-81407000D03*
X241003620Y-100457000D03*
X236924380Y-100457000D03*
D10*
X287040000Y-124920000D03*
X273590000Y-127460000D03*
X236760000Y-96980000D03*
X250210000Y-94440000D03*
X217710000Y-116030000D03*
X231160000Y-113490000D03*
D11*
X202911240Y-81407000D03*
X198832000Y-81407000D03*
X300312620Y-81407000D03*
X296233380Y-81407000D03*
D12*
X272809500Y-88816000D03*
X272809500Y-91016000D03*
D13*
X246584000Y-65151000D03*
X246584000Y-63627000D03*
D11*
X278976620Y-119507000D03*
X274897380Y-119507000D03*
D14*
X256215500Y-61722000D03*
X258415500Y-61722000D03*
D11*
X299797000Y-119507000D03*
X295717760Y-119507000D03*
D12*
X252934000Y-75100000D03*
X252934000Y-77300000D03*
D15*
X276175000Y-62611000D03*
X278715000Y-62611000D03*
X281255000Y-62611000D03*
D12*
X223500000Y-66800000D03*
X223500000Y-69000000D03*
D11*
X306789620Y-133223000D03*
X302710380Y-133223000D03*
D16*
X261715518Y-69032280D03*
X261715518Y-68107720D03*
D17*
X259556518Y-64760000D03*
X259556518Y-69078000D03*
D18*
X272809500Y-86233000D03*
X272809500Y-84963000D03*
D11*
X291168620Y-133223000D03*
X287089380Y-133223000D03*
D19*
X252317518Y-67173000D03*
D20*
X248969798Y-64673640D03*
X248969798Y-65174020D03*
X248969798Y-65674400D03*
X248969798Y-66174780D03*
X248969798Y-66675160D03*
X248969798Y-67173000D03*
X248969798Y-67670840D03*
X248969798Y-68171220D03*
X248969798Y-68671600D03*
X248969798Y-69171980D03*
X248969798Y-69672360D03*
D21*
X249818158Y-70520720D03*
X250318538Y-70520720D03*
X250818918Y-70520720D03*
X251319298Y-70520720D03*
X251819678Y-70520720D03*
X252317518Y-70520720D03*
X252815358Y-70520720D03*
X253315738Y-70520720D03*
X253816118Y-70520720D03*
X254316498Y-70520720D03*
X254816878Y-70520720D03*
D20*
X255665238Y-69672360D03*
X255665238Y-69171980D03*
X255665238Y-68671600D03*
X255665238Y-68171220D03*
X255665238Y-67670840D03*
X255665238Y-67173000D03*
X255665238Y-66675160D03*
X255665238Y-66174780D03*
X255665238Y-65674400D03*
X255665238Y-65174020D03*
X255665238Y-64673640D03*
D21*
X254816878Y-63825280D03*
X254316498Y-63825280D03*
X253816118Y-63825280D03*
X253315738Y-63825280D03*
X252815358Y-63825280D03*
X252317518Y-63825280D03*
X251819678Y-63825280D03*
X251319298Y-63825280D03*
X250818918Y-63825280D03*
X250318538Y-63825280D03*
X249818158Y-63825280D03*
D12*
X225220000Y-69000000D03*
X225220000Y-66800000D03*
D16*
X261715518Y-65730280D03*
X261715518Y-64805720D03*
D15*
X207290000Y-68658000D03*
X204750000Y-68658000D03*
X202210000Y-68658000D03*
D22*
X226500000Y-64150000D03*
X225700000Y-64150000D03*
X224900000Y-64150000D03*
X224100000Y-64150000D03*
X223300000Y-64150000D03*
D23*
X220450000Y-58250000D03*
X229350000Y-58250000D03*
X229350000Y-63750000D03*
X220450000Y-63750000D03*
D18*
X270396500Y-84963000D03*
X270396500Y-86233000D03*
D11*
X298280620Y-100457000D03*
X294201380Y-100457000D03*
D24*
X294142500Y-69928000D03*
D25*
X294142500Y-60528000D03*
X286742500Y-62428000D03*
D26*
X294142500Y-57728000D03*
D12*
X270396500Y-88816000D03*
X270396500Y-91016000D03*
D13*
X251918000Y-59588400D03*
X251918000Y-61112400D03*
D10*
X122510000Y-77930000D03*
X135960000Y-75390000D03*
X155010000Y-113490000D03*
X141560000Y-116030000D03*
X116910000Y-113490000D03*
X103460000Y-116030000D03*
X121240000Y-127460000D03*
X134690000Y-124920000D03*
X140290000Y-127460000D03*
X153740000Y-124920000D03*
X178390000Y-127460000D03*
X191840000Y-124920000D03*
X193110000Y-113490000D03*
X179660000Y-116030000D03*
X155010000Y-75390000D03*
X141560000Y-77930000D03*
X116910000Y-75390000D03*
X103460000Y-77930000D03*
X155010000Y-94440000D03*
X141560000Y-96980000D03*
X174060000Y-94440000D03*
X160610000Y-96980000D03*
X83140000Y-127460000D03*
X96590000Y-124920000D03*
X102190000Y-127460000D03*
X115640000Y-124920000D03*
X135960000Y-113490000D03*
X122510000Y-116030000D03*
X97860000Y-75390000D03*
X84410000Y-77930000D03*
X174060000Y-75390000D03*
X160610000Y-77930000D03*
X193110000Y-94440000D03*
X179660000Y-96980000D03*
X193110000Y-75390000D03*
X179660000Y-77930000D03*
X97860000Y-94440000D03*
X84410000Y-96980000D03*
X116910000Y-94440000D03*
X103460000Y-96980000D03*
X135960000Y-94440000D03*
X122510000Y-96980000D03*
X97860000Y-113490000D03*
X84410000Y-116030000D03*
X174060000Y-113490000D03*
X160610000Y-116030000D03*
X159340000Y-127460000D03*
X172790000Y-124920000D03*
D11*
X84582000Y-81407000D03*
X88661240Y-81407000D03*
X84447380Y-100457000D03*
X88526620Y-100457000D03*
X84447380Y-119507000D03*
X88526620Y-119507000D03*
X96512380Y-133223000D03*
X100591620Y-133223000D03*
X103624380Y-81407000D03*
X107703620Y-81407000D03*
X103624380Y-100457000D03*
X107703620Y-100457000D03*
X105148380Y-119507000D03*
X109227620Y-119507000D03*
X115570000Y-133223000D03*
X119649240Y-133223000D03*
X122674380Y-81407000D03*
X126753620Y-81407000D03*
X122674380Y-100457000D03*
X126753620Y-100457000D03*
X122682000Y-119507000D03*
X126761240Y-119507000D03*
X134612380Y-133223000D03*
X138691620Y-133223000D03*
X148836380Y-81407000D03*
X152915620Y-81407000D03*
X141716760Y-100457000D03*
X145796000Y-100457000D03*
X141724380Y-119507000D03*
X145803620Y-119507000D03*
X153662380Y-133223000D03*
X157741620Y-133223000D03*
X160774380Y-81407000D03*
X164853620Y-81407000D03*
X160782000Y-100457000D03*
X164861240Y-100457000D03*
X160647380Y-119507000D03*
X164726620Y-119507000D03*
X172839380Y-133223000D03*
X176918620Y-133223000D03*
X181983380Y-81407000D03*
X186062620Y-81407000D03*
X179951380Y-100457000D03*
X184030620Y-100457000D03*
X181467760Y-119507000D03*
X185547000Y-119507000D03*
X188460380Y-133223000D03*
X192539620Y-133223000D03*
D18*
X156146500Y-86233000D03*
X156146500Y-84963000D03*
D15*
X167005000Y-62611000D03*
X164465000Y-62611000D03*
X161925000Y-62611000D03*
D16*
X147465518Y-68107720D03*
X147465518Y-69032280D03*
D23*
X106200000Y-63750000D03*
X115100000Y-63750000D03*
X115100000Y-58250000D03*
X106200000Y-58250000D03*
D22*
X109050000Y-64150000D03*
X109850000Y-64150000D03*
X110650000Y-64150000D03*
X111450000Y-64150000D03*
X112250000Y-64150000D03*
D26*
X179892500Y-57728000D03*
D25*
X172492500Y-62428000D03*
X179892500Y-60528000D03*
D24*
X179892500Y-69928000D03*
D15*
X87960000Y-68658000D03*
X90500000Y-68658000D03*
X93040000Y-68658000D03*
D12*
X138684000Y-77300000D03*
X138684000Y-75100000D03*
D13*
X132334000Y-63627000D03*
X132334000Y-65151000D03*
D16*
X147465518Y-64805720D03*
X147465518Y-65730280D03*
D13*
X137668000Y-61112400D03*
X137668000Y-59588400D03*
D12*
X109250000Y-69000000D03*
X109250000Y-66800000D03*
X110970000Y-66800000D03*
X110970000Y-69000000D03*
D14*
X144165500Y-61722000D03*
X141965500Y-61722000D03*
D21*
X135568158Y-63825280D03*
X136068538Y-63825280D03*
X136568918Y-63825280D03*
X137069298Y-63825280D03*
X137569678Y-63825280D03*
X138067518Y-63825280D03*
X138565358Y-63825280D03*
X139065738Y-63825280D03*
X139566118Y-63825280D03*
X140066498Y-63825280D03*
X140566878Y-63825280D03*
D20*
X141415238Y-64673640D03*
X141415238Y-65174020D03*
X141415238Y-65674400D03*
X141415238Y-66174780D03*
X141415238Y-66675160D03*
X141415238Y-67173000D03*
X141415238Y-67670840D03*
X141415238Y-68171220D03*
X141415238Y-68671600D03*
X141415238Y-69171980D03*
X141415238Y-69672360D03*
D21*
X140566878Y-70520720D03*
X140066498Y-70520720D03*
X139566118Y-70520720D03*
X139065738Y-70520720D03*
X138565358Y-70520720D03*
X138067518Y-70520720D03*
X137569678Y-70520720D03*
X137069298Y-70520720D03*
X136568918Y-70520720D03*
X136068538Y-70520720D03*
X135568158Y-70520720D03*
D20*
X134719798Y-69672360D03*
X134719798Y-69171980D03*
X134719798Y-68671600D03*
X134719798Y-68171220D03*
X134719798Y-67670840D03*
X134719798Y-67173000D03*
X134719798Y-66675160D03*
X134719798Y-66174780D03*
X134719798Y-65674400D03*
X134719798Y-65174020D03*
X134719798Y-64673640D03*
D19*
X138067518Y-67173000D03*
D17*
X145306518Y-69078000D03*
X145306518Y-64760000D03*
D18*
X158559500Y-84963000D03*
X158559500Y-86233000D03*
D12*
X156146500Y-91016000D03*
X156146500Y-88816000D03*
X158559500Y-91016000D03*
X158559500Y-88816000D03*
M02*
