G04 #@! TF.GenerationSoftware,KiCad,Pcbnew,(2017-09-19 revision dddaa7e69)-makepkg*
G04 #@! TF.CreationDate,2017-11-16T19:15:37+01:00*
G04 #@! TF.ProjectId,lets_split,6C6574735F73706C69742E6B69636164,rev?*
G04 #@! TF.SameCoordinates,Original*
G04 #@! TF.FileFunction,Profile,NP*
%FSLAX46Y46*%
G04 Gerber Fmt 4.6, Leading zero omitted, Abs format (unit mm)*
G04 Created by KiCad (PCBNEW (2017-09-19 revision dddaa7e69)-makepkg) date 11/16/17 19:15:37*
%MOMM*%
%LPD*%
G01*
G04 APERTURE LIST*
%ADD10C,0.150000*%
G04 APERTURE END LIST*
D10*
X195250000Y-136000000D02*
X195250000Y-67000000D01*
X309500000Y-67000000D02*
G75*
G03X307500000Y-65000000I-2000000J0D01*
G01*
X297500000Y-63000000D02*
G75*
G03X299500000Y-65000000I2000000J0D01*
G01*
X307500000Y-138000000D02*
G75*
G03X309500000Y-136000000I0J2000000D01*
G01*
X299500000Y-65000000D02*
X307500000Y-65000000D01*
X195250000Y-136000000D02*
G75*
G03X197250000Y-138000000I2000000J0D01*
G01*
X197250000Y-65000000D02*
X215250000Y-65000000D01*
X197250000Y-65000000D02*
G75*
G03X195250000Y-67000000I0J-2000000D01*
G01*
X309500000Y-67000000D02*
X309500000Y-136000000D01*
X307500000Y-138000000D02*
X197250000Y-138000000D01*
X297500000Y-63000000D02*
X297500000Y-58000000D01*
X297500000Y-58000000D02*
G75*
G03X295500000Y-56000000I-2000000J0D01*
G01*
X219250000Y-56000000D02*
G75*
G03X217250000Y-58000000I0J-2000000D01*
G01*
X217250000Y-63000000D02*
X217250000Y-58000000D01*
X215250000Y-65000000D02*
G75*
G03X217250000Y-63000000I0J2000000D01*
G01*
X219250000Y-56000000D02*
X295500000Y-56000000D01*
X105000000Y-56000000D02*
X181250000Y-56000000D01*
X101000000Y-65000000D02*
G75*
G03X103000000Y-63000000I0J2000000D01*
G01*
X103000000Y-63000000D02*
X103000000Y-58000000D01*
X105000000Y-56000000D02*
G75*
G03X103000000Y-58000000I0J-2000000D01*
G01*
X183250000Y-63000000D02*
X183250000Y-58000000D01*
X183250000Y-63000000D02*
G75*
G03X185250000Y-65000000I2000000J0D01*
G01*
X183250000Y-58000000D02*
G75*
G03X181250000Y-56000000I-2000000J0D01*
G01*
X83000000Y-65000000D02*
G75*
G03X81000000Y-67000000I0J-2000000D01*
G01*
X81000000Y-136000000D02*
G75*
G03X83000000Y-138000000I2000000J0D01*
G01*
X193250000Y-138000000D02*
G75*
G03X195250000Y-136000000I0J2000000D01*
G01*
X195250000Y-67000000D02*
G75*
G03X193250000Y-65000000I-2000000J0D01*
G01*
X193250000Y-138000000D02*
X83000000Y-138000000D01*
X195250000Y-67000000D02*
X195250000Y-136000000D01*
X185250000Y-65000000D02*
X193250000Y-65000000D01*
X81000000Y-136000000D02*
X81000000Y-67000000D01*
X83000000Y-65000000D02*
X101000000Y-65000000D01*
M02*
