G04 #@! TF.FileFunction,Copper,L1,Top,Signal*
%FSLAX46Y46*%
G04 Gerber Fmt 4.6, Leading zero omitted, Abs format (unit mm)*
G04 Created by KiCad (PCBNEW 4.0.1-stable) date 10-10-2017 08:31:20*
%MOMM*%
G01*
G04 APERTURE LIST*
%ADD10C,0.100000*%
%ADD11C,1.600000*%
%ADD12O,1.600000X1.600000*%
%ADD13C,1.998980*%
%ADD14R,1.998980X1.998980*%
%ADD15R,1.524000X1.524000*%
%ADD16C,1.524000*%
%ADD17R,1.752600X1.752600*%
%ADD18C,1.752600*%
%ADD19R,2.500000X2.550000*%
%ADD20R,2.550000X2.500000*%
%ADD21R,2.500000X1.200000*%
%ADD22R,1.500000X1.000000*%
%ADD23C,0.800000*%
%ADD24C,0.406400*%
%ADD25C,0.203200*%
G04 APERTURE END LIST*
D10*
D11*
X216759000Y-81388000D03*
D12*
X226919000Y-81388000D03*
D11*
X214346000Y-81388000D03*
D12*
X204186000Y-81388000D03*
D13*
X244823460Y-102840000D03*
D14*
X244823460Y-113000000D03*
D13*
X169007000Y-103613000D03*
D14*
X169007000Y-113773000D03*
D13*
X153790000Y-81352540D03*
D14*
X163950000Y-81352540D03*
D13*
X182596000Y-80882540D03*
D14*
X192756000Y-80882540D03*
D13*
X205456000Y-67037000D03*
D14*
X205456000Y-77197000D03*
D13*
X225197460Y-67090000D03*
D14*
X225197460Y-77250000D03*
D13*
X238000000Y-81250000D03*
D14*
X229750000Y-81297460D03*
D13*
X259060000Y-81247460D03*
D14*
X250500000Y-81250000D03*
D13*
X243244380Y-88967000D03*
D14*
X243291840Y-97517000D03*
D13*
X225247460Y-86140000D03*
D14*
X225247460Y-96300000D03*
D13*
X205453460Y-85960000D03*
D14*
X205453460Y-96120000D03*
D13*
X182860000Y-100447460D03*
D14*
X172700000Y-100447460D03*
D13*
X167356000Y-124949000D03*
D14*
X167356000Y-135109000D03*
D13*
X152890000Y-100402540D03*
D14*
X163050000Y-100402540D03*
D13*
X187047460Y-104790000D03*
D14*
X187047460Y-114950000D03*
D13*
X205453460Y-105264000D03*
D14*
X205453460Y-115424000D03*
D13*
X225297460Y-105240000D03*
D14*
X225297460Y-115400000D03*
D13*
X258760000Y-100347460D03*
D14*
X248600000Y-100347460D03*
D13*
X238410000Y-119497460D03*
D14*
X228250000Y-119497460D03*
D13*
X224506000Y-125076000D03*
D14*
X224506000Y-135236000D03*
D13*
X205453460Y-124949000D03*
D14*
X205453460Y-135109000D03*
D13*
X186406000Y-124949000D03*
D14*
X186406000Y-135109000D03*
D13*
X243553460Y-125076000D03*
D14*
X243553460Y-135236000D03*
D15*
X238222000Y-66846000D03*
X238222000Y-64846000D03*
X238222000Y-62846000D03*
D16*
X238232000Y-64856000D03*
X238212000Y-62846000D03*
X238232000Y-66856000D03*
D15*
X251186000Y-66846000D03*
X251186000Y-64846000D03*
X251186000Y-62846000D03*
D16*
X251196000Y-64856000D03*
X251176000Y-62846000D03*
X251196000Y-66856000D03*
D13*
X260160000Y-119497460D03*
D14*
X250000000Y-119497460D03*
D17*
X170658000Y-63862000D03*
D18*
X170658000Y-66402000D03*
X170658000Y-68942000D03*
X170658000Y-71482000D03*
X170658000Y-74022000D03*
X170658000Y-76562000D03*
X170658000Y-79102000D03*
X170658000Y-81642000D03*
X170658000Y-84182000D03*
X170658000Y-86722000D03*
X170658000Y-89262000D03*
X170658000Y-91802000D03*
X185898000Y-91802000D03*
X185898000Y-89262000D03*
X185898000Y-86722000D03*
X185898000Y-84182000D03*
X185898000Y-81642000D03*
X185898000Y-79102000D03*
X185898000Y-76562000D03*
X185898000Y-68942000D03*
X185898000Y-66402000D03*
X185898000Y-63862000D03*
X185898000Y-74022000D03*
X185898000Y-71482000D03*
D17*
X126342000Y-63862000D03*
D18*
X126342000Y-66402000D03*
X126342000Y-68942000D03*
X126342000Y-71482000D03*
X126342000Y-74022000D03*
X126342000Y-76562000D03*
X126342000Y-79102000D03*
X126342000Y-81642000D03*
X126342000Y-84182000D03*
X126342000Y-86722000D03*
X126342000Y-89262000D03*
X126342000Y-91802000D03*
X111102000Y-91802000D03*
X111102000Y-89262000D03*
X111102000Y-86722000D03*
X111102000Y-84182000D03*
X111102000Y-81642000D03*
X111102000Y-79102000D03*
X111102000Y-76562000D03*
X111102000Y-68942000D03*
X111102000Y-66402000D03*
X111102000Y-63862000D03*
X111102000Y-74022000D03*
X111102000Y-71482000D03*
D19*
X114370000Y-96990000D03*
X116910000Y-83540000D03*
D20*
X144590000Y-95980000D03*
X131140000Y-93440000D03*
X49340000Y-134080000D03*
X35890000Y-131540000D03*
X68390000Y-134080000D03*
X54940000Y-131540000D03*
X87440000Y-134080000D03*
X73990000Y-131540000D03*
X106490000Y-134080000D03*
X93040000Y-131540000D03*
X125540000Y-134080000D03*
X112090000Y-131540000D03*
X144590000Y-134080000D03*
X131140000Y-131540000D03*
X49340000Y-115030000D03*
X35890000Y-112490000D03*
X68390000Y-115030000D03*
X54940000Y-112490000D03*
X75260000Y-104870000D03*
X88710000Y-107410000D03*
X94310000Y-104870000D03*
X107760000Y-107410000D03*
X113360000Y-104870000D03*
X126810000Y-107410000D03*
X144590000Y-115030000D03*
X131140000Y-112490000D03*
X49340000Y-95980000D03*
X35890000Y-93440000D03*
X68390000Y-95980000D03*
X54940000Y-93440000D03*
X75260000Y-85820000D03*
X88710000Y-88360000D03*
X94310000Y-85820000D03*
X107760000Y-88360000D03*
X49340000Y-76930000D03*
X35890000Y-74390000D03*
X68390000Y-76930000D03*
X54940000Y-74390000D03*
X75260000Y-66770000D03*
X88710000Y-69310000D03*
X94310000Y-66770000D03*
X107760000Y-69310000D03*
D19*
X114370000Y-77940000D03*
X116910000Y-64490000D03*
D20*
X144590000Y-76930000D03*
X131140000Y-74390000D03*
D13*
X36840000Y-119497460D03*
D14*
X47000000Y-119497460D03*
D15*
X45814000Y-66846000D03*
X45814000Y-64846000D03*
X45814000Y-62846000D03*
D16*
X45804000Y-64856000D03*
X45824000Y-62846000D03*
X45804000Y-66856000D03*
D15*
X58778000Y-66846000D03*
X58778000Y-64846000D03*
X58778000Y-62846000D03*
D16*
X58768000Y-64856000D03*
X58788000Y-62846000D03*
X58768000Y-66856000D03*
D13*
X53446540Y-125076000D03*
D14*
X53446540Y-135236000D03*
D13*
X110594000Y-124949000D03*
D14*
X110594000Y-135109000D03*
D13*
X91546540Y-124949000D03*
D14*
X91546540Y-135109000D03*
D13*
X72494000Y-125076000D03*
D14*
X72494000Y-135236000D03*
D13*
X58590000Y-119497460D03*
D14*
X68750000Y-119497460D03*
D13*
X38240000Y-100347460D03*
D14*
X48400000Y-100347460D03*
D13*
X71702540Y-105240000D03*
D14*
X71702540Y-115400000D03*
D13*
X91546540Y-105264000D03*
D14*
X91546540Y-115424000D03*
D13*
X109952540Y-104790000D03*
D14*
X109952540Y-114950000D03*
D13*
X144110000Y-100402540D03*
D14*
X133950000Y-100402540D03*
D13*
X129644000Y-124949000D03*
D14*
X129644000Y-135109000D03*
D13*
X114140000Y-100447460D03*
D14*
X124300000Y-100447460D03*
D13*
X91546540Y-85960000D03*
D14*
X91546540Y-96120000D03*
D13*
X71752540Y-86140000D03*
D14*
X71752540Y-96300000D03*
D13*
X53755620Y-88967000D03*
D14*
X53708160Y-97517000D03*
D13*
X37940000Y-81247460D03*
D14*
X46500000Y-81250000D03*
D13*
X59000000Y-81250000D03*
D14*
X67250000Y-81297460D03*
D13*
X71802540Y-67090000D03*
D14*
X71802540Y-77250000D03*
D13*
X91544000Y-67037000D03*
D14*
X91544000Y-77197000D03*
D13*
X114404000Y-80882540D03*
D14*
X104244000Y-80882540D03*
D13*
X143210000Y-81352540D03*
D14*
X133050000Y-81352540D03*
D13*
X127993000Y-103613000D03*
D14*
X127993000Y-113773000D03*
D13*
X52176540Y-102840000D03*
D14*
X52176540Y-113000000D03*
D11*
X82654000Y-81388000D03*
D12*
X92814000Y-81388000D03*
D11*
X80241000Y-81388000D03*
D12*
X70081000Y-81388000D03*
D21*
X48895000Y-69565000D03*
X55395000Y-68465000D03*
X55395000Y-64465000D03*
X55395000Y-61465000D03*
D22*
X81384000Y-78213000D03*
X81384000Y-79483000D03*
D23*
X155037000Y-112249000D03*
X141963000Y-112249000D03*
X154910000Y-131172000D03*
X142090000Y-131172000D03*
X230856000Y-131299000D03*
X66144000Y-131299000D03*
X222474000Y-69450000D03*
X74526000Y-69450000D03*
X225141000Y-70085000D03*
X71859000Y-70085000D03*
X208290000Y-93072000D03*
X88710000Y-93072000D03*
X244064000Y-91040000D03*
X52936000Y-91040000D03*
X259558000Y-96628000D03*
X37442000Y-96628000D03*
X222601000Y-76054000D03*
X74399000Y-76054000D03*
X239238000Y-68561000D03*
X206218000Y-74276000D03*
X90782000Y-74276000D03*
X57762000Y-68561000D03*
D24*
X144590000Y-76930000D02*
X144590000Y-79972540D01*
X144590000Y-79972540D02*
X143210000Y-81352540D01*
X227108430Y-77250000D02*
X225197460Y-77250000D01*
X229750000Y-79891570D02*
X227108430Y-77250000D01*
X229750000Y-81297460D02*
X229750000Y-79891570D01*
X229750000Y-82703350D02*
X233641650Y-86595000D01*
X229750000Y-81297460D02*
X229750000Y-82703350D01*
X233641650Y-86595000D02*
X247620000Y-86595000D01*
X250500000Y-83715000D02*
X250500000Y-81250000D01*
X247620000Y-86595000D02*
X250500000Y-83715000D01*
X225144460Y-77197000D02*
X225197460Y-77250000D01*
X205456000Y-77197000D02*
X225144460Y-77197000D01*
X195035650Y-77197000D02*
X195296000Y-77197000D01*
X195296000Y-77197000D02*
X205456000Y-77197000D01*
X192756000Y-79476650D02*
X192756000Y-80882540D01*
X195035650Y-77197000D02*
X192756000Y-79476650D01*
X191042770Y-80372000D02*
X191486000Y-80815230D01*
D25*
X191553310Y-80882540D02*
X191486000Y-80815230D01*
D24*
X191553310Y-80882540D02*
X192756000Y-80882540D01*
X169418725Y-79102000D02*
X167168185Y-81352540D01*
X167168185Y-81352540D02*
X166340000Y-81352540D01*
X170658000Y-79102000D02*
X169418725Y-79102000D01*
X163950000Y-81352540D02*
X166340000Y-81352540D01*
X191042770Y-80372000D02*
X187168000Y-80372000D01*
D25*
X184628000Y-80372000D02*
X187168000Y-80372000D01*
D24*
X170658000Y-79102000D02*
X183358000Y-79102000D01*
X183358000Y-79102000D02*
X184628000Y-80372000D01*
X144590000Y-95980000D02*
X144590000Y-99922540D01*
X144590000Y-99922540D02*
X144110000Y-100402540D01*
X172655080Y-100402540D02*
X172700000Y-100447460D01*
X163050000Y-100402540D02*
X172655080Y-100402540D01*
X204047570Y-96120000D02*
X205453460Y-96120000D01*
X225067460Y-96120000D02*
X225247460Y-96300000D01*
X205453460Y-96120000D02*
X225067460Y-96120000D01*
X225247460Y-97705890D02*
X226201570Y-98660000D01*
X225247460Y-96300000D02*
X225247460Y-97705890D01*
X241885950Y-97517000D02*
X243291840Y-97517000D01*
X240742950Y-98660000D02*
X241885950Y-97517000D01*
X226201570Y-98660000D02*
X240742950Y-98660000D01*
X248600000Y-98941570D02*
X248600000Y-100347460D01*
X247175430Y-97517000D02*
X248600000Y-98941570D01*
X243291840Y-97517000D02*
X247175430Y-97517000D01*
X174105890Y-100447460D02*
X175620430Y-101962000D01*
X172700000Y-100447460D02*
X174105890Y-100447460D01*
X175620430Y-101962000D02*
X192629000Y-101962000D01*
X198471000Y-96120000D02*
X204047570Y-96120000D01*
X192629000Y-101962000D02*
X198471000Y-96120000D01*
X171897275Y-81642000D02*
X172151275Y-81896000D01*
X170658000Y-81642000D02*
X171897275Y-81642000D01*
X174087000Y-83831725D02*
X171897275Y-81642000D01*
X174087000Y-97654570D02*
X174087000Y-83831725D01*
X172700000Y-99041570D02*
X174087000Y-97654570D01*
X172700000Y-100447460D02*
X172700000Y-99041570D01*
X155037000Y-111683315D02*
X155291000Y-111429315D01*
X155037000Y-112249000D02*
X155037000Y-111683315D01*
X155291000Y-111429315D02*
X155291000Y-107804000D01*
X159482000Y-103613000D02*
X169007000Y-103613000D01*
X155291000Y-107804000D02*
X159482000Y-103613000D01*
X143592400Y-112376000D02*
X142090000Y-112376000D01*
X142090000Y-112376000D02*
X141963000Y-112249000D01*
X144590000Y-115030000D02*
X144590000Y-113373600D01*
X144590000Y-113373600D02*
X143592400Y-112376000D01*
X246229350Y-113000000D02*
X246980350Y-112249000D01*
X244823460Y-113000000D02*
X246229350Y-113000000D01*
X246980350Y-112249000D02*
X252065000Y-112249000D01*
X252065000Y-112249000D02*
X253970000Y-114154000D01*
X253970000Y-114154000D02*
X253970000Y-117964000D01*
X252436540Y-119497460D02*
X250000000Y-119497460D01*
X253970000Y-117964000D02*
X252436540Y-119497460D01*
X243417570Y-113000000D02*
X239088570Y-117329000D01*
X244823460Y-113000000D02*
X243417570Y-113000000D01*
X239088570Y-117329000D02*
X228632350Y-117329000D01*
X226703350Y-115400000D02*
X228632350Y-117329000D01*
X225297460Y-115400000D02*
X226703350Y-115400000D01*
X225273460Y-115424000D02*
X225297460Y-115400000D01*
X205453460Y-115424000D02*
X225273460Y-115424000D01*
X204979460Y-114950000D02*
X205453460Y-115424000D01*
X187047460Y-114950000D02*
X204979460Y-114950000D01*
X185870460Y-113773000D02*
X187047460Y-114950000D01*
X169007000Y-113773000D02*
X185870460Y-113773000D01*
X126342000Y-86722000D02*
X127581275Y-86722000D01*
X127581275Y-86722000D02*
X129156085Y-88296810D01*
X129156085Y-88296810D02*
X129186810Y-88296810D01*
X130329811Y-108543467D02*
X127993000Y-110880278D01*
X129186810Y-88296810D02*
X129186810Y-98075810D01*
X129186810Y-98075810D02*
X130329811Y-99218811D01*
X130329811Y-99218811D02*
X130329811Y-108543467D01*
X127993000Y-110880278D02*
X127993000Y-113773000D01*
X157831000Y-124949000D02*
X167356000Y-124949000D01*
X155309999Y-127470001D02*
X157831000Y-124949000D01*
X155309999Y-130772001D02*
X155309999Y-127470001D01*
X154910000Y-131172000D02*
X155309999Y-130772001D01*
X144590000Y-134080000D02*
X144590000Y-133672000D01*
X144590000Y-133672000D02*
X142090000Y-131172000D01*
X167356000Y-135109000D02*
X186406000Y-135109000D01*
X187811890Y-135109000D02*
X205453460Y-135109000D01*
X186406000Y-135109000D02*
X187811890Y-135109000D01*
X224379000Y-135109000D02*
X224506000Y-135236000D01*
X205453460Y-135109000D02*
X224379000Y-135109000D01*
X225911890Y-135236000D02*
X243553460Y-135236000D01*
X228250000Y-120903350D02*
X226538000Y-122615350D01*
X228250000Y-119497460D02*
X228250000Y-120903350D01*
X226538000Y-122615350D02*
X226538000Y-131798110D01*
X226538000Y-131798110D02*
X226538000Y-134220000D01*
X225911890Y-135236000D02*
X224506000Y-135236000D01*
X226538000Y-134609890D02*
X225911890Y-135236000D01*
X226538000Y-134220000D02*
X226538000Y-134609890D01*
X129644000Y-135109000D02*
X129644000Y-133703110D01*
X128374000Y-128505000D02*
X123167000Y-123298000D01*
X129644000Y-133703110D02*
X128374000Y-132433110D01*
X128374000Y-132433110D02*
X128374000Y-128505000D01*
X123167000Y-123298000D02*
X123167000Y-114916000D01*
X129771000Y-108312000D02*
X129771000Y-100438000D01*
X123167000Y-114916000D02*
X129771000Y-108312000D01*
X129771000Y-100438000D02*
X128247000Y-98914000D01*
X128247000Y-98914000D02*
X128247000Y-91167000D01*
X128247000Y-91167000D02*
X126342000Y-89262000D01*
X114370000Y-77940000D02*
X114370000Y-80848540D01*
X114370000Y-80848540D02*
X114404000Y-80882540D01*
X114370000Y-96990000D02*
X114370000Y-100217460D01*
X114370000Y-100217460D02*
X114140000Y-100447460D01*
X113360000Y-104870000D02*
X110032540Y-104870000D01*
X110032540Y-104870000D02*
X109952540Y-104790000D01*
X122532000Y-126600000D02*
X122532000Y-129415600D01*
X122532000Y-129415600D02*
X125540000Y-132423600D01*
X125540000Y-132423600D02*
X125540000Y-134080000D01*
X120881000Y-124949000D02*
X122532000Y-126600000D01*
X110594000Y-124949000D02*
X120881000Y-124949000D01*
X91544000Y-67037000D02*
X94043000Y-67037000D01*
X94043000Y-67037000D02*
X94310000Y-66770000D01*
X91546540Y-85960000D02*
X94170000Y-85960000D01*
X94170000Y-85960000D02*
X94310000Y-85820000D01*
X94310000Y-104870000D02*
X91940540Y-104870000D01*
X91940540Y-104870000D02*
X91546540Y-105264000D01*
X106490000Y-134080000D02*
X106490000Y-132423600D01*
X106490000Y-132423600D02*
X105492400Y-131426000D01*
X105492400Y-131426000D02*
X104498000Y-131426000D01*
X104498000Y-131426000D02*
X103482000Y-130410000D01*
X101831000Y-124949000D02*
X91546540Y-124949000D01*
X103482000Y-130410000D02*
X103482000Y-126600000D01*
X103482000Y-126600000D02*
X101831000Y-124949000D01*
X75260000Y-66770000D02*
X72122540Y-66770000D01*
X72122540Y-66770000D02*
X71802540Y-67090000D01*
X71752540Y-86140000D02*
X74940000Y-86140000D01*
X74940000Y-86140000D02*
X75260000Y-85820000D01*
X75260000Y-104870000D02*
X72072540Y-104870000D01*
X72072540Y-104870000D02*
X71702540Y-105240000D01*
X87440000Y-134080000D02*
X87440000Y-132423600D01*
X84432000Y-129775000D02*
X84432000Y-126981000D01*
X87440000Y-132423600D02*
X86061400Y-131045000D01*
X86061400Y-131045000D02*
X85702000Y-131045000D01*
X82527000Y-125076000D02*
X72494000Y-125076000D01*
X85702000Y-131045000D02*
X84432000Y-129775000D01*
X84432000Y-126981000D02*
X82527000Y-125076000D01*
X60175000Y-78086000D02*
X60175000Y-78661508D01*
X64112000Y-74149000D02*
X60175000Y-78086000D01*
X67265400Y-74149000D02*
X64112000Y-74149000D01*
X68390000Y-76930000D02*
X68390000Y-75273600D01*
X68390000Y-75273600D02*
X67265400Y-74149000D01*
X59000000Y-81250000D02*
X59000000Y-79836508D01*
X59000000Y-79836508D02*
X60175000Y-78661508D01*
X63985000Y-87611000D02*
X55111620Y-87611000D01*
X55111620Y-87611000D02*
X53755620Y-88967000D01*
X65382000Y-89008000D02*
X63985000Y-87611000D01*
X65382000Y-92437000D02*
X65382000Y-89008000D01*
X66144000Y-93199000D02*
X65382000Y-92437000D01*
X67265400Y-93199000D02*
X66144000Y-93199000D01*
X68390000Y-95980000D02*
X68390000Y-94323600D01*
X68390000Y-94323600D02*
X67265400Y-93199000D01*
X52176540Y-102840000D02*
X60545000Y-102840000D01*
X60545000Y-102840000D02*
X65509000Y-107804000D01*
X65509000Y-107804000D02*
X65509000Y-111233000D01*
X65509000Y-111233000D02*
X66271000Y-111995000D01*
X67011400Y-111995000D02*
X68390000Y-113373600D01*
X66271000Y-111995000D02*
X67011400Y-111995000D01*
X68390000Y-113373600D02*
X68390000Y-115030000D01*
X231618000Y-130537000D02*
X230856000Y-131299000D01*
X231618000Y-125838000D02*
X231618000Y-130537000D01*
X232380000Y-125076000D02*
X231618000Y-125838000D01*
X243553460Y-125076000D02*
X232380000Y-125076000D01*
X68390000Y-134080000D02*
X68390000Y-133545000D01*
X68390000Y-133545000D02*
X66144000Y-131299000D01*
X48342400Y-74276000D02*
X44911460Y-74276000D01*
X44911460Y-74276000D02*
X44554000Y-74633460D01*
X44554000Y-74633460D02*
X37940000Y-81247460D01*
X49340000Y-76930000D02*
X49340000Y-75273600D01*
X49340000Y-75273600D02*
X48342400Y-74276000D01*
X45443000Y-93144460D02*
X48160860Y-93144460D01*
X48160860Y-93144460D02*
X49340000Y-94323600D01*
X45443000Y-93144460D02*
X38240000Y-100347460D01*
X49340000Y-95980000D02*
X49340000Y-94323600D01*
X49340000Y-115030000D02*
X49340000Y-113373600D01*
X49340000Y-113373600D02*
X48215400Y-112249000D01*
X48215400Y-112249000D02*
X44088460Y-112249000D01*
X44088460Y-112249000D02*
X36840000Y-119497460D01*
X58590000Y-123044000D02*
X58590000Y-119497460D01*
X58590000Y-123044000D02*
X58590000Y-123173600D01*
X58590000Y-123173600D02*
X49340000Y-132423600D01*
X49340000Y-132423600D02*
X49340000Y-134080000D01*
X216886000Y-69450000D02*
X222474000Y-69450000D01*
X213584000Y-66148000D02*
X216886000Y-69450000D01*
X210790000Y-66148000D02*
X213584000Y-66148000D01*
X207742000Y-69196000D02*
X210790000Y-66148000D01*
X196820000Y-69196000D02*
X207742000Y-69196000D01*
X194026000Y-66402000D02*
X196820000Y-69196000D01*
X185898000Y-66402000D02*
X194026000Y-66402000D01*
X170658000Y-70181275D02*
X170658000Y-68942000D01*
X170688725Y-70212000D02*
X170658000Y-70181275D01*
X171166000Y-70212000D02*
X170688725Y-70212000D01*
X175738000Y-74784000D02*
X171166000Y-70212000D01*
X180056000Y-73006000D02*
X180056000Y-74276000D01*
X182850000Y-70212000D02*
X180056000Y-73006000D01*
X180056000Y-74276000D02*
X179548000Y-74784000D01*
X182850000Y-68210725D02*
X182850000Y-70212000D01*
X179548000Y-74784000D02*
X175738000Y-74784000D01*
X184658725Y-66402000D02*
X182850000Y-68210725D01*
X185898000Y-66402000D02*
X184658725Y-66402000D01*
X170658000Y-68942000D02*
X170658000Y-71482000D01*
X243102000Y-66856000D02*
X238232000Y-66856000D01*
X251196000Y-66856000D02*
X250434001Y-66094001D01*
X250434001Y-66094001D02*
X243863999Y-66094001D01*
X243863999Y-66094001D02*
X243102000Y-66856000D01*
X70062001Y-69050001D02*
X67868000Y-66856000D01*
X67868000Y-66856000D02*
X58768000Y-66856000D01*
X74526000Y-69450000D02*
X74126001Y-69050001D01*
X74126001Y-69050001D02*
X70062001Y-69050001D01*
X48895000Y-69565000D02*
X48895000Y-66758600D01*
X48895000Y-66758600D02*
X46992400Y-64856000D01*
X46992400Y-64856000D02*
X46881630Y-64856000D01*
X46881630Y-64856000D02*
X45804000Y-64856000D01*
X237134370Y-62846000D02*
X235301000Y-64679370D01*
X235301000Y-64679370D02*
X235245630Y-64679370D01*
X229840000Y-70085000D02*
X225141000Y-70085000D01*
X235245630Y-64679370D02*
X229840000Y-70085000D01*
X238212000Y-62846000D02*
X237134370Y-62846000D01*
X202154000Y-75038000D02*
X203932000Y-73260000D01*
X203932000Y-73260000D02*
X207488000Y-73260000D01*
X189454000Y-75038000D02*
X202154000Y-75038000D01*
X185898000Y-71482000D02*
X189454000Y-75038000D01*
X220696000Y-74530000D02*
X220950000Y-74276000D01*
X208758000Y-74530000D02*
X220696000Y-74530000D01*
X220950000Y-74276000D02*
X225141000Y-70085000D01*
X207488000Y-73260000D02*
X208758000Y-74530000D01*
X238212000Y-62846000D02*
X251176000Y-62846000D01*
X72258999Y-72262999D02*
X78209000Y-78213000D01*
X78209000Y-78213000D02*
X81384000Y-78213000D01*
X72258999Y-70484999D02*
X72258999Y-71736000D01*
X72258999Y-71736000D02*
X72258999Y-72262999D01*
X71859000Y-70085000D02*
X72258999Y-70484999D01*
X55603000Y-62846000D02*
X55395000Y-62638000D01*
X55395000Y-62638000D02*
X55395000Y-61465000D01*
X57000000Y-62846000D02*
X55603000Y-62846000D01*
X57381000Y-63227000D02*
X57000000Y-62846000D01*
X57381000Y-64546630D02*
X57381000Y-63227000D01*
X58768000Y-64856000D02*
X57690370Y-64856000D01*
X57690370Y-64856000D02*
X57381000Y-64546630D01*
X131140000Y-84309000D02*
X131140000Y-85198000D01*
X131140000Y-85198000D02*
X131140000Y-89135000D01*
X126342000Y-84182000D02*
X130124000Y-84182000D01*
X130124000Y-84182000D02*
X131140000Y-85198000D01*
X131140000Y-76046400D02*
X131140000Y-84309000D01*
X131140000Y-89135000D02*
X131140000Y-93440000D01*
X132692000Y-114408000D02*
X131401600Y-114408000D01*
X131401600Y-114408000D02*
X131140000Y-114146400D01*
X131140000Y-114146400D02*
X131140000Y-112490000D01*
X134470000Y-116186000D02*
X132692000Y-114408000D01*
X134470000Y-124441000D02*
X134470000Y-116186000D01*
X131140000Y-127771000D02*
X134470000Y-124441000D01*
X131140000Y-131540000D02*
X131140000Y-127771000D01*
X131140000Y-74390000D02*
X131140000Y-76046400D01*
X131140000Y-93440000D02*
X131140000Y-95096400D01*
X131140000Y-95096400D02*
X131140000Y-112490000D01*
X126342000Y-91802000D02*
X126342000Y-93041275D01*
X126342000Y-93041275D02*
X125422275Y-93961000D01*
X125422275Y-93961000D02*
X124945000Y-93961000D01*
X117325000Y-92310000D02*
X117325000Y-93961000D01*
X117325000Y-93961000D02*
X117325000Y-100438000D01*
X124945000Y-93961000D02*
X117325000Y-93961000D01*
X116910000Y-83540000D02*
X116910000Y-72972000D01*
X116910000Y-72972000D02*
X114404000Y-70466000D01*
X114404000Y-70466000D02*
X114404000Y-67021000D01*
X114404000Y-67021000D02*
X116910000Y-64515000D01*
X116910000Y-64515000D02*
X116910000Y-64490000D01*
X121389000Y-104502000D02*
X119484000Y-102597000D01*
X119484000Y-102597000D02*
X119357000Y-102470000D01*
X117325000Y-100438000D02*
X119484000Y-102597000D01*
X114658000Y-89643000D02*
X117325000Y-92310000D01*
X114658000Y-84135600D02*
X114658000Y-89643000D01*
X116910000Y-83540000D02*
X115253600Y-83540000D01*
X115253600Y-83540000D02*
X114658000Y-84135600D01*
X108181000Y-129312400D02*
X108181000Y-121901000D01*
X119738000Y-117075000D02*
X126810000Y-110003000D01*
X126810000Y-110003000D02*
X126810000Y-107410000D01*
X113007000Y-117075000D02*
X119738000Y-117075000D01*
X108181000Y-121901000D02*
X113007000Y-117075000D01*
X112090000Y-131540000D02*
X110408600Y-131540000D01*
X110408600Y-131540000D02*
X108181000Y-129312400D01*
X125558400Y-104502000D02*
X121389000Y-104502000D01*
X126810000Y-107410000D02*
X126810000Y-105753600D01*
X126810000Y-105753600D02*
X125558400Y-104502000D01*
X107760000Y-91802000D02*
X107760000Y-94342000D01*
X107760000Y-94342000D02*
X107760000Y-107410000D01*
X111102000Y-91802000D02*
X109862725Y-91802000D01*
X109862725Y-91802000D02*
X107760000Y-93904725D01*
X107760000Y-93904725D02*
X107760000Y-94342000D01*
X107760000Y-90016400D02*
X107760000Y-91802000D01*
X107760000Y-69310000D02*
X107760000Y-70966400D01*
X107760000Y-70966400D02*
X107760000Y-88360000D01*
X107760000Y-88360000D02*
X107760000Y-90016400D01*
X100307000Y-120123000D02*
X107760000Y-112670000D01*
X107760000Y-112670000D02*
X107760000Y-107410000D01*
X91671000Y-120123000D02*
X100307000Y-120123000D01*
X89385000Y-122409000D02*
X91671000Y-120123000D01*
X89385000Y-126228600D02*
X89385000Y-122409000D01*
X93040000Y-131540000D02*
X93040000Y-129883600D01*
X93040000Y-129883600D02*
X89385000Y-126228600D01*
X193911701Y-85845701D02*
X196058000Y-87992000D01*
X203210000Y-87992000D02*
X208290000Y-93072000D01*
X196058000Y-87992000D02*
X203210000Y-87992000D01*
X186774299Y-85845701D02*
X185898000Y-86722000D01*
X193911701Y-85845701D02*
X186774299Y-85845701D01*
X88710000Y-105753600D02*
X88710000Y-93072000D01*
X88710000Y-93072000D02*
X88710000Y-88360000D01*
X88710000Y-88360000D02*
X88710000Y-69310000D01*
X88710000Y-107410000D02*
X88710000Y-105753600D01*
X82527000Y-119615000D02*
X88710000Y-113432000D01*
X88710000Y-113432000D02*
X88710000Y-107410000D01*
X73383000Y-119615000D02*
X82527000Y-119615000D01*
X70462000Y-122536000D02*
X73383000Y-119615000D01*
X70462000Y-129693400D02*
X70462000Y-122536000D01*
X73990000Y-131540000D02*
X72308600Y-131540000D01*
X72308600Y-131540000D02*
X70462000Y-129693400D01*
X196820000Y-83420000D02*
X196058000Y-84182000D01*
X207742000Y-84944000D02*
X206218000Y-83420000D01*
X213330000Y-84944000D02*
X207742000Y-84944000D01*
X216632000Y-88246000D02*
X213330000Y-84944000D01*
X196058000Y-84182000D02*
X185898000Y-84182000D01*
X232380000Y-88246000D02*
X216632000Y-88246000D01*
X232634000Y-87992000D02*
X232380000Y-88246000D01*
X239492000Y-87992000D02*
X232634000Y-87992000D01*
X242540000Y-91040000D02*
X239492000Y-87992000D01*
X206218000Y-83420000D02*
X196820000Y-83420000D01*
X244064000Y-91040000D02*
X242540000Y-91040000D01*
X52936000Y-91040000D02*
X52219400Y-91040000D01*
X52219400Y-91040000D02*
X51539000Y-91720400D01*
X54940000Y-93440000D02*
X53258600Y-93440000D01*
X55857000Y-86341000D02*
X57381000Y-84817000D01*
X53258600Y-93440000D02*
X51539000Y-91720400D01*
X51539000Y-87865000D02*
X53063000Y-86341000D01*
X57254000Y-78360400D02*
X54940000Y-76046400D01*
X51539000Y-91720400D02*
X51539000Y-87865000D01*
X57381000Y-84817000D02*
X57381000Y-78467000D01*
X53063000Y-86341000D02*
X55857000Y-86341000D01*
X57381000Y-78467000D02*
X57274400Y-78360400D01*
X54940000Y-76046400D02*
X54940000Y-74390000D01*
X57274400Y-78360400D02*
X57254000Y-78360400D01*
X55476000Y-95632400D02*
X55476000Y-99041000D01*
X52047000Y-100311000D02*
X54206000Y-100311000D01*
X54206000Y-100311000D02*
X55476000Y-99041000D01*
X50777000Y-101581000D02*
X52047000Y-100311000D01*
X50777000Y-104375000D02*
X50777000Y-101581000D01*
X54940000Y-108538000D02*
X50777000Y-104375000D01*
X54940000Y-112490000D02*
X54940000Y-108538000D01*
X54940000Y-131540000D02*
X54940000Y-128406000D01*
X54940000Y-128406000D02*
X57127000Y-126219000D01*
X57127000Y-126219000D02*
X59159000Y-126219000D01*
X54940000Y-114146400D02*
X54940000Y-112490000D01*
X59159000Y-126219000D02*
X61445000Y-123933000D01*
X61445000Y-123933000D02*
X61445000Y-117964000D01*
X56471600Y-115678000D02*
X54940000Y-114146400D01*
X61445000Y-117964000D02*
X59159000Y-115678000D01*
X59159000Y-115678000D02*
X56471600Y-115678000D01*
X54940000Y-93440000D02*
X54940000Y-95096400D01*
X54940000Y-95096400D02*
X55476000Y-95632400D01*
X202408000Y-94088000D02*
X201900000Y-94596000D01*
X201900000Y-94596000D02*
X191232000Y-94596000D01*
X232888000Y-93326000D02*
X228824000Y-93326000D01*
X207742000Y-94596000D02*
X207234000Y-94088000D01*
X235682000Y-96120000D02*
X232888000Y-93326000D01*
X240254000Y-96120000D02*
X235682000Y-96120000D01*
X242249601Y-94124399D02*
X240254000Y-96120000D01*
X191232000Y-94596000D02*
X185898000Y-89262000D01*
X246567601Y-94124399D02*
X242249601Y-94124399D01*
X227554000Y-94596000D02*
X207742000Y-94596000D01*
X247366000Y-93326000D02*
X246567601Y-94124399D01*
X207234000Y-94088000D02*
X202408000Y-94088000D01*
X228824000Y-93326000D02*
X227554000Y-94596000D01*
X252192000Y-93326000D02*
X247366000Y-93326000D01*
X255494000Y-96628000D02*
X252192000Y-93326000D01*
X259558000Y-96628000D02*
X255494000Y-96628000D01*
X35890000Y-95096400D02*
X35890000Y-95866000D01*
X35890000Y-95866000D02*
X35890000Y-112490000D01*
X37442000Y-96628000D02*
X36652000Y-96628000D01*
X36652000Y-96628000D02*
X35890000Y-95866000D01*
X34902000Y-116313000D02*
X35890000Y-115325000D01*
X35890000Y-115325000D02*
X35890000Y-112490000D01*
X34902000Y-128895600D02*
X34902000Y-116313000D01*
X35890000Y-131540000D02*
X35890000Y-129883600D01*
X35890000Y-129883600D02*
X34902000Y-128895600D01*
X35890000Y-93440000D02*
X35890000Y-95096400D01*
X35890000Y-74390000D02*
X35890000Y-76046400D01*
X35890000Y-76046400D02*
X35890000Y-93440000D01*
X170658000Y-76562000D02*
X172231601Y-78135601D01*
X172231601Y-78135601D02*
X172436000Y-78340000D01*
X172436000Y-78340000D02*
X184120000Y-78340000D01*
X184120000Y-78340000D02*
X184628000Y-77832000D01*
D25*
X184628000Y-77832000D02*
X186914000Y-77832000D01*
D24*
X206726000Y-75292000D02*
X207488000Y-76054000D01*
X204214278Y-75292000D02*
X206726000Y-75292000D01*
X222035315Y-76054000D02*
X222601000Y-76054000D01*
X202944278Y-76562000D02*
X204214278Y-75292000D01*
X189708000Y-77832000D02*
X190978000Y-76562000D01*
X186914000Y-77832000D02*
X189708000Y-77832000D01*
X207488000Y-76054000D02*
X222035315Y-76054000D01*
X190978000Y-76562000D02*
X202944278Y-76562000D01*
X70081000Y-81388000D02*
X73256000Y-81388000D01*
X73256000Y-81388000D02*
X74399000Y-80245000D01*
X74399000Y-76054000D02*
X67033000Y-68688000D01*
X74399000Y-80245000D02*
X74399000Y-76054000D01*
X67033000Y-68688000D02*
X60556000Y-68688000D01*
X55881600Y-69958000D02*
X55395000Y-69471400D01*
X60556000Y-68688000D02*
X59286000Y-69958000D01*
X59286000Y-69958000D02*
X55881600Y-69958000D01*
X55395000Y-68465000D02*
X55395000Y-69471400D01*
X206980000Y-74276000D02*
X206218000Y-74276000D01*
X220673468Y-75342810D02*
X208046810Y-75342810D01*
X230094000Y-74276000D02*
X221740278Y-74276000D01*
X208046810Y-75342810D02*
X206980000Y-74276000D01*
X221740278Y-74276000D02*
X220673468Y-75342810D01*
X231618000Y-72752000D02*
X230094000Y-74276000D01*
X231618000Y-70339000D02*
X231618000Y-72752000D01*
X233396000Y-68561000D02*
X231618000Y-70339000D01*
X239238000Y-68561000D02*
X233396000Y-68561000D01*
X206218000Y-74276000D02*
X204186000Y-74276000D01*
X204186000Y-74276000D02*
X202916000Y-75546000D01*
X202916000Y-75546000D02*
X202662000Y-75800000D01*
X202662000Y-75800000D02*
X187676000Y-75800000D01*
X187676000Y-75800000D02*
X187168000Y-75292000D01*
X184628000Y-75546000D02*
X183104000Y-77070000D01*
X183104000Y-77070000D02*
X180818000Y-77070000D01*
X180818000Y-77070000D02*
X179294000Y-75546000D01*
X172182000Y-75546000D02*
X170658000Y-74022000D01*
X179294000Y-75546000D02*
X172182000Y-75546000D01*
X184628000Y-75546000D02*
X184882000Y-75292000D01*
D25*
X187168000Y-75292000D02*
X184882000Y-75292000D01*
D24*
X93322000Y-79748630D02*
X93322000Y-75800000D01*
X91798000Y-74276000D02*
X90782000Y-74276000D01*
X93322000Y-75800000D02*
X91798000Y-74276000D01*
X92814000Y-80256630D02*
X93322000Y-79748630D01*
X56492000Y-65640000D02*
X55563600Y-65640000D01*
X55563600Y-65640000D02*
X55395000Y-65471400D01*
X55395000Y-65471400D02*
X55395000Y-64465000D01*
X57362001Y-66510001D02*
X56492000Y-65640000D01*
X57762000Y-68561000D02*
X57362001Y-68161001D01*
X57362001Y-68161001D02*
X57362001Y-66510001D01*
X92814000Y-81388000D02*
X92814000Y-80256630D01*
X216759000Y-81388000D02*
X214346000Y-81388000D01*
X81384000Y-79483000D02*
X81384000Y-80245000D01*
X81384000Y-80245000D02*
X80241000Y-81388000D01*
M02*
